<svg width="159" height="44" viewBox="0 0 159 44" fill="none" xmlns="http://www.w3.org/2000/svg">
<g opacity="0.4">
<path fill-rule="evenodd" clip-rule="evenodd" d="M9.38714 3.94888C7.81691 5.04683 6.39699 6.34497 5.16438 7.80629C10.2014 7.33865 16.6008 8.10224 24.0304 11.8171C31.9642 15.7839 38.3529 15.918 42.7991 15.0604C42.3957 13.8389 41.8877 12.6649 41.2861 11.5489C36.1964 12.0858 29.6714 11.3752 22.0671 7.57314C17.2382 5.15873 12.9817 4.16415 9.38714 3.94888ZM38.313 7.31705C34.2936 2.82621 28.4525 0 21.9512 0C20.042 0 18.1895 0.243776 16.4235 0.701868C18.8153 1.35448 21.3562 2.30925 24.0304 3.64639C29.5979 6.43009 34.4045 7.32639 38.313 7.31705ZM43.7497 19.3479C38.3783 20.4086 30.9608 20.1907 22.0671 15.7438C13.7524 11.5865 7.13462 11.6388 2.67135 12.6307C2.44098 12.6819 2.21602 12.7356 1.9965 12.7916C1.41214 14.0625 0.945696 15.3989 0.611014 16.7866C0.968472 16.6911 1.33785 16.6004 1.71896 16.5156C7.13367 15.3124 14.7842 15.3646 24.0304 19.9878C32.3452 24.1451 38.9629 24.0928 43.4263 23.1009C43.5792 23.067 43.7299 23.0319 43.878 22.9956C43.8943 22.6496 43.9024 22.3013 43.9024 21.9512C43.9024 21.0704 43.8506 20.2017 43.7497 19.3479ZM43.1613 27.6281C37.842 28.5581 30.6406 28.2011 22.0671 23.9145C13.7524 19.7572 7.13462 19.8095 2.67135 20.8014C1.68064 21.0215 0.789409 21.2896 0.00321585 21.5726C0.00107232 21.6985 0 21.8248 0 21.9512C0 34.0745 9.82788 43.9024 21.9512 43.9024C32.1114 43.9024 40.6594 36.9997 43.1613 27.6281Z" fill="white"/>
<path d="M66.9622 32.9204C65.7153 32.9204 64.5563 32.6921 63.4851 32.2355C62.4314 31.7789 61.5183 31.1467 60.7456 30.3389C59.9904 29.5136 59.4373 28.5565 59.0861 27.4677L62.0626 26.177C62.5368 27.3009 63.2217 28.1877 64.1173 28.8375C65.0129 29.4697 66.0226 29.7858 67.1465 29.7858C67.7787 29.7858 68.3231 29.6892 68.7797 29.496C69.2539 29.2853 69.6139 29.0043 69.8597 28.6531C70.1231 28.3019 70.2548 27.8804 70.2548 27.3887C70.2548 26.8092 70.0792 26.335 69.728 25.9663C69.3944 25.5799 68.8851 25.2814 68.2002 25.0707L64.4334 23.8589C62.9056 23.3848 61.7553 22.6736 60.9826 21.7253C60.21 20.777 59.8236 19.6619 59.8236 18.3799C59.8236 17.256 60.0958 16.2638 60.6402 15.4033C61.2022 14.5428 61.9748 13.8755 62.9583 13.4014C63.9592 12.9097 65.1007 12.6638 66.3826 12.6638C67.5592 12.6638 68.6392 12.8745 69.6226 13.296C70.6061 13.6999 71.449 14.2706 72.1514 15.0082C72.8714 15.7282 73.407 16.5799 73.7583 17.5633L70.808 18.8804C70.4217 17.897 69.8422 17.1419 69.0695 16.615C68.2968 16.0706 67.4012 15.7985 66.3826 15.7985C65.7856 15.7985 65.2587 15.9038 64.8022 16.1146C64.3456 16.3077 63.9856 16.5887 63.7222 16.9575C63.4763 17.3087 63.3534 17.7302 63.3534 18.2219C63.3534 18.7663 63.529 19.2492 63.8802 19.6706C64.2314 20.0746 64.767 20.3906 65.487 20.6189L69.0958 21.7516C70.6587 22.2609 71.8265 22.9633 72.5992 23.8589C73.3895 24.7546 73.7846 25.8609 73.7846 27.178C73.7846 28.3019 73.4948 29.2941 72.9153 30.1546C72.3358 31.015 71.5368 31.6911 70.5183 32.1828C69.4997 32.6746 68.3144 32.9204 66.9622 32.9204Z" fill="white"/>
<path d="M76.7206 32.6043V12.6638H80.1714V21.0931L79.6972 20.5926C80.0309 19.7321 80.5753 19.0824 81.3304 18.6433C82.1031 18.1867 82.9987 17.9585 84.0172 17.9585C85.0709 17.9585 86.0016 18.1867 86.8094 18.6433C87.6348 19.0999 88.2758 19.7409 88.7323 20.5663C89.1889 21.3741 89.4172 22.3136 89.4172 23.3848V32.6043H85.9665V24.2014C85.9665 23.5692 85.8436 23.0248 85.5977 22.5682C85.3519 22.1116 85.0094 21.7604 84.5704 21.5146C84.1489 21.2511 83.6484 21.1194 83.0689 21.1194C82.507 21.1194 82.0065 21.2511 81.5675 21.5146C81.1284 21.7604 80.786 22.1116 80.5401 22.5682C80.2943 23.0248 80.1714 23.5692 80.1714 24.2014V32.6043H76.7206Z" fill="white"/>
<path d="M96.6815 32.9204C95.6805 32.9204 94.8112 32.7536 94.0737 32.4199C93.3361 32.0863 92.7654 31.6121 92.3615 30.9975C91.9576 30.3653 91.7556 29.6365 91.7556 28.8111C91.7556 28.0209 91.9313 27.3185 92.2825 26.7038C92.6337 26.0716 93.1781 25.5448 93.9156 25.1233C94.6532 24.7019 95.5839 24.4033 96.7078 24.2277L101.397 23.4638V26.098L97.3664 26.7828C96.6815 26.9058 96.1722 27.1253 95.8386 27.4414C95.5049 27.7575 95.3381 28.1702 95.3381 28.6794C95.3381 29.1711 95.5225 29.5663 95.8912 29.8648C96.2776 30.1458 96.7517 30.2863 97.3137 30.2863C98.0337 30.2863 98.6659 30.137 99.2103 29.8385C99.7722 29.5224 100.202 29.0921 100.501 28.5477C100.817 28.0033 100.975 27.4063 100.975 26.7565V23.0687C100.975 22.4541 100.729 21.9448 100.238 21.5409C99.7634 21.1194 99.1312 20.9087 98.341 20.9087C97.6034 20.9087 96.9449 21.1106 96.3654 21.5146C95.8034 21.9009 95.3908 22.4189 95.1273 23.0687L92.3088 21.6989C92.5898 20.9438 93.0288 20.2941 93.6259 19.7497C94.2405 19.1877 94.9605 18.7487 95.7859 18.4326C96.6113 18.1165 97.5069 17.9585 98.4727 17.9585C99.6493 17.9585 100.685 18.178 101.581 18.617C102.477 19.0385 103.17 19.6355 103.662 20.4082C104.171 21.1633 104.426 22.0502 104.426 23.0687V32.6043H101.16V30.1546L101.897 30.1019C101.528 30.7165 101.089 31.2346 100.58 31.656C100.071 32.0599 99.4913 32.376 98.8415 32.6043C98.1917 32.815 97.4717 32.9204 96.6815 32.9204Z" fill="white"/>
<path d="M107.615 32.6043V18.2746H110.855V21.0931L110.592 20.5926C110.925 19.7321 111.47 19.0824 112.225 18.6433C112.998 18.1867 113.893 17.9585 114.912 17.9585C115.965 17.9585 116.896 18.1867 117.704 18.6433C118.529 19.0999 119.17 19.7409 119.627 20.5663C120.084 21.3741 120.312 22.3136 120.312 23.3848V32.6043H116.861V24.2014C116.861 23.5692 116.738 23.0248 116.492 22.5682C116.246 22.1116 115.904 21.7604 115.465 21.5146C115.044 21.2511 114.543 21.1194 113.964 21.1194C113.402 21.1194 112.901 21.2511 112.462 21.5146C112.023 21.7604 111.681 22.1116 111.435 22.5682C111.189 23.0248 111.066 23.5692 111.066 24.2014V32.6043H107.615Z" fill="white"/>
<path d="M130.184 38.3994C129.113 38.3994 128.121 38.2238 127.207 37.8726C126.294 37.5214 125.504 37.0297 124.837 36.3975C124.187 35.7828 123.713 35.0541 123.414 34.2111L126.628 32.9994C126.839 33.6667 127.251 34.2024 127.866 34.6063C128.498 35.0277 129.271 35.2385 130.184 35.2385C130.886 35.2385 131.501 35.1068 132.028 34.8433C132.572 34.5799 132.994 34.1936 133.292 33.6843C133.591 33.1926 133.74 32.5955 133.74 31.8931V28.6267L134.399 29.417C133.907 30.2775 133.248 30.9272 132.423 31.3663C131.598 31.8053 130.658 32.0248 129.604 32.0248C128.27 32.0248 127.076 31.7175 126.022 31.1028C124.968 30.4882 124.143 29.6453 123.546 28.5741C122.949 27.5028 122.65 26.2999 122.65 24.9653C122.65 23.6131 122.949 22.4102 123.546 21.3565C124.143 20.3028 124.96 19.4775 125.996 18.8804C127.032 18.2658 128.208 17.9585 129.525 17.9585C130.597 17.9585 131.536 18.1867 132.344 18.6433C133.169 19.0824 133.854 19.7233 134.399 20.5663L133.924 21.4355V18.2746H137.191V31.8931C137.191 33.1399 136.883 34.255 136.269 35.2385C135.672 36.2219 134.846 36.9946 133.793 37.5565C132.757 38.1185 131.554 38.3994 130.184 38.3994ZM130.026 28.8375C130.763 28.8375 131.404 28.6794 131.949 28.3633C132.511 28.0297 132.95 27.5731 133.266 26.9936C133.582 26.4141 133.74 25.7467 133.74 24.9916C133.74 24.2541 133.573 23.5955 133.24 23.016C132.923 22.4189 132.484 21.9536 131.922 21.6199C131.378 21.2863 130.746 21.1194 130.026 21.1194C129.306 21.1194 128.656 21.2863 128.077 21.6199C127.497 21.9536 127.041 22.4189 126.707 23.016C126.391 23.5955 126.233 24.2541 126.233 24.9916C126.233 25.7292 126.391 26.3877 126.707 26.9672C127.041 27.5467 127.488 28.0033 128.05 28.337C128.63 28.6707 129.288 28.8375 130.026 28.8375Z" fill="white"/>
<path d="M139.123 32.6043L144.128 25.4131L139.096 18.2746H143.153L147.078 24.0697H145.26L149.185 18.2746H153.215L148.211 25.4131L153.189 32.6043H149.159L145.287 26.8355H147.052L143.179 32.6043H139.123Z" fill="white"/>
<path d="M155.102 32.6043V18.2746H158.553V32.6043H155.102ZM155.102 16.6677V12.9799H158.553V16.6677H155.102Z" fill="white"/>
</g>
</svg>
