<svg width="153" height="34" viewBox="0 0 153 34" fill="none" xmlns="http://www.w3.org/2000/svg">
<g opacity="0.4">
<path d="M33.0274 11.0097C33.0275 8.79191 32.3578 6.62581 31.1061 4.7951C29.8543 2.9644 28.0786 1.55444 26.012 0.749923C23.9453 -0.0546024 21.6838 -0.216174 19.5237 0.286358C17.3636 0.78889 15.4057 1.9321 13.9063 3.56625H0V32.9165H29.3614V19.1997C30.5138 18.169 31.436 16.9068 32.0677 15.4956C32.6994 14.0843 33.0264 12.5559 33.0274 11.0097ZM27.378 11.0097C27.3802 12.0724 27.0671 13.1119 26.4783 13.9966C25.8894 14.8813 25.0515 15.5715 24.0702 15.9796C23.089 16.3879 22.0088 16.4959 20.9662 16.2898C19.9236 16.0839 18.9656 15.5732 18.2133 14.8225C17.4611 14.0718 16.9485 13.1149 16.7403 12.0727C16.5322 11.0306 16.6379 9.9501 17.0441 8.96808C17.4503 7.98602 18.1387 7.14655 19.0221 6.5559C19.9056 5.96525 20.9444 5.64997 22.0071 5.64996C23.4296 5.64996 24.7941 6.21429 25.8009 7.21911C26.8079 8.22393 27.3751 9.58718 27.378 11.0097ZM23.712 27.2671H5.64943V9.21568H11.154C11.0477 9.80792 10.9917 10.4081 10.9868 11.0097C10.9898 13.9316 12.1518 16.7329 14.2179 18.799C16.2839 20.865 19.0852 22.0271 22.0071 22.03C22.5784 22.027 23.1485 21.9785 23.712 21.8851V27.2671Z" fill="white"/>
<path d="M43.8763 27.6015V10.8872H38.7149V7.67809H52.6212V10.8872H47.54V27.6015H43.8763Z" fill="white"/>
<path d="M55.2407 33.5117C54.8485 33.5117 54.4652 33.476 54.0908 33.4047C53.7164 33.3512 53.3777 33.2532 53.0746 33.1106V30.1688C53.3063 30.2223 53.5827 30.2758 53.9036 30.3293C54.2423 30.3828 54.5543 30.4095 54.8396 30.4095C55.6419 30.4095 56.2213 30.2223 56.5779 29.8479C56.9523 29.4735 57.2821 28.9832 57.5674 28.3771L58.5301 26.1307L58.4766 29.0724L52.1386 13.0534H55.9093L60.3486 24.8738H59.0115L63.4241 13.0534H67.2215L60.8835 29.0724C60.5091 30.0173 60.0545 30.8196 59.5196 31.4792C58.9847 32.1389 58.3607 32.6381 57.6476 32.9768C56.9523 33.3334 56.15 33.5117 55.2407 33.5117Z" fill="white"/>
<path d="M73.0356 27.9224C72.0194 27.9224 71.1369 27.7531 70.3881 27.4143C69.6393 27.0756 69.0598 26.5942 68.6498 25.9702C68.2397 25.3284 68.0347 24.5885 68.0347 23.7506C68.0347 22.9483 68.213 22.2351 68.5696 21.6111C68.9261 20.9693 69.4788 20.4344 70.2276 20.0066C70.9764 19.5787 71.9213 19.2756 73.0624 19.0973L77.8226 18.3218V20.996L73.7309 21.6914C73.0356 21.8162 72.5186 22.039 72.1798 22.3599C71.8411 22.6808 71.6717 23.0998 71.6717 23.6168C71.6717 24.116 71.8589 24.5172 72.2333 24.8203C72.6256 25.1055 73.1069 25.2482 73.6774 25.2482C74.4084 25.2482 75.0502 25.0966 75.6029 24.7935C76.1734 24.4726 76.6102 24.0358 76.9133 23.4831C77.2342 22.9304 77.3947 22.3243 77.3947 21.6646V17.9206C77.3947 17.2966 77.1451 16.7796 76.6459 16.3695C76.1645 15.9416 75.5227 15.7277 74.7204 15.7277C73.9716 15.7277 73.303 15.9327 72.7147 16.3428C72.1442 16.735 71.7252 17.261 71.4578 17.9206L68.5963 16.53C68.8816 15.7634 69.3273 15.1037 69.9334 14.551C70.5574 13.9805 71.2884 13.5348 72.1264 13.2139C72.9643 12.8929 73.8736 12.7325 74.8541 12.7325C76.0486 12.7325 77.1005 12.9553 78.0098 13.4011C78.919 13.8289 79.6233 14.4351 80.1225 15.2196C80.6395 15.9862 80.898 16.8866 80.898 17.9206V27.6015H77.5819V25.1144L78.3307 25.061C77.9563 25.685 77.5106 26.2109 76.9936 26.6388C76.4765 27.0488 75.8882 27.3698 75.2285 27.6015C74.5689 27.8155 73.8379 27.9224 73.0356 27.9224Z" fill="white"/>
<path d="M88.5486 27.9224C87.5323 27.9224 86.6498 27.7531 85.901 27.4143C85.1522 27.0756 84.5728 26.5942 84.1627 25.9702C83.7527 25.3284 83.5476 24.5885 83.5476 23.7506C83.5476 22.9483 83.7259 22.2351 84.0825 21.6111C84.4391 20.9693 84.9918 20.4344 85.7406 20.0066C86.4894 19.5787 87.4343 19.2756 88.5753 19.0973L93.3355 18.3218V20.996L89.2439 21.6914C88.5486 21.8162 88.0315 22.039 87.6928 22.3599C87.354 22.6808 87.1847 23.0998 87.1847 23.6168C87.1847 24.116 87.3719 24.5172 87.7463 24.8203C88.1385 25.1055 88.6199 25.2482 89.1904 25.2482C89.9214 25.2482 90.5632 25.0966 91.1159 24.7935C91.6864 24.4726 92.1232 24.0358 92.4263 23.4831C92.7472 22.9304 92.9076 22.3243 92.9076 21.6646V17.9206C92.9076 17.2966 92.658 16.7796 92.1588 16.3695C91.6775 15.9416 91.0356 15.7277 90.2334 15.7277C89.4846 15.7277 88.816 15.9327 88.2276 16.3428C87.6571 16.735 87.2382 17.261 86.9707 17.9206L84.1092 16.53C84.3945 15.7634 84.8402 15.1037 85.4464 14.551C86.0704 13.9805 86.8014 13.5348 87.6393 13.2139C88.4772 12.8929 89.3865 12.7325 90.3671 12.7325C91.5616 12.7325 92.6135 12.9553 93.5227 13.4011C94.432 13.8289 95.1362 14.4351 95.6354 15.2196C96.1524 15.9862 96.411 16.8866 96.411 17.9206V27.6015H93.0948V25.1144L93.8436 25.061C93.4692 25.685 93.0235 26.2109 92.5065 26.6388C91.9895 27.0488 91.4011 27.3698 90.7415 27.6015C90.0818 27.8155 89.3508 27.9224 88.5486 27.9224Z" fill="white"/>
<path d="M99.6489 27.6015V7.35718H103.152V27.6015H99.6489Z" fill="white"/>
<path d="M106.387 32.9501V13.0534H109.676V15.9416L109.355 15.2196C109.855 14.4351 110.532 13.8289 111.388 13.4011C112.244 12.9553 113.233 12.7325 114.356 12.7325C115.729 12.7325 116.968 13.0712 118.074 13.7487C119.179 14.4262 120.052 15.3355 120.694 16.4765C121.354 17.6175 121.684 18.9012 121.684 20.3275C121.684 21.7359 121.363 23.0196 120.721 24.1784C120.079 25.3373 119.206 26.2555 118.1 26.933C116.995 27.5926 115.738 27.9224 114.33 27.9224C113.278 27.9224 112.306 27.7174 111.415 27.3074C110.541 26.8795 109.846 26.2733 109.329 25.4888L109.89 24.7935V32.9501H106.387ZM113.928 24.7133C114.731 24.7133 115.444 24.5261 116.068 24.1517C116.692 23.7773 117.173 23.2603 117.512 22.6006C117.868 21.941 118.047 21.1832 118.047 20.3275C118.047 19.4717 117.868 18.7229 117.512 18.0811C117.173 17.4214 116.692 16.9044 116.068 16.53C115.444 16.1378 114.731 15.9416 113.928 15.9416C113.162 15.9416 112.466 16.1288 111.842 16.5032C111.236 16.8776 110.755 17.4036 110.398 18.0811C110.06 18.7407 109.89 19.4895 109.89 20.3275C109.89 21.1832 110.06 21.941 110.398 22.6006C110.755 23.2603 111.236 23.7773 111.842 24.1517C112.466 24.5261 113.162 24.7133 113.928 24.7133Z" fill="white"/>
<path d="M124.355 27.6015V7.35718H127.858V15.9149L127.377 15.4068C127.715 14.5332 128.268 13.8735 129.035 13.4278C129.819 12.9643 130.728 12.7325 131.763 12.7325C132.832 12.7325 133.777 12.9643 134.597 13.4278C135.435 13.8913 136.086 14.5421 136.549 15.38C137.013 16.2002 137.245 17.154 137.245 18.2415V27.6015H133.741V19.0706C133.741 18.4287 133.617 17.876 133.367 17.4125C133.117 16.949 132.77 16.5924 132.324 16.3428C131.896 16.0753 131.388 15.9416 130.8 15.9416C130.229 15.9416 129.721 16.0753 129.275 16.3428C128.83 16.5924 128.482 16.949 128.232 17.4125C127.983 17.876 127.858 18.4287 127.858 19.0706V27.6015H124.355Z" fill="white"/>
<path d="M144.62 27.9224C143.604 27.9224 142.721 27.7531 141.972 27.4143C141.223 27.0756 140.644 26.5942 140.234 25.9702C139.824 25.3284 139.619 24.5885 139.619 23.7506C139.619 22.9483 139.797 22.2351 140.154 21.6111C140.51 20.9693 141.063 20.4344 141.812 20.0066C142.561 19.5787 143.505 19.2756 144.647 19.0973L149.407 18.3218V20.996L145.315 21.6914C144.62 21.8162 144.103 22.039 143.764 22.3599C143.425 22.6808 143.256 23.0998 143.256 23.6168C143.256 24.116 143.443 24.5172 143.817 24.8203C144.21 25.1055 144.691 25.2482 145.262 25.2482C145.993 25.2482 146.634 25.0966 147.187 24.7935C147.758 24.4726 148.194 24.0358 148.497 23.4831C148.818 22.9304 148.979 22.3243 148.979 21.6646V17.9206C148.979 17.2966 148.729 16.7796 148.23 16.3695C147.749 15.9416 147.107 15.7277 146.305 15.7277C145.556 15.7277 144.887 15.9327 144.299 16.3428C143.728 16.735 143.309 17.261 143.042 17.9206L140.18 16.53C140.466 15.7634 140.911 15.1037 141.518 14.551C142.142 13.9805 142.873 13.5348 143.711 13.2139C144.548 12.8929 145.458 12.7325 146.438 12.7325C147.633 12.7325 148.685 12.9553 149.594 13.4011C150.503 13.8289 151.207 14.4351 151.707 15.2196C152.224 15.9862 152.482 16.8866 152.482 17.9206V27.6015H149.166V25.1144L149.915 25.061C149.54 25.685 149.095 26.2109 148.578 26.6388C148.061 27.0488 147.472 27.3698 146.813 27.6015C146.153 27.8155 145.422 27.9224 144.62 27.9224Z" fill="white"/>
</g>
</svg>
