<svg width="49" height="54" viewBox="0 0 49 54" fill="none" xmlns="http://www.w3.org/2000/svg">
<g clipPath="url(#clip0_487_6425)">
<path fill-rule="evenodd" clip-rule="evenodd" d="M11.1778 39.8101C15.5247 43.9629 19.894 46.2832 24.299 46.415C28.7129 46.5469 33.2206 44.4727 37.8401 39.8364C37.1699 39.6826 36.4551 39.5332 35.7001 39.3838V39.3882L35.5929 39.3662C34.2705 39.1069 31.8536 38.6279 30.3301 37.7183C29.4634 37.1997 28.972 36.6943 28.9854 36C27.8417 36.6724 26.64 37.103 25.4069 37.2744C23.5261 37.5381 21.5961 37.1909 19.7019 36.1758C19.7957 36.9536 19.3579 37.4985 18.518 37.9995C17.2134 38.7773 15.1182 39.1157 13.5858 39.3618C13.2284 39.4189 12.9023 39.4717 12.5895 39.5332C12.0981 39.6167 11.629 39.709 11.1778 39.8101ZM17.0035 11.417C19.9565 16.4883 25.6526 19.8765 36.2362 20.2632C36.5445 21.1465 36.4462 22.0737 36.2362 23.0054C31.8938 37.5952 20.7696 41.7129 13.081 26.8286L11.9283 23.7876C9.57394 19.0547 13.9611 20.9839 15.5649 17.6309L16.2395 14.7173L17.0035 11.417ZM37.8401 25.7959C41.8877 10.3359 37.8758 3.79688 30.4999 2.56201C28.9318 0.874512 26.01 0.109863 23.946 0C6.12053 0.887695 5.30744 19.5688 9.77051 31.8735L14.1487 30.9243C15.4398 32.7612 16.798 34.1807 18.1874 35.209L18.232 35.2793C18.6877 36.0176 18.4152 36.5186 17.821 36.8701C16.7443 37.5161 14.792 37.8281 13.3624 38.0566C12.9559 38.1226 12.5851 38.1797 12.3259 38.2324C7.64396 39.1333 4.5837 40.2056 2.64925 42.4512C0.723742 44.688 0 47.9971 0 53.3452C0 53.71 0.299325 54 0.665664 54H48.3343C48.7051 54 49 53.7056 49 53.3452C49 47.8521 48.236 44.5474 46.1854 42.3281C44.1438 40.1177 40.9137 39.0806 35.9548 38.1006V38.0962L35.8476 38.0742C34.6011 37.8281 32.3227 37.3799 31.0092 36.5977C30.3391 36.1978 29.9593 35.6968 30.3167 35.0815C30.7099 34.7739 31.0941 34.4355 31.4694 34.0664C33.4127 32.168 35.1193 29.4697 36.4373 26.1035L37.8401 25.7959ZM39.6137 40.2847C34.4447 45.7119 29.3294 48.1333 24.2543 47.9839C19.1792 47.8345 14.2202 45.1099 9.36397 40.2495C6.75492 40.9614 4.90983 41.8667 3.67232 43.2993C2.0506 45.1802 1.39387 48.0542 1.34026 52.686H47.6642C47.6061 47.9355 46.9226 45.0703 45.2026 43.207C43.9651 41.8623 42.1468 40.9966 39.6137 40.2847Z" fill="black"/>
</g>
<defs>
<clipPath id="clip0_487_6425">
<rect width="49" height="54" fill="white"/>
</clipPath>
</defs>
</svg>
