<svg width="55" height="52" viewBox="0 0 55 52" fill="none" xmlns="http://www.w3.org/2000/svg">
<path d="M9.0756 26.4996C8.77154 27.1303 8.0081 27.3967 7.37373 27.0944C6.73826 26.7921 6.47139 26.0375 6.77435 25.4024C7.44701 24.0019 8.27498 22.6894 9.23201 21.4813C10.1945 20.2696 11.2883 19.1668 12.4936 18.1931C13.0415 17.7495 13.8465 17.8321 14.2884 18.3758C14.7347 18.9206 14.6515 19.7209 14.1047 20.1591C13.0415 21.0203 12.0747 21.9891 11.2336 23.0504C10.3914 24.1161 9.66842 25.2698 9.0756 26.4996ZM11.2172 41.3728C10.8453 41.0488 10.4548 40.7019 10.259 40.467L10.2481 40.4746C9.79201 40.7845 9.22763 40.9922 8.45654 40.99C7.67779 40.9889 7.03467 40.7552 6.45389 40.2724C6.22967 40.5475 5.74404 40.9574 5.30873 41.3239L5.21467 41.4021C5.14576 43.8607 10.4964 44.6045 11.2172 41.3728ZM10.574 40.2213C10.7578 40.4431 11.1975 40.8269 11.589 41.1673L11.9456 41.4804C14.5454 42.483 17.1748 43.4954 17.4756 46.639C17.5675 47.6122 17.5587 47.5698 16.6192 47.5883C11.6623 47.6861 4.75967 47.5067 -0.0911146 47.5883C-0.972677 47.6024 -1.06346 47.6655 -0.971583 46.4182C-0.291271 43.2159 1.6206 42.6059 4.49607 41.4946C4.6481 41.3576 4.84388 41.1934 5.0506 41.0194C5.51326 40.6301 6.03826 40.1875 6.16514 40.0081C5.99779 39.8407 5.84357 39.6667 5.69373 39.4927L5.05388 38.7544L4.64701 38.7653L3.76326 38.7881C3.0042 37.9204 3.05232 36.0566 3.12451 34.9801C3.47889 32.8173 4.31998 31.2591 5.68935 30.3587C6.61795 29.7487 7.17138 29.715 8.25638 29.7139C9.20248 29.7128 9.78326 29.6932 10.5904 30.2217C13.2209 31.9441 14.0358 36.0087 12.7506 38.7457H11.8898L11.3342 39.4057C11.0979 39.6884 10.8584 39.9722 10.574 40.2213ZM5.26935 38.3879C5.31748 38.4021 5.35795 38.426 5.38639 38.4586L6.11592 39.3002C6.7831 40.0701 7.36498 40.6269 8.45654 40.6279C9.64107 40.6301 10.2033 40.0603 10.9076 39.2187L11.5497 38.4543C11.577 38.4227 11.6142 38.3988 11.6569 38.3847C11.7148 38.1879 11.7608 37.9823 11.7925 37.767C11.9051 37.0135 11.9095 36.4274 11.5672 35.7325C11.2719 35.1323 10.8562 34.8213 10.4034 34.5995C10.8923 35.1421 11.297 35.6695 11.1898 36.1012C10.5926 35.4487 9.97685 34.88 9.3392 34.4081C8.00592 33.7231 7.2217 32.7955 6.8717 31.6723C4.90514 33.6252 4.55295 35.9065 5.26935 38.3879ZM47.7254 39.0425C48.8684 37.7866 49.1736 36.9395 49.0215 35.2454C48.9975 34.9746 48.957 34.6995 48.9012 34.4212C47.9683 33.9917 47.359 33.0467 47.0462 31.6288C46.6733 34.3287 43.3373 34.2135 42.4984 34.705C42.4984 34.9322 42.4919 35.1475 42.4864 35.3531C42.4492 36.7438 42.552 37.4832 43.2564 38.5934C43.3745 38.7794 43.4894 38.9588 43.6283 39.1078C44.7494 40.3093 46.6656 40.1582 47.7254 39.0425ZM38.6451 40.5377C39.4009 40.4779 39.9204 40.0549 40.2715 39.4438C40.6303 38.8251 40.8195 38.0106 40.9158 37.182C40.9639 36.7525 40.9945 36.2926 41.024 35.825C41.1717 33.5393 41.3325 31.071 43.9454 30.0216C44.3408 29.8631 44.7571 29.7616 45.1814 29.7204C46.0837 29.6323 47.0058 29.8183 47.7998 30.2696C48.595 30.723 49.2665 31.4439 49.6658 32.4258C49.8495 32.8771 49.9764 33.3849 50.0311 33.9471V33.9536C50.0245 35.3335 50.2465 37.2734 50.8492 38.6935C51.2823 39.7145 51.9134 40.467 52.7939 40.5377C52.83 40.5399 52.8573 40.5725 52.8551 40.6084L52.8486 40.6334C52.6779 41.0879 51.9276 41.4391 51.0297 41.6098C52.3728 41.935 53.3036 42.3264 53.9347 43.0169C54.7101 43.8672 55 45.1319 55 47.2349C55 47.374 54.8862 47.486 54.7473 47.486H36.6917C36.5517 47.486 36.438 47.374 36.438 47.2349C36.438 45.1873 36.7125 43.9216 37.4442 43.0648C38.0403 42.3667 38.9197 41.9632 40.1829 41.6522C39.3965 41.4587 38.7512 41.0846 38.5883 40.6258C38.5762 40.5921 38.5937 40.554 38.6276 40.542L38.6451 40.5377ZM48.9767 41.6664C48.8531 41.6479 48.7339 41.6251 48.6179 41.5968C48.2625 41.5109 47.9486 41.3782 47.7134 41.1955C47.3558 40.9161 47.1786 40.5225 47.2978 39.9951C46.2248 40.6606 45.0994 40.6595 44.033 39.9755L43.9608 39.9353C43.9553 40.2495 43.7562 41.1727 43.4511 41.3576C42.9578 41.6555 42.1637 41.7849 41.5829 41.8784C41.444 41.9013 41.3183 41.9208 41.2056 41.9437C41.0208 41.9796 40.8436 42.0165 40.673 42.0535C42.318 43.6432 43.975 44.5316 45.6419 44.5816C47.3131 44.6317 49.0215 43.8379 50.7715 42.0633C50.5167 42.0035 50.2465 41.9469 49.9611 41.8893L49.9195 41.8806C49.6756 41.8328 49.3322 41.7653 48.9767 41.6664ZM22.0158 3.1579C24.3444 0.295914 27.0284 -1.26013 29.0442 1.28543C31.4734 1.41265 32.4469 5.24893 30.5098 6.86369L30.4989 6.95938C30.5744 6.93546 30.6509 6.92132 30.7231 6.91589C30.8664 6.90501 31.0031 6.92785 31.1201 6.98983C31.247 7.05725 31.3454 7.16707 31.3958 7.32148C31.4439 7.47154 31.445 7.66183 31.3826 7.89562C31.2919 8.17507 31.1814 8.49041 31.0742 8.76334C31.0272 8.89383 30.9823 8.98843 30.8872 9.06346L30.8817 9.06672C30.7833 9.14393 30.6608 9.1722 30.477 9.16241L30.3928 9.15263C30.3753 10.0247 29.9794 10.4673 29.4434 10.9751C29.952 12.7377 31.3564 13.0074 32.7345 13.2727C34.5873 13.6283 36.3329 16.3728 36.3329 17.8071V18.6117C36.3329 18.7477 36.2214 18.8575 36.0847 18.8575H17.8431C17.7064 18.8575 17.5959 18.7477 17.5959 18.6117V17.8843C17.5959 16.0521 19.5953 13.6489 21.5422 13.3891C22.9728 13.1988 24.4154 13.0063 24.9131 11.26L24.7819 11.1469C24.1814 10.6326 23.6783 10.2019 23.5831 9.15589L23.5306 9.15698C23.4068 9.15701 23.2851 9.12517 23.1773 9.06455C22.9979 8.96451 22.8733 8.79053 22.789 8.59589C22.6884 8.36428 22.6425 8.09352 22.6326 7.89127V7.53569L22.6512 7.23123L22.6665 7.17251C22.7923 6.82563 22.9859 6.71363 23.2397 6.72124L23.0712 6.61033C22.9804 5.48272 23.2462 3.52761 22.0158 3.1579ZM29.0847 11.3122L29.0551 11.3393L28.9304 11.4546C28.8298 11.5557 28.715 11.6449 28.5881 11.7221C28.1003 12.0581 27.5862 12.2223 27.0678 12.2223C26.4684 12.2234 25.8679 12.0048 25.2981 11.5797C25.0881 12.4191 24.5478 13.0879 23.7658 13.4663C26.0309 14.8396 28.2644 14.7994 30.4617 13.1781C29.6283 12.803 29.1962 12.0831 29.0847 11.3122ZM23.6498 7.28559C23.3753 7.19099 23.1806 7.14641 23.1062 7.31604L23.0942 7.54657V7.86734C23.1019 8.02828 23.1369 8.23923 23.2123 8.4143C23.2604 8.52521 23.325 8.6209 23.4048 8.66657C23.4442 8.68832 23.489 8.6981 23.5361 8.69919C23.5929 8.69919 23.6575 8.68723 23.7253 8.66874L23.7931 8.65569C23.92 8.65352 24.0272 8.75356 24.0294 8.87969C24.0545 9.91923 24.5194 10.3172 25.0826 10.7989L25.3189 11.0033C25.8844 11.5035 26.4815 11.7634 27.0678 11.7634C27.6354 11.7645 28.2053 11.5177 28.7347 11.0088L28.9753 10.7826C29.567 10.2302 30.0034 9.82137 29.9192 8.82859C29.917 8.77966 29.9279 8.72855 29.9575 8.68505C30.0264 8.57958 30.1708 8.55022 30.2769 8.61872L30.3994 8.68288L30.4967 8.70354L30.6006 8.70463C30.7264 8.40234 30.8281 8.07938 30.9375 7.77057C30.9747 7.63138 30.9779 7.52917 30.9572 7.46393C30.9451 7.43022 30.9265 7.40629 30.9025 7.39433C30.8686 7.37694 30.8172 7.36932 30.7581 7.37476C30.629 7.38455 30.4781 7.44653 30.3436 7.54765C30.2944 7.58354 30.2309 7.60094 30.1664 7.59006C30.0406 7.5694 29.9564 7.44979 29.9772 7.32474C30.1948 6.06229 30.0953 5.23806 29.8251 4.67806C29.5878 4.18656 29.2094 3.88753 28.7992 3.66571C27.8914 4.35837 27.2494 4.43775 26.6106 4.51604C26.0823 4.58128 25.5529 4.64652 24.8551 5.12714C24.5237 5.35441 24.3017 5.63278 24.189 5.95355C24.0742 6.27977 24.0676 6.66253 24.1639 7.09639C24.1715 7.1388 24.1694 7.18338 24.154 7.22579C24.1327 7.28279 24.0896 7.32908 24.034 7.35455C23.9785 7.38002 23.9151 7.38259 23.8576 7.36171L23.6498 7.28559ZM40.0845 20.3798C39.5464 19.9307 39.4775 19.1304 39.9281 18.5954C40.3798 18.0604 41.1848 17.9919 41.7229 18.4399C42.9622 19.474 44.08 20.6408 45.0447 21.9348C45.6801 22.7851 46.2598 23.6909 46.7706 24.6467C47.0965 25.2698 46.8581 26.0375 46.2369 26.3626C45.6101 26.6877 44.8379 26.4496 44.5109 25.832C44.071 25.0014 43.5648 24.2073 42.9972 23.4571C42.1244 22.298 41.1826 21.315 40.0845 20.3798ZM32.8428 49.5107C33.51 49.2867 34.2329 49.6478 34.4583 50.3111C34.6836 50.9744 34.3204 51.692 33.6533 51.916C32.5798 52.2771 31.4778 52.5481 30.3589 52.7261C29.2366 52.909 28.1012 53.0006 26.9639 53.0002C25.799 53.0002 24.644 52.9045 23.5076 52.7174C22.3439 52.525 21.2217 52.2412 20.1487 51.8758C19.4826 51.6464 19.1239 50.9233 19.3536 50.26C19.5833 49.5966 20.3106 49.24 20.9778 49.4694C21.9348 49.7935 22.9192 50.0457 23.9134 50.2099C24.8934 50.3709 25.9106 50.4568 26.9595 50.4568C27.9898 50.4568 28.9884 50.3752 29.9454 50.2197C30.9429 50.0631 31.9098 49.8207 32.8428 49.5107Z" fill="black"/>
</svg>
