<svg width="105" height="105" viewBox="0 0 105 105" fill="none" xmlns="http://www.w3.org/2000/svg">
<g clipPath="url(#clip0_355_3922)">
<path d="M52.5 105C81.4949 105 105 81.4949 105 52.5C105 23.505 81.4949 0 52.5 0C23.505 0 0 23.505 0 52.5C0 81.4949 23.505 105 52.5 105Z" fill="#55DBA6"/>
<circle cx="52.5" cy="33.5" r="16.5" fill="white"/>
<path d="M44.2839 39.6473L47.9165 44.4454C48.4347 45.1168 49.1971 45.5564 50.0378 45.6687C50.8785 45.7809 51.7295 45.5567 52.4057 45.0448C53.082 44.5329 53.5288 43.7747 53.6489 42.9352C53.7691 42.0956 53.553 41.2425 53.0475 40.5614L51.1787 38.0927L57.5575 37.7103C58.1054 37.6721 58.6348 37.4958 59.0963 37.1979C59.5577 36.8999 59.9362 36.49 60.1965 36.0062C60.4568 35.5225 60.5904 34.9808 60.5849 34.4316C60.5793 33.8823 60.4348 33.3434 60.1648 32.865L55.0285 23.9684C54.7489 23.4957 54.3543 23.1015 53.8814 22.8223C53.4085 22.5431 52.8726 22.3881 52.3237 22.3718C51.7747 22.3554 51.2306 22.4781 50.7418 22.7286C50.2531 22.9791 49.8357 23.3491 49.5284 23.8043L45.5433 29.8392C45.1327 30.4587 44.9489 31.2012 45.0232 31.9407L41.9736 33.701C41.3126 34.0901 40.8116 34.7017 40.56 35.4263C40.3085 36.1509 40.3229 36.9414 40.6007 37.6564C40.8785 38.3713 41.4015 38.9642 42.0763 39.3289C42.751 39.6937 43.5335 39.8065 44.2839 39.6473ZM51.522 42.7135C51.479 42.9119 51.3803 43.094 51.2375 43.2384C51.0947 43.3827 50.9138 43.4834 50.7158 43.5286C50.5179 43.5738 50.3111 43.5616 50.1198 43.4935C49.9286 43.4254 49.7606 43.3042 49.6358 43.1441L46.2662 38.6938L48.1191 37.624L51.3283 41.8628C51.4199 41.9823 51.4847 42.1201 51.5181 42.267C51.5516 42.4138 51.5529 42.5661 51.522 42.7135ZM47.3432 31.0268L51.3277 24.9918C51.429 24.8384 51.5677 24.7134 51.7309 24.6288C51.894 24.5441 52.076 24.5025 52.2598 24.508C52.4435 24.5135 52.6227 24.5658 52.7805 24.6601C52.9383 24.7544 53.0694 24.8874 53.1613 25.0466L58.2976 33.9433C58.3895 34.1024 58.4392 34.2823 58.4419 34.466C58.4447 34.6497 58.4005 34.8311 58.3134 34.9929C58.2264 35.1547 58.0995 35.2915 57.9447 35.3905C57.7899 35.4895 57.6124 35.5472 57.429 35.5583L50.2085 35.991C50.009 36.0015 49.8105 35.9569 49.6346 35.8622C49.4587 35.7676 49.3121 35.6264 49.211 35.4541L48.2602 33.8074L47.309 32.1595C47.2084 31.9863 47.1583 31.7884 47.1644 31.5883C47.1704 31.3881 47.2324 31.1936 47.3432 31.0268ZM42.658 37.0418C42.5153 36.7941 42.4767 36.4999 42.5507 36.2238C42.6246 35.9477 42.805 35.7121 43.0523 35.5688L45.8533 33.9517L46.9317 35.8194L44.1304 37.4366C43.8827 37.579 43.5886 37.6174 43.3126 37.5434C43.0366 37.4694 42.8012 37.289 42.658 37.0418ZM59.4642 27.3386C59.6074 27.5861 59.8429 27.7666 60.119 27.8406C60.3952 27.9146 60.6894 27.8761 60.9371 27.7334L62.8044 26.6553C63.0519 26.5123 63.2325 26.2768 63.3065 26.0006C63.3804 25.7245 63.3417 25.4302 63.1987 25.1826C63.0558 24.9351 62.8204 24.7543 62.5443 24.6803C62.2682 24.6062 61.9739 24.6448 61.7263 24.7876L59.859 25.8657C59.6114 26.0087 59.4307 26.2442 59.3566 26.5204C59.2826 26.7966 59.3213 27.0909 59.4642 27.3386ZM57.0963 24.9707C57.344 25.1134 57.6381 25.152 57.9142 25.0779C58.1903 25.0039 58.4257 24.8234 58.5688 24.5759L59.6469 22.7092C59.7178 22.5866 59.7638 22.4513 59.7824 22.3109C59.8009 22.1706 59.7916 22.0279 59.755 21.8911C59.7185 21.7543 59.6553 21.6261 59.5691 21.5137C59.4829 21.4014 59.3755 21.3071 59.2529 21.2363C59.1303 21.1655 58.9949 21.1195 58.8545 21.101C58.7141 21.0825 58.5715 21.0919 58.4347 21.1286C58.298 21.1652 58.1698 21.2285 58.0574 21.3147C57.9451 21.4009 57.8509 21.5084 57.7802 21.6311L56.702 23.4978C56.6312 23.6204 56.5851 23.7558 56.5666 23.8961C56.5481 24.0365 56.5574 24.1792 56.594 24.316C56.6306 24.4528 56.6938 24.581 56.78 24.6933C56.8662 24.8057 56.9737 24.9 57.0963 24.9707ZM60.3307 30.573C60.3307 30.7146 60.3585 30.8548 60.4127 30.9856C60.4669 31.1164 60.5463 31.2353 60.6464 31.3354C60.7465 31.4355 60.8654 31.515 60.9962 31.5691C61.127 31.6233 61.2672 31.6512 61.4088 31.6511H63.5651C63.851 31.6511 64.1252 31.5375 64.3274 31.3353C64.5296 31.1332 64.6432 30.8589 64.6432 30.573C64.6432 30.2871 64.5296 30.0128 64.3274 29.8106C64.1252 29.6085 63.851 29.4949 63.5651 29.4949H61.4088C61.2672 29.4948 61.127 29.5227 60.9962 29.5769C60.8654 29.631 60.7465 29.7104 60.6464 29.8106C60.5463 29.9107 60.4669 30.0296 60.4127 30.1604C60.3585 30.2912 60.3307 30.4314 60.3307 30.573Z" fill="#55DBA6"/>
<path d="M77.2969 78.6875H75.1407V39.875C75.1394 38.7316 74.6847 37.6354 73.8762 36.8269C73.0677 36.0184 71.9715 35.5637 70.8282 35.5625H69.6003C69.9082 33.1351 69.6958 30.6701 68.9772 28.3312C68.2586 25.9924 67.0504 23.8333 65.4327 21.9975C63.8151 20.1618 61.8252 18.6915 59.5954 17.6843C57.3655 16.6771 54.9468 16.1562 52.5 16.1562C50.0533 16.1562 47.6345 16.6771 45.4047 17.6843C43.1748 18.6915 41.1849 20.1618 39.5673 21.9975C37.9497 23.8333 36.7414 25.9924 36.0229 28.3312C35.3043 30.6701 35.0919 33.1351 35.3997 35.5625H34.1719C33.0285 35.5637 31.9323 36.0184 31.1239 36.8269C30.3154 37.6354 29.8606 38.7316 29.8594 39.875V78.6875H27.7032C27.4201 78.6918 27.1501 78.8074 26.9515 79.0091C26.7529 79.2108 26.6416 79.4825 26.6416 79.7656C26.6416 80.0487 26.7529 80.3204 26.9515 80.5221C27.1501 80.7238 27.4201 80.8393 27.7032 80.8437H77.2969C77.5799 80.8393 77.8499 80.7238 78.0485 80.5221C78.2471 80.3204 78.3585 80.0487 78.3585 79.7656C78.3585 79.4825 78.2471 79.2108 78.0485 79.0091C77.8499 78.8074 77.5799 78.6918 77.2969 78.6875ZM52.5 18.3125C56.5018 18.3169 60.3383 19.9086 63.168 22.7383C65.9976 25.5679 67.5893 29.4045 67.5938 33.4062C66.7648 53.4302 38.2321 53.4243 37.4063 33.4061C37.4108 29.4044 39.0025 25.5679 41.8321 22.7382C44.6618 19.9086 48.4983 18.3169 52.5 18.3125ZM63.2813 48.5H67.5938L67.5954 51.7343H63.2813V48.5ZM50.3438 50.5065C51.7747 50.701 53.2254 50.701 54.6563 50.5065V51.7343H50.3438V50.5065ZM41.7204 51.7343H37.4063V48.5H41.7188L41.7204 51.7343ZM47.1094 78.6875V68.9843C47.1097 68.6985 47.2234 68.4244 47.4255 68.2223C47.6276 68.0202 47.9017 67.9065 48.1875 67.9062H56.8125C57.0984 67.9065 57.3724 68.0202 57.5746 68.2223C57.7767 68.4244 57.8904 68.6985 57.8907 68.9843V78.6875H47.1094ZM60.0469 78.6875V68.9843C60.046 68.1268 59.7049 67.3047 59.0985 66.6983C58.4922 66.092 57.67 65.7509 56.8125 65.75H48.1875C47.33 65.7509 46.5079 66.092 45.9015 66.6983C45.2952 67.3047 44.9541 68.1268 44.9532 68.9843V78.6875H32.0157V39.875C32.0163 39.3033 32.2437 38.7552 32.6479 38.351C33.0522 37.9467 33.6002 37.7194 34.1719 37.7187H35.8177C36.6849 41.0604 38.535 44.065 41.1286 46.3437H37.4063C36.8346 46.3444 36.2865 46.5717 35.8823 46.976C35.4781 47.3802 35.2507 47.9283 35.25 48.5V51.7343C35.2507 52.306 35.4781 52.8541 35.8823 53.2583C36.2865 53.6625 36.8346 53.8899 37.4063 53.8906H41.7188C42.2905 53.8899 42.8385 53.6625 43.2428 53.2583C43.647 52.8541 43.8744 52.306 43.875 51.7343V48.5C43.875 48.4351 43.8615 48.3739 43.8559 48.3104C45.2115 49.0987 46.669 49.6969 48.1875 50.0885V51.7343C48.1882 52.306 48.4156 52.8541 48.8198 53.2583C49.224 53.6625 49.7721 53.8899 50.3438 53.8906H54.6563C55.2279 53.8899 55.776 53.6625 56.1803 53.2583C56.5845 52.8541 56.8119 52.306 56.8125 51.7343V50.0885C58.331 49.6969 59.7885 49.0987 61.1442 48.3104C61.1385 48.3739 61.125 48.4351 61.125 48.5V51.7343C61.1257 52.306 61.3531 52.8541 61.7573 53.2583C62.1615 53.6625 62.7096 53.8899 63.2813 53.8906H67.5938C68.1655 53.8899 68.7135 53.6625 69.1178 53.2583C69.522 52.8541 69.7494 52.306 69.75 51.7343V48.5C69.7494 47.9283 69.522 47.3802 69.1178 46.976C68.7135 46.5717 68.1655 46.3444 67.5938 46.3437H63.8715C66.4651 44.065 68.3152 41.0604 69.1824 37.7187H70.8282C71.3998 37.7194 71.9479 37.9467 72.3521 38.351C72.7564 38.7552 72.9837 39.3033 72.9844 39.875V78.6875H60.0469Z" fill="#0A6259"/>
<path d="M41.7188 56.0469H37.4062C36.8346 56.0475 36.2865 56.2749 35.8823 56.6791C35.478 57.0834 35.2507 57.6315 35.25 58.2031V61.4375C35.2507 62.0092 35.478 62.5572 35.8823 62.9615C36.2865 63.3657 36.8346 63.5931 37.4062 63.5938H41.7188C42.2904 63.5931 42.8385 63.3657 43.2427 62.9615C43.647 62.5572 43.8743 62.0092 43.875 61.4375V58.2031C43.8743 57.6315 43.647 57.0834 43.2427 56.6791C42.8385 56.2749 42.2904 56.0475 41.7188 56.0469ZM37.4062 61.4375V58.2031H41.7188L41.7203 61.4375H37.4062ZM54.6562 56.0469H50.3438C49.7721 56.0475 49.224 56.2749 48.8198 56.6791C48.4155 57.0834 48.1882 57.6315 48.1875 58.2031V61.4375C48.1882 62.0092 48.4155 62.5572 48.8198 62.9615C49.224 63.3657 49.7721 63.5931 50.3438 63.5938H54.6562C55.2279 63.5931 55.776 63.3657 56.1802 62.9615C56.5845 62.5572 56.8118 62.0092 56.8125 61.4375V58.2031C56.8118 57.6315 56.5845 57.0834 56.1802 56.6791C55.776 56.2749 55.2279 56.0475 54.6562 56.0469ZM50.3438 61.4375V58.2031H54.6562L54.6578 61.4375H50.3438ZM67.5938 56.0469H63.2812C62.7096 56.0475 62.1615 56.2749 61.7573 56.6791C61.353 57.0834 61.1257 57.6315 61.125 58.2031V61.4375C61.1257 62.0092 61.353 62.5572 61.7573 62.9615C62.1615 63.3657 62.7096 63.5931 63.2812 63.5938H67.5938C68.1654 63.5931 68.7135 63.3657 69.1177 62.9615C69.522 62.5572 69.7493 62.0092 69.75 61.4375V58.2031C69.7493 57.6315 69.522 57.0834 69.1177 56.6791C68.7135 56.2749 68.1654 56.0475 67.5938 56.0469ZM63.2812 61.4375V58.2031H67.5938L67.5953 61.4375H63.2812Z" fill="#0A6259"/>
</g>
<defs>
<clipPath id="clip0_355_3922">
<rect width="105" height="105" fill="white"/>
</clipPath>
</defs>
</svg>
