<svg width="29" height="26" viewBox="0 0 29 26" fill="none" xmlns="http://www.w3.org/2000/svg">
<g clipPath="url(#clip0_495_9664)">
<path fill-rule="evenodd" clip-rule="evenodd" d="M13.1962 15.937L16.3875 18.2842L19.5783 15.937H13.1962ZM3.18656 0C4.50321 0 5.57118 1.14116 5.57118 2.54934C5.57118 3.95753 4.50321 5.09868 3.18656 5.09868C1.86936 5.09868 0.801942 3.95753 0.801942 2.54934C0.801942 1.14116 1.86936 0 3.18656 0ZM6.90751 8.80378C5.67776 8.20195 6.31777 5.95353 7.83392 7.08533L10.8678 9.35187L15.5546 9.45295C16.0563 9.45704 16.4596 9.89527 16.4558 10.4317C16.452 10.9681 16.0421 11.3993 15.5403 11.3952L10.8121 11.2935C10.7208 11.3011 10.6268 11.2935 10.5328 11.2696L6.90751 8.80378ZM25.4193 10.9482C27.0716 11.172 27.7149 8.28141 25.7516 7.8724L13.1557 7.47799C11.5663 7.30912 9.94744 3.73373 6.93647 3.88332C5.08365 3.97564 4.41084 5.90327 5.83899 7.72048C5.84118 7.46747 5.89747 7.21972 6.00132 7.0082L6.01553 6.98132C6.12757 6.76571 6.2899 6.58516 6.49704 6.46655C6.89986 6.23633 7.44696 6.24743 8.07495 6.71663L11.0039 8.90429L15.5666 9.00303C15.9163 9.00768 16.2501 9.15996 16.4952 9.42666C16.6177 9.55965 16.7145 9.7172 16.7799 9.89026C16.8454 10.0633 16.8783 10.2485 16.8767 10.4352C16.875 10.6625 16.8237 10.8769 16.7335 11.0668L18.1387 10.9856L25.4193 10.9482ZM0.383282 7.88408L7.35131 13.9159C7.47647 14.0503 7.51036 14.0538 7.6858 14.0538H28.1532C28.2385 14.0538 28.3079 13.9796 28.3079 13.889V12.3622C28.3079 12.2717 28.2352 12.1969 28.1532 12.1969H8.58762C8.56903 12.1969 8.54936 12.201 8.53132 12.208L1.92839 6.23224C1.8475 6.15862 1.7289 6.15219 1.65402 6.23224L0.383282 7.59076C0.308403 7.67081 0.300752 7.8128 0.383282 7.88408ZM21.806 22.1827C22.792 22.1827 23.5911 23.0376 23.5911 24.0916C23.5911 25.1457 22.792 26 21.806 26C20.8201 26 20.0205 25.1457 20.0205 24.0916C20.0205 23.5313 20.2462 23.0265 20.6064 22.6776L16.387 19.5703L12.4594 22.4632C12.9715 22.7986 13.3131 23.4022 13.3131 24.0916C13.3131 25.1457 12.5141 26 11.5281 26C10.5421 26 9.74249 25.1457 9.74249 24.0916C9.74249 23.2537 10.2475 22.5421 10.9498 22.2855L10.9662 22.2721L15.5141 18.9269L11.4559 15.937H6.66101C6.55389 15.937 6.4637 15.8424 6.4637 15.7267V15.0845C6.4637 14.9682 6.55279 14.8736 6.66101 14.8736H27.7438C27.852 14.8736 27.9411 14.97 27.9411 15.0845V15.7267C27.9411 15.8412 27.8509 15.937 27.7438 15.937H21.3185L17.2603 18.9269L21.6924 22.1868C21.7301 22.1845 21.7678 22.1827 21.806 22.1827ZM21.806 23.4168C22.1542 23.4168 22.4368 23.7189 22.4368 24.0916C22.4368 24.4639 22.1542 24.7659 21.806 24.7659C21.4573 24.7659 21.1748 24.4639 21.1748 24.0916C21.1748 23.7189 21.4573 23.4168 21.806 23.4168ZM11.5281 23.4168C11.8762 23.4168 12.1588 23.7189 12.1588 24.0916C12.1588 24.4639 11.8762 24.7659 11.5281 24.7659C11.1794 24.7659 10.8968 24.4639 10.8968 24.0916C10.8968 23.7189 11.1794 23.4168 11.5281 23.4168Z" fill="#646464"/>
</g>
<defs>
<clipPath id="clip0_495_9664">
<rect width="27.9836" height="26" fill="white" transform="translate(0.324219)"/>
</clipPath>
</defs>
</svg>
