<svg width="24" height="24" viewBox="0 0 24 24" fill="none" xmlns="http://www.w3.org/2000/svg">
<path d="M24.0001 11.5714C24.0001 5.18071 18.6275 0 12.0001 0C5.37271 0 0.00012207 5.18071 0.00012207 11.5714V12.4286C0.00012207 18.8193 5.37271 24 12.0001 24C18.6275 24 24.0001 18.8193 24.0001 12.4286V11.5714Z" fill="#55DBA6"/>
<path d="M11.7032 7.32031L12.2423 6.80469C12.3517 6.69531 12.4845 6.64062 12.6407 6.64062C12.797 6.64062 12.9298 6.69531 13.0392 6.80469L17.5861 11.3516C17.6954 11.4609 17.7501 11.5938 17.7501 11.75C17.7501 11.9062 17.6954 12.0391 17.5861 12.1484L13.0392 16.6953C12.9298 16.8047 12.797 16.8594 12.6407 16.8594C12.4845 16.8594 12.3517 16.8047 12.2423 16.6953L11.7032 16.1797C11.5939 16.0703 11.5392 15.9375 11.5392 15.7812C11.5548 15.625 11.6173 15.4922 11.7267 15.3828L14.5392 12.6875H7.81262C7.65637 12.6875 7.52356 12.6328 7.41418 12.5234C7.30481 12.4141 7.25012 12.2812 7.25012 12.125V11.375C7.25012 11.2188 7.30481 11.0859 7.41418 10.9766C7.52356 10.8672 7.65637 10.8125 7.81262 10.8125H14.5392L11.7267 8.11719C11.6173 8.00781 11.5548 7.875 11.5392 7.71875C11.5392 7.5625 11.5939 7.42969 11.7032 7.32031Z" fill="black"/>
</svg>
