<svg width="40" height="40" viewBox="0 0 40 40" fill="none" xmlns="http://www.w3.org/2000/svg">
<path fill-rule="evenodd" clip-rule="evenodd" d="M4.68945 8.04794C4.68945 5.83671 6.63708 4.13154 8.82894 4.42379L22.2352 6.21129C24.0516 6.45348 25.4082 8.00297 25.4082 9.83548V32.0764C25.4082 34.0957 23.7712 35.7326 21.752 35.7326H8.3457C6.32641 35.7326 4.68945 34.0957 4.68945 32.0764V8.04794ZM13.8301 13.1858C13.8301 13.8589 13.2844 14.4045 12.6113 14.4045C11.9382 14.4045 11.3926 13.8589 11.3926 13.1858C11.3926 12.5126 11.9382 11.967 12.6113 11.967C13.2844 11.967 13.8301 12.5126 13.8301 13.1858ZM12.6113 19.2795C13.2844 19.2795 13.8301 18.7339 13.8301 18.0608C13.8301 17.3876 13.2844 16.842 12.6113 16.842C11.9382 16.842 11.3926 17.3876 11.3926 18.0608C11.3926 18.7339 11.9382 19.2795 12.6113 19.2795ZM13.8301 22.9358C13.8301 23.6089 13.2844 24.1545 12.6113 24.1545C11.9382 24.1545 11.3926 23.6089 11.3926 22.9358C11.3926 22.2626 11.9382 21.717 12.6113 21.717C13.2844 21.717 13.8301 22.2626 13.8301 22.9358ZM17.4863 14.4045C18.1594 14.4045 18.7051 13.8589 18.7051 13.1858C18.7051 12.5126 18.1594 11.967 17.4863 11.967C16.8132 11.967 16.2676 12.5126 16.2676 13.1858C16.2676 13.8589 16.8132 14.4045 17.4863 14.4045ZM18.7051 18.0608C18.7051 18.7339 18.1594 19.2795 17.4863 19.2795C16.8132 19.2795 16.2676 18.7339 16.2676 18.0608C16.2676 17.3876 16.8132 16.842 17.4863 16.842C18.1594 16.842 18.7051 17.3876 18.7051 18.0608ZM17.4863 24.1545C18.1594 24.1545 18.7051 23.6089 18.7051 22.9358C18.7051 22.2626 18.1594 21.717 17.4863 21.717C16.8132 21.717 16.2676 22.2626 16.2676 22.9358C16.2676 23.6089 16.8132 24.1545 17.4863 24.1545ZM11.3926 27.8108C11.3926 27.1376 11.9382 26.592 12.6113 26.592H17.4863C18.1594 26.592 18.7051 27.1376 18.7051 27.8108C18.7051 28.4839 18.1594 29.0295 17.4863 29.0295H12.6113C11.9382 29.0295 11.3926 28.4839 11.3926 27.8108Z" fill="#0A6259"/>
<path fill-rule="evenodd" clip-rule="evenodd" d="M25.7993 35.7326C25.558 35.7326 25.4431 35.3901 25.6101 35.2159C26.2399 34.5591 26.627 33.6676 26.627 32.6858V11.5607C26.627 10.9499 27.0791 10.4335 27.6846 10.3527L31.0187 9.90817C33.2106 9.61591 35.1582 11.3211 35.1582 13.5323V32.0764C35.1582 34.0957 33.5212 35.7326 31.502 35.7326H25.7993ZM32.1113 18.0608C32.1113 18.7339 31.5657 19.2795 30.8926 19.2795C30.2195 19.2795 29.6738 18.7339 29.6738 18.0608C29.6738 17.3876 30.2195 16.842 30.8926 16.842C31.5657 16.842 32.1113 17.3876 32.1113 18.0608ZM30.8926 24.1545C31.5657 24.1545 32.1113 23.6089 32.1113 22.9358C32.1113 22.2626 31.5657 21.717 30.8926 21.717C30.2195 21.717 29.6738 22.2626 29.6738 22.9358C29.6738 23.6089 30.2195 24.1545 30.8926 24.1545ZM32.1113 27.8108C32.1113 28.4839 31.5657 29.0295 30.8926 29.0295C30.2195 29.0295 29.6738 28.4839 29.6738 27.8108C29.6738 27.1376 30.2195 26.592 30.8926 26.592C31.5657 26.592 32.1113 27.1376 32.1113 27.8108Z" fill="#0A6259"/>
</svg>
