<svg width="41" height="41" viewBox="0 0 41 41" fill="none" xmlns="http://www.w3.org/2000/svg">
<path fill-rule="evenodd" clip-rule="evenodd" d="M30.7078 2.38825C30.7078 1.07528 29.4864 0.103629 28.2069 0.398874L3.70701 6.05272C2.78064 6.2665 2.12443 7.09138 2.12443 8.0421V38.8758H1.1036C0.539811 38.8758 0.0827637 39.333 0.0827637 39.8967C0.0827637 40.4604 0.539811 40.9175 1.1036 40.9175H3.14124H3.14526H3.14929H12.3328V34.7925C12.3328 33.6649 13.2469 32.7508 14.3744 32.7508H18.4578C19.5854 32.7508 20.4994 33.6649 20.4994 34.7925V40.9175H29.6828H29.6869H29.691H30.7078V2.38825ZM9.27026 12.3342C8.70648 12.3342 8.24943 12.7912 8.24943 13.355V15.3967C8.24943 15.9605 8.70648 16.4175 9.27026 16.4175H11.3119C11.8757 16.4175 12.3328 15.9605 12.3328 15.3967V13.355C12.3328 12.7912 11.8757 12.3342 11.3119 12.3342H9.27026ZM8.24943 19.48C8.24943 18.9163 8.70648 18.4592 9.27026 18.4592H11.3119C11.8757 18.4592 12.3328 18.9163 12.3328 19.48V21.5217C12.3328 22.0854 11.8757 22.5425 11.3119 22.5425H9.27026C8.70648 22.5425 8.24943 22.0854 8.24943 21.5217V19.48ZM9.27026 24.5842C8.70648 24.5842 8.24943 25.0413 8.24943 25.605V27.6467C8.24943 28.2104 8.70648 28.6675 9.27026 28.6675H11.3119C11.8757 28.6675 12.3328 28.2104 12.3328 27.6467V25.605C12.3328 25.0413 11.8757 24.5842 11.3119 24.5842H9.27026ZM14.3744 13.355C14.3744 12.7912 14.8315 12.3342 15.3953 12.3342H17.4369C18.0006 12.3342 18.4578 12.7912 18.4578 13.355V15.3967C18.4578 15.9605 18.0006 16.4175 17.4369 16.4175H15.3953C14.8315 16.4175 14.3744 15.9605 14.3744 15.3967V13.355ZM15.3953 18.4592C14.8315 18.4592 14.3744 18.9163 14.3744 19.48V21.5217C14.3744 22.0854 14.8315 22.5425 15.3953 22.5425H17.4369C18.0006 22.5425 18.4578 22.0854 18.4578 21.5217V19.48C18.4578 18.9163 18.0006 18.4592 17.4369 18.4592H15.3953ZM14.3744 25.605C14.3744 25.0413 14.8315 24.5842 15.3953 24.5842H17.4369C18.0006 24.5842 18.4578 25.0413 18.4578 25.605V27.6467C18.4578 28.2104 18.0006 28.6675 17.4369 28.6675H15.3953C14.8315 28.6675 14.3744 28.2104 14.3744 27.6467V25.605ZM21.5203 12.3342C20.9566 12.3342 20.4994 12.7912 20.4994 13.355V15.3967C20.4994 15.9605 20.9566 16.4175 21.5203 16.4175H23.5619C24.1256 16.4175 24.5828 15.9605 24.5828 15.3967V13.355C24.5828 12.7912 24.1256 12.3342 23.5619 12.3342H21.5203ZM20.4994 19.48C20.4994 18.9163 20.9566 18.4592 21.5203 18.4592H23.5619C24.1256 18.4592 24.5828 18.9163 24.5828 19.48V21.5217C24.5828 22.0854 24.1256 22.5425 23.5619 22.5425H21.5203C20.9566 22.5425 20.4994 22.0854 20.4994 21.5217V19.48ZM21.5203 24.5842C20.9566 24.5842 20.4994 25.0413 20.4994 25.605V27.6467C20.4994 28.2104 20.9566 28.6675 21.5203 28.6675H23.5619C24.1256 28.6675 24.5828 28.2104 24.5828 27.6467V25.605C24.5828 25.0413 24.1256 24.5842 23.5619 24.5842H21.5203Z" fill="black"/>
<path d="M32.75 7.61914V40.9167H37.8513H37.8542H37.857H39.8958C40.4595 40.9167 40.9167 40.4596 40.9167 39.8959C40.9167 39.3322 40.4595 38.875 39.8958 38.875H38.875V11.9435C38.875 11.1701 38.4381 10.4632 37.7464 10.1173L32.75 7.61914Z" fill="black"/>
<path d="M18.4583 40.916H14.375V34.791H18.4583V40.916Z" fill="black"/>
</svg>
