<svg width="26" height="26" viewBox="0 0 26 26" fill="none" xmlns="http://www.w3.org/2000/svg">
<path d="M17.2677 1.00081C17.2677 0.448568 17.8136 0 18.4886 0C19.1636 0 19.7095 0.448568 19.7095 1.00081V5.38493C19.7095 5.93717 19.1636 6.38574 18.4886 6.38574C17.8136 6.38574 17.2677 5.93717 17.2677 5.38493V1.00081ZM13.9881 21.965C13.9162 21.965 13.859 21.6624 13.859 21.2879C13.859 20.9134 13.9162 20.6108 13.9881 20.6108H17.3291C17.401 20.6108 17.4582 20.9134 17.4582 21.2879C17.4582 21.6624 17.401 21.965 17.3291 21.965H13.9881ZM3.35368 14.1955C3.28174 14.1955 3.22461 13.8929 3.22461 13.5184C3.22461 13.1439 3.28174 12.8413 3.35368 12.8413H6.69466C6.7666 12.8413 6.82373 13.1439 6.82373 13.5184C6.82373 13.8929 6.7666 14.1955 6.69466 14.1955H3.35368ZM8.6709 14.1955C8.59896 14.1955 8.54183 13.8929 8.54183 13.5184C8.54183 13.1439 8.59896 12.8413 8.6709 12.8413H12.0119C12.0838 12.8413 12.141 13.1439 12.141 13.5184C12.141 13.8929 12.0838 14.1955 12.0119 14.1955H8.6709ZM13.9881 14.1955C13.9162 14.1955 13.859 13.8929 13.859 13.5184C13.859 13.1439 13.9162 12.8413 13.9881 12.8413H17.3291C17.401 12.8413 17.4582 13.1439 17.4582 13.5184C17.4582 13.8929 17.401 14.1955 17.3291 14.1955H13.9881ZM19.3075 14.1955C19.2355 14.1955 19.1784 13.8929 19.1784 13.5184C19.1784 13.1439 19.2355 12.8413 19.3075 12.8413H22.6484C22.7204 12.8413 22.7775 13.1439 22.7775 13.5184C22.7775 13.8929 22.7204 14.1955 22.6484 14.1955H19.3075ZM3.35368 18.0802C3.28174 18.0802 3.22461 17.7777 3.22461 17.4032C3.22461 17.0286 3.28174 16.7261 3.35368 16.7261H6.69466C6.7666 16.7261 6.82373 17.0286 6.82373 17.4032C6.82373 17.7777 6.7666 18.0802 6.69466 18.0802H3.35368ZM8.6709 18.0802C8.59896 18.0802 8.54183 17.7777 8.54183 17.4032C8.54183 17.0286 8.59896 16.7261 8.6709 16.7261H12.0119C12.0838 16.7261 12.141 17.0286 12.141 17.4032C12.141 17.7777 12.0838 18.0802 12.0119 18.0802H8.6709ZM13.9881 18.0802C13.9162 18.0802 13.859 17.7777 13.859 17.4032C13.859 17.0286 13.9162 16.7261 13.9881 16.7261H17.3291C17.401 16.7261 17.4582 17.0286 17.4582 17.4032C17.4582 17.7777 17.401 18.0802 17.3291 18.0802H13.9881ZM19.3075 18.0802C19.2355 18.0802 19.1784 17.7777 19.1784 17.4032C19.1784 17.0286 19.2355 16.7261 19.3075 16.7261H22.6484C22.7204 16.7261 22.7775 17.0286 22.7775 17.4032C22.7775 17.7777 22.7204 18.0802 22.6484 18.0802H19.3075ZM3.35368 21.965C3.28174 21.965 3.22461 21.6624 3.22461 21.2879C3.22461 20.9134 3.28174 20.6108 3.35368 20.6108H6.69466C6.7666 20.6108 6.82373 20.9134 6.82373 21.2879C6.82373 21.6624 6.7666 21.965 6.69466 21.965H3.35368ZM8.6709 21.965C8.59896 21.965 8.54183 21.6624 8.54183 21.2879C8.54183 20.9134 8.59896 20.6108 8.6709 20.6108H12.0119C12.0838 20.6108 12.141 20.9134 12.141 21.2879C12.141 21.6624 12.0838 21.965 12.0119 21.965H8.6709ZM6.26514 1.00081C6.26514 0.448568 6.81104 0 7.486 0C8.16097 0 8.70687 0.448568 8.70687 1.00081V5.38493C8.70687 5.93717 8.16097 6.38574 7.486 6.38574C6.81104 6.38574 6.26514 5.93717 6.26514 5.38493V1.00081ZM1.35417 9.58919H24.6437V4.54281C24.6437 4.37354 24.5739 4.21908 24.4618 4.10482C24.3496 3.99268 24.1952 3.92285 24.0238 3.92285H21.7936C21.4191 3.92285 21.1165 3.62028 21.1165 3.24577C21.1165 2.87126 21.4191 2.56869 21.7936 2.56869H24.0259C24.5697 2.56869 25.0627 2.79085 25.4202 3.14844C25.7778 3.50602 26 3.99902 26 4.54281V10.2684V24.028C26 24.5718 25.7778 25.0648 25.4202 25.4224C25.0627 25.7799 24.5697 26.0021 24.0259 26.0021H1.97412C1.43034 26.0021 0.937337 25.7799 0.579753 25.4224C0.222168 25.0627 0 24.5697 0 24.0259V10.2663V4.54281C0 3.99902 0.222168 3.50602 0.579753 3.14844C0.937337 2.79085 1.43034 2.56869 1.97412 2.56869H4.35872C4.73324 2.56869 5.03581 2.87126 5.03581 3.24577C5.03581 3.62028 4.73324 3.92285 4.35872 3.92285H1.97412C1.80485 3.92285 1.65039 3.99268 1.53613 4.10482C1.42399 4.21696 1.35417 4.37142 1.35417 4.54281V9.58919ZM24.6458 10.9455H1.35417V24.0259C1.35417 24.1952 1.42399 24.3496 1.53613 24.4639C1.64827 24.576 1.80273 24.6458 1.97412 24.6458H24.0259C24.1952 24.6458 24.3496 24.576 24.4639 24.4639C24.576 24.3517 24.6458 24.1973 24.6458 24.0259V10.9455ZM10.6704 3.92285C10.2959 3.92285 9.99333 3.62028 9.99333 3.24577C9.99333 2.87126 10.2959 2.56869 10.6704 2.56869H15.2174C15.592 2.56869 15.8945 2.87126 15.8945 3.24577C15.8945 3.62028 15.592 3.92285 15.2174 3.92285H10.6704Z" fill="#646464"/>
</svg>
