<svg width="47" height="54" viewBox="0 0 47 54" fill="none" xmlns="http://www.w3.org/2000/svg">
<path d="M40.3032 43.3996L39.9075 43.466C39.3972 41.2172 40.4957 39.7946 41.2507 37.5131C42.1777 35.0351 42.1818 31.6343 41.2655 26.1427L40.6401 22.4331C40.5956 22.1598 40.4974 21.8981 40.3514 21.6628C40.2053 21.4276 40.0142 21.2236 39.789 21.0625C39.5638 20.9014 39.309 20.7864 39.0392 20.7242C38.7694 20.6619 38.4899 20.6536 38.2169 20.6997C37.6395 20.7293 37.0778 20.8979 36.5796 21.1912C36.4072 20.7295 36.0799 20.3419 35.6536 20.0946C35.2273 19.8474 34.7284 19.7557 34.242 19.8353C33.67 19.8717 33.1144 20.0412 32.6195 20.3304C32.4481 19.8693 32.1219 19.4821 31.6965 19.235C31.2712 18.9879 30.7732 18.8962 30.2878 18.9757C29.7255 19.007 29.178 19.1679 28.6882 19.4459L28.2244 16.6812C29.7848 16.8478 31.1783 15.9105 31.2045 14.2645V2.83366C31.2038 2.19292 30.949 1.5786 30.4959 1.12552C30.0429 0.67245 29.4286 0.417632 28.7878 0.416992H17.3569C16.7162 0.417616 16.1018 0.672429 15.6488 1.12551C15.1957 1.57858 14.9409 2.19291 14.9402 2.83366V14.2645C14.9409 14.9052 15.1957 15.5196 15.6488 15.9726C16.1018 16.4257 16.7162 16.6805 17.3569 16.6812H23.0555L24.0257 26.0599C24.163 26.8373 23.9264 30.8739 23.923 31.7381C23.9222 31.7642 23.9144 31.7895 23.9004 31.8115C23.8864 31.8334 23.8666 31.8512 23.8433 31.8628C23.82 31.8744 23.794 31.8795 23.768 31.8775C23.742 31.8755 23.7171 31.8665 23.6958 31.8514L19.5622 29.2619C19.0277 28.9303 18.4165 28.7426 17.788 28.7172C17.1594 28.6918 16.5351 28.8295 15.9755 29.1169L15.3313 29.4503C15.1506 29.5471 14.9939 29.6832 14.8729 29.8487C14.7519 30.0141 14.6696 30.2047 14.632 30.4062C14.5945 30.6077 14.6027 30.8151 14.656 31.013C14.7094 31.2109 14.8065 31.3943 14.9402 31.5497L24.7734 42.7606C25.5199 43.6092 26.0111 44.6518 26.1901 45.7678L25.7923 45.8343C25.4769 45.8885 25.1956 46.0651 25.0096 46.3256C24.8237 46.5861 24.7481 46.9096 24.7993 47.2255L25.78 53.0695C25.8067 53.2274 25.8949 53.3683 26.0253 53.4612C26.1557 53.5542 26.3175 53.5918 26.4755 53.5657L42.1786 50.9315C42.3361 50.9041 42.4766 50.8158 42.5694 50.6856C42.6623 50.5554 42.7001 50.3938 42.6748 50.2359L41.6942 44.3907C41.6407 44.0751 41.4643 43.7935 41.2035 43.6077C40.9428 43.4219 40.619 43.3471 40.3032 43.3996ZM17.3569 15.4728C17.0366 15.4724 16.7295 15.345 16.5029 15.1185C16.2764 14.892 16.149 14.5848 16.1486 14.2645V2.83366C16.149 2.51332 16.2764 2.20621 16.503 1.9797C16.7295 1.75318 17.0366 1.62574 17.3569 1.62533H28.7877C29.1081 1.62576 29.4152 1.7532 29.6417 1.97971C29.8682 2.20623 29.9956 2.51332 29.9961 2.83366V14.2645C29.9957 14.5848 29.8682 14.8919 29.6417 15.1185C29.4152 15.345 29.1081 15.4724 28.7877 15.4728H28.0217C27.8369 14.5396 27.8312 13.0879 26.9033 12.5329C26.2497 12.0127 25.3496 12.13 24.5869 12.2981C24.0432 12.3917 23.5575 12.6937 23.233 13.1399C22.9085 13.5861 22.7709 14.1413 22.8494 14.6874L22.9306 15.4728H17.3569ZM25.6823 41.9641L15.8484 30.7527C15.833 30.736 15.8217 30.7159 15.8154 30.694C15.8091 30.6721 15.8079 30.6491 15.8119 30.6267C15.816 30.6043 15.8252 30.5832 15.8388 30.5649C15.8523 30.5467 15.87 30.5318 15.8902 30.5215L16.5307 30.1905C16.9035 29.9986 17.3196 29.9066 17.7386 29.9233C18.1576 29.9401 18.565 30.065 18.9213 30.2861L23.0561 32.8768C23.2584 33.0014 23.4897 33.0709 23.7271 33.0784C23.9645 33.086 24.1998 33.0313 24.4095 32.9198C24.6193 32.8083 24.7962 32.6439 24.9228 32.443C25.0494 32.242 25.1212 32.0114 25.1311 31.774C25.1353 30.7598 25.3816 26.8642 25.2267 25.9247L24.2074 16.0809C24.2095 16.0752 24.206 16.0703 24.2057 16.0647L24.0465 14.527C24.0075 14.2911 24.0636 14.0494 24.2025 13.8549C24.3414 13.6603 24.5518 13.5288 24.7876 13.4892L25.5292 13.3623C25.7645 13.3231 26.0058 13.3788 26.2002 13.5171C26.3946 13.6554 26.5263 13.8651 26.5664 14.1003L27.8013 21.4636L28.5618 25.9819C28.575 26.0602 28.6035 26.1351 28.6456 26.2023C28.6877 26.2696 28.7427 26.3279 28.8073 26.3739C28.872 26.4199 28.945 26.4528 29.0224 26.4705C29.0997 26.4883 29.1798 26.4907 29.2581 26.4775C29.3363 26.4643 29.4112 26.4359 29.4785 26.3938C29.5457 26.3516 29.604 26.2967 29.65 26.232C29.6961 26.1674 29.7289 26.0943 29.7467 26.017C29.7644 25.9396 29.7668 25.8596 29.7536 25.7813L28.9965 21.2839C28.9725 21.0543 29.0362 20.8241 29.1749 20.6395C29.3136 20.455 29.517 20.3297 29.7442 20.2889L30.4888 20.1674C30.7244 20.1294 30.9655 20.1857 31.1599 20.324C31.3544 20.4624 31.4866 20.6717 31.5279 20.9067L31.7728 22.3688L31.7769 22.3942L31.7773 22.395L32.3941 26.1011C32.4223 26.2574 32.511 26.3962 32.6408 26.4876C32.7706 26.579 32.9311 26.6156 33.0877 26.5896C33.2443 26.5635 33.3844 26.4769 33.4776 26.3484C33.5708 26.2199 33.6097 26.0599 33.5859 25.9029L32.968 22.1912C32.948 22.0743 32.9514 21.9541 32.978 21.8385C33.0046 21.723 33.0538 21.6138 33.1228 21.5174C33.1918 21.421 33.2793 21.3393 33.3801 21.2769C33.481 21.2145 33.5932 21.1727 33.7103 21.154L34.4436 21.0265C34.6797 20.9884 34.9214 21.0444 35.1167 21.1825C35.312 21.3206 35.4453 21.5299 35.488 21.7652L35.7364 23.2479L36.2337 26.2221C36.2468 26.3004 36.2752 26.3753 36.3172 26.4425C36.3593 26.5098 36.4142 26.5682 36.4788 26.6143C36.5434 26.6603 36.6164 26.6932 36.6937 26.7111C36.771 26.7289 36.8511 26.7314 36.9293 26.7183C37.0076 26.7052 37.0825 26.6768 37.1498 26.6348C37.2171 26.5928 37.2754 26.5379 37.3215 26.4733C37.3676 26.4087 37.4005 26.3357 37.4183 26.2583C37.4362 26.181 37.4386 26.101 37.4255 26.0227L36.9282 23.0485V23.0473C36.8911 22.813 36.9473 22.5735 37.0847 22.3802C37.2221 22.1868 37.4299 22.055 37.6633 22.0131L38.4168 21.8915C38.5331 21.8722 38.6521 21.876 38.7669 21.9028C38.8818 21.9295 38.9902 21.9787 39.086 22.0474C39.1818 22.1162 39.2631 22.2031 39.3252 22.3033C39.3874 22.4035 39.4291 22.515 39.4481 22.6314L40.0736 26.3424C40.9526 31.6108 40.9662 34.825 40.1184 37.0906L40.1178 37.0917C39.2633 39.5422 38.1517 41.2011 38.7154 43.6656L27.3812 45.5654C27.1647 44.2291 26.5759 42.9809 25.6823 41.9641ZM26.8714 52.2744L25.9912 47.0263L38.8735 44.8641L39.5118 44.7571L40.5024 44.5909L41.3832 49.8402L26.8714 52.2744Z" fill="black"/>
<path d="M9.97781 10.957H1.854C1.37346 10.9576 0.912751 11.1487 0.572956 11.4885C0.23316 11.8283 0.0420316 12.289 0.0415039 12.7695V20.8933C0.0420316 21.3739 0.23316 21.8346 0.572956 22.1744C0.912751 22.5142 1.37346 22.7053 1.854 22.7058H9.97781C10.4584 22.7053 10.9191 22.5142 11.2589 22.1744C11.5987 21.8346 11.7898 21.3739 11.7903 20.8933V12.7695C11.7898 12.289 11.5987 11.8283 11.2589 11.4885C10.9191 11.1487 10.4584 10.9576 9.97781 10.957ZM10.582 20.8933C10.5819 21.0535 10.5182 21.2071 10.4049 21.3204C10.2916 21.4337 10.138 21.4974 9.97781 21.4975H1.854C1.6938 21.4974 1.5402 21.4337 1.42692 21.3204C1.31364 21.2071 1.24995 21.0535 1.24984 20.8933V12.7695C1.24993 12.6093 1.31362 12.4557 1.4269 12.3424C1.54018 12.2291 1.6938 12.1655 1.854 12.1654H9.97781C10.138 12.1655 10.2916 12.2292 10.4049 12.3424C10.5182 12.4557 10.5819 12.6093 10.582 12.7695V20.8933Z" fill="black"/>
<path d="M44.7498 4.93457H36.626C36.1454 4.9351 35.6847 5.12623 35.3449 5.46602C35.0051 5.80582 34.814 6.26653 34.8135 6.74707V14.8709C34.814 15.3514 35.0051 15.8121 35.3449 16.1519C35.6847 16.4917 36.1454 16.6828 36.626 16.6834H44.7498C45.2303 16.6828 45.691 16.4917 46.0308 16.1519C46.3706 15.8121 46.5618 15.3514 46.5623 14.8709V6.74707C46.5618 6.26653 46.3706 5.80582 46.0308 5.46602C45.691 5.12623 45.2303 4.9351 44.7498 4.93457ZM45.3539 14.8709C45.3538 15.0311 45.2901 15.1847 45.1769 15.298C45.0636 15.4112 44.91 15.4749 44.7498 15.475H36.626C36.4658 15.4749 36.3122 15.4112 36.1989 15.298C36.0856 15.1847 36.0219 15.0311 36.0218 14.8709V6.74707C36.0219 6.58687 36.0856 6.43326 36.1989 6.31998C36.3122 6.20671 36.4658 6.14302 36.626 6.1429H44.7498C44.91 6.143 45.0636 6.20668 45.1769 6.31997C45.2902 6.43325 45.3539 6.58686 45.3539 6.74707V14.8709Z" fill="black"/>
<path d="M27.5399 4.83705C27.4266 4.72378 27.2729 4.66016 27.1127 4.66016C26.9525 4.66016 26.7989 4.72378 26.6856 4.83705L22.3213 9.20131L20.0863 6.96637C19.9725 6.85592 19.8197 6.79468 19.6611 6.7959C19.5024 6.79711 19.3506 6.86067 19.2385 6.97285C19.1263 7.08503 19.0627 7.23683 19.0615 7.39547C19.0603 7.55411 19.1216 7.70686 19.232 7.82072L21.8942 10.4828C22.0075 10.5961 22.1611 10.6597 22.3214 10.6597C22.4816 10.6597 22.6352 10.5961 22.7485 10.4828L27.5399 5.6914C27.6532 5.57809 27.7168 5.42443 27.7168 5.26421C27.7168 5.10399 27.6532 4.95034 27.5399 4.83705Z" fill="black"/>
<path d="M5.91557 14.7217C5.35939 14.7268 4.82775 14.9514 4.43628 15.3465C4.04482 15.7416 3.8252 16.2753 3.8252 16.8315C3.8252 17.3877 4.04482 17.9214 4.43628 18.3165C4.82775 18.7116 5.35939 18.9362 5.91557 18.9414C6.47175 18.9362 7.00339 18.7116 7.39486 18.3165C7.78633 17.9214 8.00595 17.3877 8.00595 16.8315C8.00595 16.2753 7.78633 15.7416 7.39486 15.3465C7.00339 14.9514 6.47175 14.7268 5.91557 14.7217ZM5.91557 17.733C5.67869 17.7297 5.45265 17.6332 5.28632 17.4645C5.12 17.2958 5.02676 17.0684 5.02676 16.8315C5.02676 16.5946 5.12 16.3672 5.28632 16.1985C5.45265 16.0298 5.67869 15.9334 5.91557 15.93C6.15245 15.9334 6.37849 16.0298 6.54482 16.1985C6.71114 16.3672 6.80439 16.5946 6.80439 16.8315C6.80439 17.0684 6.71114 17.2958 6.54482 17.4645C6.37849 17.6332 6.15245 17.7297 5.91557 17.733Z" fill="black"/>
<path d="M40.6882 8.69922C40.1314 8.70343 39.5988 8.92758 39.2066 9.3228C38.8143 9.71802 38.5942 10.2523 38.5942 10.8091C38.5942 11.3659 38.8143 11.9002 39.2066 12.2954C39.5988 12.6906 40.1314 12.9147 40.6882 12.919C41.245 12.9147 41.7776 12.6906 42.1698 12.2954C42.5621 11.9002 42.7822 11.3659 42.7822 10.8091C42.7822 10.2523 42.5621 9.71802 42.1698 9.3228C41.7776 8.92758 41.245 8.70343 40.6882 8.69922ZM40.6882 11.7106C40.4509 11.7079 40.2243 11.6117 40.0574 11.4429C39.8906 11.2741 39.797 11.0464 39.797 10.8091C39.797 10.5718 39.8906 10.344 40.0574 10.1753C40.2243 10.0065 40.4509 9.9103 40.6882 9.90755C40.9255 9.9103 41.1521 10.0065 41.319 10.1753C41.4858 10.344 41.5794 10.5718 41.5794 10.8091C41.5794 11.0464 41.4858 11.2741 41.319 11.4429C41.1521 11.6117 40.9255 11.7079 40.6882 11.7106Z" fill="black"/>
</svg>
