<svg width="35" height="35" viewBox="0 0 35 35" fill="none" xmlns="http://www.w3.org/2000/svg">
<rect x="0.5" y="0.5" width="34" height="34" rx="9.5" fill="white" stroke="white"/>
<path d="M22.2873 11.2867C21.5092 10.6497 20.5995 10.1932 19.6237 9.95028C18.6478 9.70736 17.6303 9.68404 16.6443 9.88199C15.3766 10.1419 14.2103 10.7607 13.2844 11.6648C12.3585 12.5688 11.712 13.72 11.4218 14.9811C11.1317 16.2422 11.2102 17.5602 11.648 18.778C12.0858 19.9957 12.8644 21.062 13.8911 21.8497C15.0633 22.7077 16.0613 23.7811 16.8318 25.0125L17.3568 25.8855C17.4235 25.9964 17.5177 26.0881 17.6304 26.1518C17.743 26.2155 17.8702 26.249 17.9996 26.249C18.129 26.249 18.2561 26.2155 18.3688 26.1518C18.4814 26.0881 18.5756 25.9964 18.6423 25.8855L19.1456 25.047C19.8165 23.8675 20.7314 22.8448 21.8291 22.047C22.6898 21.4548 23.4011 20.6707 23.9069 19.7566C24.4127 18.8424 24.6992 17.8233 24.7437 16.7795C24.7882 15.7357 24.5895 14.6958 24.1634 13.742C23.7372 12.7881 23.0952 11.9463 22.2881 11.283L22.2873 11.2867ZM17.9988 19.5C17.4055 19.5 16.8255 19.324 16.3321 18.9944C15.8388 18.6648 15.4542 18.1962 15.2272 17.648C15.0001 17.0999 14.9407 16.4967 15.0565 15.9147C15.1722 15.3328 15.4579 14.7982 15.8775 14.3787C16.2971 13.9591 16.8316 13.6734 17.4135 13.5576C17.9955 13.4419 18.5987 13.5013 19.1469 13.7284C19.695 13.9554 20.1636 14.3399 20.4932 14.8333C20.8229 15.3266 20.9988 15.9066 20.9988 16.5C20.9988 17.2956 20.6827 18.0587 20.1201 18.6213C19.5575 19.1839 18.7945 19.5 17.9988 19.5Z" fill="black"/>
</svg>
