<svg width="35" height="35" viewBox="0 0 35 35" fill="none" xmlns="http://www.w3.org/2000/svg">
<rect x="0.5" y="0.5" width="34" height="34" rx="9.5" fill="white" stroke="white"/>
<g clip-path="url(#clip0_709_8008)">
<path d="M22.2152 8.26442V8.26253C21.889 7.93465 21.4457 7.75019 20.9832 7.75H12.891C11.9299 7.75313 11.1516 8.53146 11.1484 9.49259V24.3805C11.1486 24.843 11.3331 25.2863 11.661 25.6125C11.9867 25.9399 12.4292 26.1243 12.891 26.125H20.9851C21.4469 26.1243 21.8895 25.9399 22.2152 25.6125C22.5426 25.2868 22.727 24.8442 22.7277 24.3824V9.49449C22.727 9.03269 22.5426 8.59012 22.2152 8.26442ZM16.9381 24.9424C16.6781 24.9424 16.4673 24.7316 16.4673 24.4716C16.4673 24.2116 16.6781 24.0009 16.9381 24.0009C17.1981 24.0009 17.4088 24.2116 17.4088 24.4716C17.4088 24.7316 17.1981 24.9424 16.9381 24.9424ZM21.3439 21.9868C21.3439 22.6159 20.834 23.1258 20.205 23.1258H13.6693C13.0403 23.1258 12.5304 22.6159 12.5304 21.9868V10.8916C12.5304 10.2626 13.0403 9.75265 13.6693 9.75265H20.2069C20.8359 9.75265 21.3458 10.2626 21.3458 10.8916L21.3439 21.9868Z" fill="black"/>
</g>
<defs>
<clipPath id="clip0_709_8008">
<rect width="18.375" height="18.375" fill="white" transform="translate(7.75 7.75)"/>
</clipPath>
</defs>
</svg>
