<svg width="35" height="35" viewBox="0 0 35 35" fill="none" xmlns="http://www.w3.org/2000/svg">
<rect x="0.5" y="0.5" width="34" height="34" rx="9.5" fill="white" stroke="white"/>
<path d="M16.2114 17.5286C16.4399 17.7157 16.7262 17.818 17.0216 17.818C17.3169 17.818 17.6032 17.7157 17.8318 17.5286L23.4377 12.9237C23.2006 12.636 22.9031 12.4041 22.5663 12.2444C22.2295 12.0848 21.8616 12.0013 21.4888 12H12.5543C12.1815 12.0013 11.8137 12.0848 11.4768 12.2444C11.14 12.4041 10.8425 12.636 10.6055 12.9237L16.2114 17.5286Z" fill="black"/>
<path d="M18.6404 18.5145C18.1831 18.8883 17.6106 19.0925 17.02 19.0925C16.4294 19.0925 15.8569 18.8883 15.3996 18.5145L10.0443 14.1152C10.0168 14.2593 10.002 14.4054 10 14.552V20.2956C10.0007 20.9724 10.2699 21.6213 10.7485 22.0999C11.227 22.5785 11.8759 22.8476 12.5527 22.8484H21.4873C22.1641 22.8476 22.813 22.5785 23.2915 22.0999C23.7701 21.6213 24.0393 20.9724 24.04 20.2956V14.552C24.038 14.4054 24.0232 14.2593 23.9957 14.1152L18.6404 18.5145Z" fill="black"/>
</svg>
