<svg width="15" height="15" viewBox="0 0 15 15" fill="none" xmlns="http://www.w3.org/2000/svg">
<path d="M8.82092 7.4984L14.7229 1.6058C14.8993 1.42939 14.9984 1.19013 14.9984 0.940654C14.9984 0.691177 14.8993 0.451918 14.7229 0.275511C14.5465 0.0991044 14.3072 0 14.0577 0C13.8083 0 13.569 0.0991044 13.3926 0.275511L7.5 6.17748L1.6074 0.275511C1.43099 0.0991044 1.19173 2.21497e-07 0.942253 2.23356e-07C0.692776 2.25214e-07 0.453517 0.0991044 0.27711 0.275511C0.100703 0.451918 0.001599 0.691177 0.001599 0.940654C0.001599 1.19013 0.100703 1.42939 0.27711 1.6058L6.17908 7.4984L0.27711 13.391C0.189303 13.4781 0.119609 13.5817 0.0720482 13.6959C0.0244871 13.81 0 13.9325 0 14.0561C0 14.1798 0.0244871 14.3023 0.0720482 14.4164C0.119609 14.5306 0.189303 14.6342 0.27711 14.7213C0.3642 14.8091 0.467813 14.8788 0.581973 14.9264C0.696134 14.9739 0.818582 14.9984 0.942253 14.9984C1.06592 14.9984 1.18837 14.9739 1.30253 14.9264C1.41669 14.8788 1.52031 14.8091 1.6074 14.7213L7.5 8.81932L13.3926 14.7213C13.4797 14.8091 13.5833 14.8788 13.6975 14.9264C13.8116 14.9739 13.9341 14.9984 14.0577 14.9984C14.1814 14.9984 14.3039 14.9739 14.418 14.9264C14.5322 14.8788 14.6358 14.8091 14.7229 14.7213C14.8107 14.6342 14.8804 14.5306 14.928 14.4164C14.9755 14.3023 15 14.1798 15 14.0561C15 13.9325 14.9755 13.81 14.928 13.6959C14.8804 13.5817 14.8107 13.4781 14.7229 13.391L8.82092 7.4984Z" fill="#646464"/>
</svg>
