<svg width="15" height="16" viewBox="0 0 15 16" fill="none" xmlns="http://www.w3.org/2000/svg">
<path d="M7.19567 13.3991V10.6851C7.19567 10.1452 6.99453 9.62749 6.63651 9.24577C6.27848 8.86404 5.7929 8.64958 5.28658 8.64958H2.74112C2.2348 8.64958 1.74922 8.86404 1.39119 9.24577C1.03317 9.62749 0.832031 10.1452 0.832031 10.6851V13.3991C0.832031 13.9389 1.03317 14.4567 1.39119 14.8384C1.74922 15.2201 2.2348 15.4346 2.74112 15.4346H5.28658C5.7929 15.4346 6.27848 15.2201 6.63651 14.8384C6.99453 14.4567 7.19567 13.9389 7.19567 13.3991ZM12.9229 15.4346H10.3775C9.87116 15.4346 9.38558 15.2201 9.02755 14.8384C8.66953 14.4567 8.46839 13.9389 8.46839 13.3991V10.6851C8.46839 10.1452 8.66953 9.62749 9.02755 9.24577C9.38558 8.86404 9.87116 8.64958 10.3775 8.64958H12.9229C13.4293 8.64958 13.9148 8.86404 14.2729 9.24577C14.6309 9.62749 14.832 10.1452 14.832 10.6851V13.3991C14.832 13.9389 14.6309 14.4567 14.2729 14.8384C13.9148 15.2201 13.4293 15.4346 12.9229 15.4346ZM5.28658 7.29258H2.74112C2.2348 7.29258 1.74922 7.07813 1.39119 6.6964C1.03317 6.31467 0.832031 5.79694 0.832031 5.25709V2.54309C0.832031 2.00325 1.03317 1.48551 1.39119 1.10378C1.74922 0.72205 2.2348 0.507597 2.74112 0.507597H5.28658C5.7929 0.507597 6.27848 0.72205 6.63651 1.10378C6.99453 1.48551 7.19567 2.00325 7.19567 2.54309V5.25709C7.19567 5.79694 6.99453 6.31467 6.63651 6.6964C6.27848 7.07813 5.7929 7.29258 5.28658 7.29258ZM12.9229 7.29258H10.3775C9.87116 7.29258 9.38558 7.07813 9.02755 6.6964C8.66953 6.31467 8.46839 5.79694 8.46839 5.25709V2.54309C8.46839 2.00325 8.66953 1.48551 9.02755 1.10378C9.38558 0.72205 9.87116 0.507597 10.3775 0.507597H12.9229C13.4293 0.507597 13.9148 0.72205 14.2729 1.10378C14.6309 1.48551 14.832 2.00325 14.832 2.54309V5.25709C14.832 5.79694 14.6309 6.31467 14.2729 6.6964C13.9148 7.07813 13.4293 7.29258 12.9229 7.29258Z" fill="#646464"/>
</svg>
