<svg width="13" height="16" viewBox="0 0 13 16" fill="none" xmlns="http://www.w3.org/2000/svg">
<g clipPath="url(#clip0_493_8341)">
<path d="M0.584972 1.17943H4.58843V0.807292V0.805599C4.58843 0.793229 4.58867 0.78138 4.59011 0.769271C4.59911 0.561979 4.68158 0.373828 4.80811 0.23724L4.80727 0.236328C4.93979 0.0925781 5.12382 0.00325521 5.32645 0.00117187L5.32922 0.00143229V0H5.33294H7.71988H7.7218C7.73453 0 7.74665 0.00117187 7.7589 0.00286458C7.94893 0.0138021 8.12131 0.101823 8.24675 0.238542C8.37904 0.382292 8.46115 0.581641 8.46319 0.800391L8.46283 0.803125H8.46451V0.807292V1.1793H12.415H12.4171C12.4336 1.1793 12.4492 1.18112 12.4652 1.18372C12.6071 1.19753 12.7358 1.2651 12.8294 1.36732L12.8299 1.36823L12.8305 1.36732C12.9327 1.47891 12.9969 1.63398 12.9987 1.80586L12.9984 1.81003H13.0001V1.81419V3.22422C13.0001 3.41589 12.8567 3.57122 12.68 3.57122H12.6716H0.320156C0.143452 3.57109 0 3.41576 0 3.22422V3.21602V1.81419V1.81237C0 1.79857 0.000480174 1.7849 0.00216078 1.77135V1.76862C0.0128447 1.61146 0.077068 1.46862 0.172863 1.36523L0.172022 1.36497C0.2755 1.25286 0.418952 1.1832 0.57741 1.18086L0.581251 1.18112V1.17943H0.584972ZM9.33819 6.39284H8.62453V13.6966H9.33819V6.39284ZM7.01775 6.39284H6.30373V13.6966H7.01775V6.39284ZM4.69731 6.39284H3.98353V13.6966H4.69731V6.39284ZM1.30091 4.11055H11.7909L11.8244 4.11289L11.8397 4.1138L11.8557 4.11523H11.8568L11.8764 4.11823C12.04 4.13945 12.1931 4.22096 12.3052 4.34062C12.43 4.47409 12.5099 4.65508 12.5099 4.85677C12.5099 4.86953 12.5088 4.8819 12.5076 4.89401L12.5073 4.90286L12.5057 4.92292L11.6182 15.253L11.6173 15.2586H11.6182L11.6163 15.2767L11.6101 15.3135L11.6099 15.3142L11.6097 15.3165C11.6031 15.3596 11.5953 15.4007 11.5846 15.4374L11.5837 15.4402L11.5835 15.4409L11.5824 15.4432L11.5796 15.4513L11.5792 15.454C11.565 15.5001 11.5475 15.5449 11.5273 15.5854C11.4062 15.8302 11.1817 16.0004 10.9026 16.0004H2.17639L2.14674 15.9986V15.999L2.14542 15.9986L2.14158 15.998C2.08636 15.9951 2.03486 15.9862 1.98696 15.9717C1.93714 15.9566 1.88877 15.9345 1.84327 15.9073L1.84219 15.907L1.84195 15.9073C1.62767 15.7801 1.48482 15.532 1.46141 15.2534L0.585813 4.92057L0.584492 4.9043L0.583172 4.87214L0.582692 4.85703H0.582091C0.582091 4.65482 0.6618 4.47344 0.787006 4.33997C0.904168 4.21562 1.06551 4.13177 1.23789 4.11523L1.25253 4.11471V4.1138L1.28855 4.11211L1.30103 4.11237V4.11055H1.30091ZM11.791 4.80508H1.30091V4.80417L1.28699 4.80469C1.26742 4.80755 1.24833 4.81849 1.23441 4.83359C1.22685 4.8418 1.22192 4.85078 1.22192 4.8569H1.22108L1.22192 4.87227L2.09608 15.1905H2.09584L2.09608 15.1921C2.09992 15.241 2.12033 15.282 2.14974 15.2995L2.1495 15.3L2.15958 15.3042L2.16715 15.3057H2.17639H10.903C10.9278 15.3057 10.9509 15.2853 10.9651 15.2566L10.9752 15.231L10.9817 15.2029L10.9834 15.1849H10.984L11.8704 4.87109L11.87 4.85677C11.87 4.85091 11.8651 4.84232 11.8577 4.83437C11.8433 4.81901 11.8233 4.80807 11.8035 4.80482L11.791 4.80508ZM4.90822 1.87357H0.640072V2.87695H12.3599V1.87357H8.1518H8.14424C7.96753 1.87357 7.82444 1.71836 7.82444 1.52669V0.807292V0.803125H7.82528C7.82444 0.774479 7.81256 0.746745 7.79419 0.726953C7.77774 0.708594 7.7553 0.697135 7.73165 0.694141H7.7218H7.71988H5.33294H5.32922V0.693359C5.30365 0.694271 5.27856 0.706901 5.26007 0.727083L5.25959 0.726562L5.25875 0.727083C5.24302 0.744531 5.23102 0.767839 5.22766 0.792318L5.2285 0.805599V0.807292V1.52656C5.22838 1.71823 5.08493 1.87357 4.90822 1.87357Z" fill="#CD0000"/>
</g>
<defs>
<clipPath id="clip0_493_8341">
<rect width="13" height="16" fill="white"/>
</clipPath>
</defs>
</svg>
