<svg width="70" height="54" viewBox="0 0 70 54" fill="none" xmlns="http://www.w3.org/2000/svg">
<g clipPath="url(#clip0_821_6141)">
<path d="M0.381773 15.8354L11.5756 0.629372C11.7182 0.434502 11.9056 0.275824 12.1225 0.166403C12.3394 0.0569824 12.5796 -5.07706e-05 12.8232 3.39124e-08H57.1428C57.4114 0.000906253 57.6753 0.0701736 57.9088 0.201102C58.1423 0.332031 58.3376 0.52019 58.4759 0.747379L69.5843 15.8017C69.8511 16.0817 69.9998 16.4514 70.0001 16.8357C69.9998 17.2233 69.8513 17.5966 69.5843 17.8809L36.4869 52.9066C36.3489 53.053 36.183 53.1713 35.9986 53.2545C35.8143 53.3377 35.6151 53.3843 35.4125 53.3916C35.2099 53.3989 35.0079 53.3668 34.8178 53.2971C34.6278 53.2274 34.4536 53.1214 34.3051 52.9852L34.214 52.8897L0.427346 17.8921C0.361887 17.8225 0.302792 17.7473 0.250751 17.6674C0.0752779 17.39 -0.00506217 17.0644 0.0216111 16.7385C0.0482843 16.4126 0.180555 16.1039 0.398863 15.8579L0.381773 15.8354ZM25.6633 18.3585L35.3191 46.95L44.7926 18.3585H25.6633ZM48.034 18.3585L38.9479 45.8486L64.9415 18.3585H48.034ZM31.753 45.9329L22.422 18.3585H5.12705L31.753 45.9329ZM15.7569 3.04571L23.5727 14.2227L31.9296 3.04571H15.7569ZM38.1105 3.04571L46.8206 14.2227L54.2888 3.04571H38.1105ZM57.2055 4.16959L49.7999 15.296H65.4485L57.2055 4.18645V4.16959ZM43.79 15.3128L35.0115 4.04596L26.5805 15.3128H43.79ZM20.5934 15.3128L12.7947 4.15273L4.55739 15.3128H20.5934Z" fill="white"/>
</g>
<defs>
<clipPath id="clip0_821_6141">
<rect width="70" height="53.3898" fill="white"/>
</clipPath>
</defs>
</svg>
