<svg width="37" height="28" viewBox="0 0 37 28" fill="none" xmlns="http://www.w3.org/2000/svg">
<path d="M4.37091 4H27.4362C27.8596 4 28.2427 4.18317 28.5236 4.48167L28.5257 4.48393C28.8044 4.78017 28.9789 5.18948 28.9789 5.63949V14.0133C28.9789 16.7948 27.9086 19.323 26.1828 21.157C24.457 22.9864 22.0779 24.1262 19.4605 24.1262H12.3445C9.72706 24.1262 7.34797 22.9887 5.62217 21.1547C3.8985 19.323 2.82812 16.7926 2.82812 14.0111V5.63949C2.82812 5.18948 3.00262 4.78017 3.28139 4.48393H3.28351L3.28139 4.48167C3.56015 4.18317 3.94532 4 4.37091 4ZM27.7277 13.9478C25.4188 14.2802 23.4185 15.3 21.9694 16.8649C20.5734 18.371 19.6818 20.3926 19.5073 22.7987C21.7608 22.7852 23.8101 21.7992 25.2975 20.2185C26.7956 18.6265 27.7277 16.4285 27.7277 14.0133V13.9478ZM18.2624 22.7987C18.4412 20.0218 19.4668 17.6835 21.082 15.9378C22.7631 14.1241 25.0741 12.9573 27.7277 12.6113V10.8022H23.2164C22.5546 10.8022 22.014 10.2278 22.014 9.52452V8.24459C22.014 7.5413 22.5546 6.96465 23.2185 6.96465H27.7298V5.63723C27.7298 5.5513 27.6979 5.47441 27.6447 5.41788C27.5915 5.36134 27.5191 5.32742 27.4383 5.32742H4.37091C4.29005 5.32742 4.2177 5.3636 4.1645 5.42014L4.16237 5.41788C4.10917 5.47441 4.07725 5.55356 4.07725 5.63949V6.96691H8.55879C9.22059 6.96691 9.76323 7.5413 9.76323 8.24685V9.52678C9.76323 10.2301 9.22272 10.8045 8.56092 10.8045H4.07725V12.6135C6.73085 12.9595 9.04397 14.1241 10.723 15.94C12.3402 17.6858 13.3659 20.024 13.5425 22.801H18.2624V22.7987ZM12.2955 22.7987C12.121 20.3926 11.2294 18.371 9.83345 16.8649C8.3843 15.3 6.38399 14.2802 4.07512 13.9478V14.0111C4.07512 16.4262 5.00505 18.6243 6.50528 20.2163C7.99487 21.7992 10.042 22.7829 12.2955 22.7987Z" fill="white"/>
</svg>
