<svg width="70" height="70" viewBox="0 0 70 70" fill="none" xmlns="http://www.w3.org/2000/svg">
<g opacity="0.4">
<path fill-rule="evenodd" clip-rule="evenodd" d="M4.66602 7C4.66602 5.14348 5.40351 3.36301 6.71627 2.05025C8.02902 0.737498 9.8095 0 11.666 0L49.9654 0L65.3327 15.3673V63C65.3327 64.8565 64.5952 66.637 63.2824 67.9497C61.9697 69.2625 60.1892 70 58.3327 70H11.666C9.8095 70 8.02902 69.2625 6.71627 67.9497C5.40351 66.637 4.66602 64.8565 4.66602 63V7ZM18.666 18.6527L41.9994 18.6667V23.3333L18.666 23.3193V18.6527ZM51.3327 32.6433H18.666V37.31H51.3327V32.6433ZM51.3327 46.6713L18.666 46.634V51.3007L51.3327 51.3333V46.6713Z" fill="#646464"/>
</g>
</svg>
