<svg width="26" height="24" viewBox="0 0 26 24" fill="none" xmlns="http://www.w3.org/2000/svg">
<g clipPath="url(#clip0_834_11251)">
<path fill-rule="evenodd" clip-rule="evenodd" d="M5.35742 15.6855C5.55888 15.6855 5.75209 15.7643 5.89454 15.9046C6.037 16.0448 6.11702 16.235 6.11702 16.4333C6.11702 16.6316 6.037 16.8218 5.89454 16.962C5.75209 17.1022 5.55888 17.181 5.35742 17.181H3.93132L2.05241 22.5088H23.8947L21.855 17.181H20.6764C20.475 17.181 20.2818 17.1022 20.1393 16.962C19.9969 16.8218 19.9168 16.6316 19.9168 16.4333C19.9168 16.235 19.9969 16.0448 20.1393 15.9046C20.2818 15.7643 20.475 15.6855 20.6764 15.6855H22.9404L26 24H0L2.81836 15.6855H5.35742Z" fill="#646464"/>
<path fill-rule="evenodd" clip-rule="evenodd" d="M16.728 17.4206C15.7823 18.4444 14.6938 19.3308 13.4949 20.0533C13.4205 20.1077 13.331 20.1385 13.2384 20.1415C13.1457 20.1444 13.0544 20.1195 12.9765 20.07C11.2651 19.0056 9.74555 17.6682 8.48026 16.1126C6.84256 14.0986 5.81001 11.8554 5.45877 9.69557C5.10754 7.53571 5.4355 5.39877 6.54211 3.68463C6.99218 2.98843 7.55796 2.37166 8.21577 1.86011C9.7773 0.635429 11.561 -0.0123193 13.3299 0.000177469C15.1439 0.0259809 16.8814 0.723519 18.1964 1.95384C18.7021 2.40876 19.1389 2.93271 19.4934 3.50968C20.6847 5.44043 20.9407 7.90229 20.4181 10.3975C19.8384 13.0174 18.5637 15.4393 16.7237 17.4165L16.728 17.4206ZM12.9998 3.895C13.7556 3.895 14.4944 4.11561 15.1228 4.52893C15.7512 4.94225 16.241 5.52972 16.5302 6.21705C16.8194 6.90437 16.8951 7.66069 16.7477 8.39035C16.6002 9.12002 16.2363 9.79026 15.7018 10.3163C15.1674 10.8424 14.4865 11.2006 13.7453 11.3458C13.004 11.4909 12.2357 11.4164 11.5374 11.1317C10.8392 10.847 10.2424 10.3649 9.8225 9.74631C9.40262 9.12773 9.1785 8.40047 9.1785 7.65652C9.1785 6.6589 9.5811 5.70214 10.2977 4.99672C11.0144 4.2913 11.9863 3.895 12.9998 3.895Z" fill="#646464"/>
</g>
<defs>
<clipPath id="clip0_834_11251">
<rect width="26" height="24" fill="white"/>
</clipPath>
</defs>
</svg>
