<svg width="24" height="24" viewBox="0 0 24 24" fill="none" xmlns="http://www.w3.org/2000/svg">
<path d="M3.6 19.207H8.688C8.84593 19.2079 9.00248 19.1776 9.14869 19.1179C9.29489 19.0582 9.42787 18.9702 9.54 18.859L17.844 10.543L21.252 7.20696C21.3645 7.0954 21.4537 6.96268 21.5147 6.81645C21.5756 6.67022 21.607 6.51337 21.607 6.35496C21.607 6.19654 21.5756 6.0397 21.5147 5.89347C21.4537 5.74723 21.3645 5.61451 21.252 5.50296L16.164 0.354958C16.0524 0.242484 15.9197 0.153211 15.7735 0.0922883C15.6273 0.0313659 15.4704 0 15.312 0C15.1536 0 14.9967 0.0313659 14.8505 0.0922883C14.7043 0.153211 14.5716 0.242484 14.46 0.354958L11.076 3.75096L2.748 12.067C2.63678 12.1791 2.54879 12.3121 2.48907 12.4583C2.42936 12.6045 2.39909 12.761 2.4 12.919V18.007C2.4 18.3252 2.52643 18.6304 2.75147 18.8555C2.97652 19.0805 3.28174 19.207 3.6 19.207ZM15.312 2.89896L18.708 6.29496L17.004 7.99896L13.608 4.60296L15.312 2.89896ZM4.8 13.411L11.916 6.29496L15.312 9.69096L8.196 16.807H4.8V13.411ZM22.8 21.607H1.2C0.88174 21.607 0.576515 21.7334 0.351472 21.9584C0.126428 22.1835 0 22.4887 0 22.807C0 23.1252 0.126428 23.4304 0.351472 23.6555C0.576515 23.8805 0.88174 24.007 1.2 24.007H22.8C23.1183 24.007 23.4235 23.8805 23.6485 23.6555C23.8736 23.4304 24 23.1252 24 22.807C24 22.4887 23.8736 22.1835 23.6485 21.9584C23.4235 21.7334 23.1183 21.607 22.8 21.607Z" fill="#55DBA6"/>
</svg>
