<svg width="49" height="29" viewBox="0 0 49 29" fill="none" xmlns="http://www.w3.org/2000/svg">
<path fill-rule="evenodd" clip-rule="evenodd" d="M41.5792 23.3045L41.3639 15.3925L28.2645 19.1486C27.0842 19.4059 25.9198 19.5286 24.7794 19.5326C23.5552 19.5365 22.3509 19.4059 21.1666 19.1486L8.65339 15.3529V23.3757C9.01227 27.5435 21.0589 28.8179 24.7554 28.9921C27.7182 29.1346 39.4219 27.5989 40.9612 25.2043C41.2921 24.6819 41.4995 24.0486 41.5792 23.3045ZM46.8868 9.69701V19.3663H47.1938C47.4052 19.3663 47.5766 19.5365 47.5766 19.7463V22.3467C47.5766 22.5525 47.4052 22.7266 47.1938 22.7266H46.8868V23.637C47.2776 23.7082 47.5766 24.0525 47.5766 24.4602C47.5766 24.9193 47.1938 25.2993 46.7313 25.2993H45.22C44.7574 25.2993 44.3746 24.9233 44.3746 24.4602C44.3746 24.0525 44.6736 23.7082 45.0644 23.637V22.7266H44.7574C44.55 22.7266 44.3746 22.5564 44.3746 22.3467V19.7463C44.3746 19.5365 44.546 19.3663 44.7574 19.3663H45.0644V10.263L29.1219 15.1788C26.2348 15.8596 23.3478 15.9071 20.4608 15.1788L2.86335 9.96615L1.27228 9.49516C-0.70957 8.69169 -0.215104 6.80374 1.63117 6.36836L21.5334 0.470998C23.5871 -0.110822 25.6367 -0.201855 27.6903 0.470998L47.2337 6.29712C49.3591 6.81166 49.7778 8.76293 47.3055 9.5664L46.8868 9.69701Z" fill="black"/>
</svg>
