<svg width="105" height="105" viewBox="0 0 105 105" fill="none" xmlns="http://www.w3.org/2000/svg">
<g clipPath="url(#clip0_355_3820)">
<path d="M52.5 105C81.4949 105 105 81.4949 105 52.5C105 23.505 81.4949 0 52.5 0C23.505 0 0 23.505 0 52.5C0 81.4949 23.505 105 52.5 105Z" fill="#55DBA6"/>
<path d="M77.9245 23.9607H27.4201C23.4438 23.9607 20.2202 27.1841 20.2202 31.1606V65.6697C20.2202 69.6459 23.4436 72.8696 27.4201 72.8696H30.6532L40.2071 86.5434L49.7611 72.8696H77.9245C81.9007 72.8696 85.1244 69.6461 85.1244 65.6697V31.1606C85.1244 27.1843 81.9007 23.9607 77.9245 23.9607Z" fill="#0A6259"/>
<path d="M77.9246 23.9607H52.2949V72.8694H77.9246C81.9008 72.8694 85.1244 69.6459 85.1244 65.6695V31.1606C85.1244 27.1843 81.9008 23.9607 77.9246 23.9607Z" fill="#0A6259"/>
<path d="M67.1091 61.9057C74.8145 61.9057 81.061 55.6592 81.061 47.9538C81.061 40.2484 74.8145 34.002 67.1091 34.002C59.4037 34.002 53.1572 40.2484 53.1572 47.9538C53.1572 55.6592 59.4037 61.9057 67.1091 61.9057Z" fill="white"/>
<path d="M67.1092 34.0017C67.0585 34.0017 67.0087 34.005 66.958 34.0056V61.902C67.0085 61.9026 67.0585 61.9059 67.1092 61.9059C74.8146 61.9059 81.061 55.6594 81.061 47.954C81.061 40.2486 74.8146 34.0017 67.1092 34.0017Z" fill="white"/>
<path d="M67.1092 51.1437C70.4205 51.1437 73.1048 48.4593 73.1048 45.148C73.1048 41.8367 70.4205 39.1523 67.1092 39.1523C63.7979 39.1523 61.1135 41.8367 61.1135 45.148C61.1135 48.4593 63.7979 51.1437 67.1092 51.1437Z" fill="#55DBA6"/>
<path d="M67.1092 39.1521C67.0585 39.1521 67.0085 39.1546 66.958 39.156V51.1399C67.0085 51.1412 67.0585 51.1438 67.1092 51.1438C70.4205 51.1438 73.1048 48.4594 73.1048 45.148C73.1048 41.8366 70.4205 39.1521 67.1092 39.1521Z" fill="#55DBA6"/>
<path d="M67.1092 61.9058C70.818 61.9058 74.1819 60.437 76.658 58.0528C75.1488 54.2557 71.4439 51.5698 67.1092 51.5698C62.7744 51.5698 59.0693 54.2555 57.5603 58.0528C60.0364 60.437 63.4001 61.9058 67.1092 61.9058Z" fill="#55DBA6"/>
<path d="M76.658 58.0525C75.1488 54.2555 71.4439 51.5696 67.1092 51.5696C67.0585 51.5696 67.0085 51.5718 66.958 51.5725V61.9018C67.0085 61.9024 67.0585 61.9055 67.1092 61.9055C70.818 61.9057 74.1819 60.437 76.658 58.0525Z" fill="#55DBA6"/>
<path d="M45.9521 39.458H29.1882V45.7664H45.9521V39.458Z" fill="white"/>
<path d="M45.9521 50.1409H29.1882V56.4493H45.9521V50.1409Z" fill="white"/>
</g>
<defs>
<clipPath id="clip0_355_3820">
<rect width="105" height="105" fill="white"/>
</clipPath>
</defs>
</svg>
