<svg width="21" height="20" viewBox="0 0 21 20" fill="none" xmlns="http://www.w3.org/2000/svg">
<g clipPath="url(#clip0_398_5227)">
<path d="M8.49512 10.5859H12.0224V11.7578H8.49512V10.5859Z" fill="#0A6259"/>
<path d="M16.5052 11.7579H13.1982V12.3438C13.1982 12.6676 12.9352 12.9298 12.6103 12.9298H7.90725C7.58239 12.9298 7.31937 12.6676 7.31937 12.3438V11.7579H4.01238C3.25226 11.7579 2.58002 11.275 2.33936 10.5563L0.225586 4.23486V17.0313C0.225586 18.0006 1.01678 18.7892 1.98923 18.7892H18.5283C19.5008 18.7892 20.292 18.0006 20.292 17.0313V4.23532L18.178 10.5563C17.9375 11.275 17.2653 11.7579 16.5052 11.7579Z" fill="#0A6259"/>
<path d="M12.6105 1.21094H7.90747C6.93502 1.21094 6.14383 1.99951 6.14383 2.96875V3.55469H1.2373L3.45457 10.1854C3.53495 10.4251 3.75938 10.5859 4.0126 10.5859H7.31959V10C7.31959 9.67621 7.58261 9.41406 7.90747 9.41406H12.6105C12.9354 9.41406 13.1984 9.67621 13.1984 10V10.5859H16.5054C16.7586 10.5859 16.9831 10.4251 17.0634 10.1854L19.2809 3.55469H14.3742V2.96875C14.3742 1.99951 13.583 1.21094 12.6105 1.21094ZM7.31959 3.55469V2.96875C7.31959 2.64542 7.58307 2.38281 7.90747 2.38281H12.6105C12.9349 2.38281 13.1984 2.64542 13.1984 2.96875V3.55469H7.31959Z" fill="#0A6259"/>
</g>
<defs>
<clipPath id="clip0_398_5227">
<rect width="20.0664" height="20" fill="white" transform="translate(0.225586)"/>
</clipPath>
</defs>
</svg>
