<svg width="105" height="106" viewBox="0 0 105 106" fill="none" xmlns="http://www.w3.org/2000/svg">
<path d="M52.367 105.182C81.2885 105.182 104.734 81.7362 104.734 52.8147C104.734 23.8933 81.2885 0.447754 52.367 0.447754C23.4455 0.447754 0 23.8933 0 52.8147C0 81.7362 23.4455 105.182 52.367 105.182Z" fill="#55DBA6"/>
<path d="M52.3669 65.8157L45.4645 66.8374L44.2558 88.1087C43.9909 92.7691 47.6989 96.6938 52.3669 96.6938C52.504 96.6938 52.64 96.6897 52.7755 96.6832V65.8762L52.3669 65.8157Z" fill="#0A6259"/>
<path d="M60.4781 88.1087L59.2694 66.8374L52.3669 65.8157V65.8752V96.6932C57.0233 96.6793 60.7424 92.7609 60.4781 88.1087Z" fill="#0A6259"/>
<path d="M46.0128 57.1924L45.4646 66.8377H52.7755V57.1924H46.0128Z" fill="#0A6259"/>
<path d="M58.7211 57.1924H52.3669V66.8377H59.2694L58.7211 57.1924Z" fill="#0A6259"/>
<path d="M52.3668 58.2539C65.3078 58.2539 75.7986 47.7632 75.7986 34.8222C75.7986 21.8811 65.3078 11.3904 52.3668 11.3904C39.4258 11.3904 28.9351 21.8811 28.9351 34.8222C28.9351 47.7632 39.4258 58.2539 52.3668 58.2539Z" fill="white"/>
<path d="M75.7987 34.8222C75.7987 21.8894 65.2967 11.4041 52.3669 11.3906V58.2536C65.2967 58.2403 75.7987 47.755 75.7987 34.8222Z" fill="white"/>
<path d="M37.2295 55.6783H52.06L53.6212 48.2455L52.06 40.8122C43.8694 40.8122 37.2295 47.4681 37.2295 55.6783Z" fill="#55DBA6"/>
<path d="M52.06 40.8122V55.6783H66.8905C66.8905 47.4681 60.2506 40.8122 52.06 40.8122Z" fill="#55DBA6"/>
<path d="M43.8643 29.5278C43.8643 34.0651 47.5336 37.7431 52.06 37.7431L53.6212 29.5278L52.06 21.3125C47.5336 21.3125 43.8643 24.9905 43.8643 29.5278Z" fill="#55DBA6"/>
<path d="M52.06 21.3125V37.7431C56.5864 37.7431 60.2556 34.0651 60.2556 29.5278C60.2556 24.9905 56.5864 21.3125 52.06 21.3125Z" fill="#55DBA6"/>
<path d="M52.3669 61.3223C37.7546 61.3223 25.8667 49.4344 25.8667 34.8222C25.8667 20.2099 37.7546 8.32202 52.3669 8.32202C66.9791 8.32202 78.867 20.2099 78.867 34.8222C78.867 49.4344 66.9791 61.3223 52.3669 61.3223ZM52.3669 14.4588C41.1384 14.4588 32.0035 23.5938 32.0035 34.8222C32.0035 46.0506 41.1384 55.1856 52.3669 55.1856C63.5953 55.1856 72.7303 46.0506 72.7303 34.8222C72.7303 23.5938 63.5953 14.4588 52.3669 14.4588Z" fill="#0A6259"/>
<path d="M78.8671 34.8223C78.8671 20.2182 66.9677 8.33581 52.3669 8.32251V14.4593C63.5839 14.4726 72.7303 23.6022 72.7303 34.8223C72.7303 46.0425 63.5839 55.1719 52.3669 55.1854V61.3222C66.9677 61.3087 78.8671 49.4263 78.8671 34.8223Z" fill="#0A6259"/>
</svg>
