<svg width="26" height="26" viewBox="0 0 26 26" fill="none" xmlns="http://www.w3.org/2000/svg">
<g clipPath="url(#clip0_827_9966)">
<path d="M13 0C16.5901 0 19.8399 1.45466 22.1921 3.80795C24.5442 6.16014 26 9.41096 26 13C26 16.589 24.5453 19.8399 22.1921 22.1921C19.8399 24.5442 16.589 26 13 26C9.40987 26 6.16014 24.5453 3.80795 22.1921C1.45466 19.8399 0 16.589 0 13C0 9.41096 1.45466 6.16014 3.80795 3.80795C6.16014 1.45466 9.40987 0 13 0ZM11.9372 6.58921C11.9372 6.19626 12.2557 5.87775 12.6486 5.87775C13.0416 5.87775 13.3601 6.19626 13.3601 6.58921V13.1565L18.3009 16.0855C18.638 16.2848 18.7508 16.7204 18.5516 17.0586C18.3524 17.3957 17.9167 17.5085 17.5785 17.3093L12.3258 14.1953C12.0948 14.077 11.9372 13.8373 11.9372 13.5615V6.58921ZM21.1862 4.81384C19.0912 2.71887 16.1972 1.42292 13 1.42292C9.80281 1.42292 6.90882 2.71887 4.81384 4.81384C2.71887 6.90882 1.42292 9.80281 1.42292 13C1.42292 16.1972 2.71887 19.0912 4.81384 21.1862C6.90882 23.2811 9.80281 24.5771 13 24.5771C16.1972 24.5771 19.0912 23.2811 21.1862 21.1862C23.2811 19.0912 24.5771 16.1972 24.5771 13C24.5771 9.80281 23.2811 6.90882 21.1862 4.81384Z" fill="#646464"/>
</g>
<defs>
<clipPath id="clip0_827_9966">
<rect width="26" height="26" fill="white"/>
</clipPath>
</defs>
</svg>
