<svg width="50" height="50" viewBox="0 0 50 50" fill="none" xmlns="http://www.w3.org/2000/svg">
<circle cx="25" cy="25" r="25" fill="#0A6259"/>
<path d="M34.9955 22.1283C34.9955 22.1261 34.9957 22.1239 34.9957 22.1218C34.9957 19.4923 32.8642 17.3608 30.2348 17.3608C27.6054 17.3608 25.4739 19.4923 25.4739 22.1218C25.4739 24.7512 27.6056 26.8827 30.2348 26.8827C30.7752 26.8827 31.2925 26.7885 31.7765 26.6225C30.7054 32.7673 25.9136 36.73 30.3555 33.4686C35.281 29.852 35.001 22.267 34.9955 22.1283Z" fill="white"/>
<path d="M19.7609 26.8827C20.3013 26.8827 20.8186 26.7885 21.3028 26.6225C20.2314 32.7672 15.4397 36.73 19.8816 33.4685C24.8071 29.852 24.5271 22.267 24.5216 22.1283C24.5216 22.1261 24.5218 22.1239 24.5218 22.1218C24.5218 19.4923 22.3903 17.3608 19.7609 17.3608C17.1315 17.3608 15 19.4923 15 22.1218C15 24.7512 17.1317 26.8827 19.7609 26.8827Z" fill="white"/>
</svg>
