<svg width="33" height="28" viewBox="0 0 33 28" fill="none" xmlns="http://www.w3.org/2000/svg">
<path d="M16.1214 9.15477C15.1184 9.15422 14.152 9.5341 13.4147 10.2187C13.2661 10.0921 13.0782 10.0217 12.8835 10.0196C12.2816 10.0247 11.6845 9.91067 11.1262 9.68391C11.9177 8.6449 12.4032 7.40285 12.5275 6.09939H12.9005C13.1253 6.09939 13.3409 6.00947 13.4998 5.84941C13.6588 5.68936 13.7481 5.47228 13.7481 5.24593C13.7481 5.01958 13.6588 4.8025 13.4998 4.64244C13.3409 4.48239 13.1253 4.39247 12.9005 4.39247H10.4764V3.06676C10.4764 2.84041 10.387 2.62333 10.2281 2.46328C10.0691 2.30322 9.85355 2.2133 9.62875 2.2133C9.40395 2.2133 9.18836 2.30322 9.02941 2.46328C8.87045 2.62333 8.78115 2.84041 8.78115 3.06676V4.39816H6.37396C6.14917 4.39816 5.93358 4.48808 5.77462 4.64813C5.61566 4.80819 5.52636 5.02527 5.52636 5.25162C5.52636 5.47797 5.61566 5.69505 5.77462 5.8551C5.93358 6.01516 6.14917 6.10508 6.37396 6.10508H10.8041C10.6893 7.053 10.3135 7.9497 9.71916 8.6939C9.28843 8.20469 8.95125 7.63949 8.72464 7.02681C8.69379 6.91369 8.64012 6.80819 8.56696 6.71689C8.49381 6.62559 8.40275 6.55046 8.29947 6.49619C8.19618 6.44191 8.0829 6.40966 7.96668 6.40144C7.85047 6.39322 7.73382 6.40921 7.62401 6.44842C7.51421 6.48762 7.41361 6.5492 7.3285 6.62931C7.24339 6.70941 7.1756 6.80632 7.12935 6.91399C7.0831 7.02166 7.05939 7.13777 7.0597 7.25508C7.06001 7.37238 7.08433 7.48837 7.13115 7.59578C7.4089 8.34757 7.81212 9.04608 8.32345 9.66116C7.70634 9.89636 7.05069 10.0122 6.39092 10.0025C6.16612 10.0025 5.95053 10.0925 5.79157 10.2525C5.63262 10.4126 5.54332 10.6296 5.54332 10.856C5.54332 11.0823 5.63262 11.2994 5.79157 11.4595C5.95053 11.6195 6.16612 11.7095 6.39092 11.7095C7.55322 11.7485 8.70403 11.4672 9.71916 10.8958C10.5275 11.3831 11.4402 11.668 12.3806 11.7265C12.1898 12.202 12.0919 12.7101 12.0924 13.2229V13.8602H6.19879C6.07658 13.8598 5.95574 13.8861 5.84455 13.9371C5.73337 13.9882 5.63446 14.0629 5.55462 14.156C5.47404 14.2494 5.41502 14.3595 5.3818 14.4785C5.34858 14.5976 5.34198 14.7226 5.36249 14.8445C5.36249 14.9014 5.46986 15.5443 5.66198 16.449C5.68372 16.5612 5.6714 16.6774 5.62662 16.7824C5.58184 16.8874 5.50668 16.9764 5.41094 17.0379C5.31519 17.0993 5.2033 17.1302 5.08984 17.1267C4.97637 17.1231 4.8666 17.0852 4.77482 17.018C2.99486 15.7093 1.09624 14.1162 0.502917 12.9953C0.477976 12.9496 0.449642 12.9059 0.418156 12.8645C0.144929 12.473 -0.0011488 12.0059 6.80381e-06 11.5274V2.34986C6.80381e-06 1.72664 0.245881 1.12894 0.68354 0.688257C1.1212 0.247574 1.71479 0 2.33373 0H16.8786C17.4975 0 18.0911 0.247574 18.5288 0.688257C18.9664 1.12894 19.2123 1.72664 19.2123 2.34986V9.17753L16.1214 9.15477ZM32.9999 13.2115V22.3663C33.0037 22.8452 32.8574 23.3131 32.5818 23.7034C32.5469 23.7506 32.5184 23.8023 32.497 23.857C31.9319 24.995 30.0051 26.571 28.2251 27.891C28.1333 27.9583 28.0236 27.9962 27.9101 27.9997C27.7966 28.0033 27.6847 27.9723 27.589 27.9109C27.4932 27.8495 27.4181 27.7605 27.3733 27.6555C27.3285 27.5504 27.3162 27.4342 27.338 27.3221C27.5301 26.4117 27.6318 25.7688 27.6374 25.7119C27.6572 25.5901 27.6503 25.4655 27.6173 25.3468C27.5842 25.228 27.5259 25.1179 27.4463 25.0242C27.3666 24.9305 27.2677 24.8554 27.1562 24.8041C27.0448 24.7529 26.9236 24.7268 26.8011 24.7275H16.1214C15.8139 24.7276 15.5096 24.6664 15.2257 24.5476C14.9418 24.4288 14.684 24.2547 14.4672 24.0353C14.2503 23.8159 14.0786 23.5555 13.962 23.2691C13.8454 22.9826 13.7862 22.6759 13.7876 22.3663V13.2115C13.7876 12.5883 14.0335 11.9906 14.4712 11.5499C14.9088 11.1093 15.5024 10.8617 16.1214 10.8617H30.6662C31.2851 10.8617 31.8787 11.1093 32.3164 11.5499C32.7541 11.9906 32.9999 12.5883 32.9999 13.2115ZM27.1119 21.1772L26.1344 18.7249L24.2018 13.8545C24.1891 13.8212 24.174 13.7889 24.1566 13.7578L24.1227 13.7009L24.0719 13.6326L24.021 13.5757L23.9645 13.5245L23.891 13.4676L23.8458 13.4334L23.7554 13.3822C23.7367 13.3797 23.7177 13.3797 23.6989 13.3822L23.6085 13.3538H23.2808L23.1847 13.3822C23.166 13.3797 23.147 13.3797 23.1282 13.3822L23.0434 13.4334L22.9813 13.4619L22.9135 13.5188L22.857 13.57L22.8061 13.6269L22.7496 13.6952C22.7496 13.6952 22.7496 13.735 22.7214 13.7521L22.6705 13.8488L20.6928 18.7249L19.7152 21.1828C19.6703 21.2887 19.647 21.4026 19.6466 21.5177C19.6463 21.6329 19.6689 21.7469 19.7132 21.853C19.7574 21.9592 19.8225 22.0553 19.9044 22.1357C19.9862 22.216 20.0833 22.279 20.1899 22.3208C20.2906 22.3612 20.3979 22.3824 20.5063 22.3834C20.679 22.3798 20.8466 22.3234 20.9869 22.2218C21.1271 22.1202 21.2334 21.9782 21.2917 21.8144L22.0489 19.9084H24.7838L25.541 21.8144C25.598 21.9791 25.7039 22.122 25.8445 22.2239C25.985 22.3257 26.1533 22.3814 26.3265 22.3834C26.433 22.3819 26.5384 22.3606 26.6373 22.3208C26.7443 22.2796 26.8419 22.217 26.9242 22.1368C27.0066 22.0566 27.0719 21.9604 27.1163 21.854C27.1606 21.7477 27.1831 21.6333 27.1824 21.518C27.1816 21.4026 27.1577 21.2886 27.1119 21.1828V21.1772ZM22.7157 18.2014H24.0945L23.4051 16.4945L22.7157 18.2014Z" fill="#0A6259"/>
</svg>
