<svg width="16" height="17" viewBox="0 0 16 17" fill="none" xmlns="http://www.w3.org/2000/svg">
<path d="M16.0001 8.30706C16.0001 4.04658 12.4184 0.592773 8.00012 0.592773C3.58184 0.592773 0.00012207 4.04658 0.00012207 8.30706V8.87849C0.00012207 13.139 3.58184 16.5928 8.00012 16.5928C12.4184 16.5928 16.0001 13.139 16.0001 8.87849V8.30706Z" fill="#55DBA6"/>
<path d="M6.96106 4.40137L7.39075 3.97168C7.58606 3.7959 7.87903 3.7959 8.05481 3.97168L11.8634 7.76074C12.0392 7.95605 12.0392 8.24902 11.8634 8.4248L8.05481 12.2334C7.87903 12.4092 7.58606 12.4092 7.39075 12.2334L6.96106 11.8037C6.78528 11.6084 6.78528 11.3154 6.96106 11.1201L9.32434 8.87402H3.71887C3.44543 8.87402 3.25012 8.67871 3.25012 8.40527V7.78027C3.25012 7.52637 3.44543 7.31152 3.71887 7.31152H9.32434L6.96106 5.08496C6.78528 4.88965 6.76575 4.59668 6.96106 4.40137Z" fill="white"/>
</svg>
