<svg width="16" height="17" viewBox="0 0 16 17" fill="none" xmlns="http://www.w3.org/2000/svg">
<path d="M16.0001 8.30706C16.0001 4.04658 12.4184 0.592773 8.00012 0.592773C3.58184 0.592773 0.00012207 4.04658 0.00012207 8.30706V8.87849C0.00012207 13.139 3.58184 16.5928 8.00012 16.5928C12.4184 16.5928 16.0001 13.139 16.0001 8.87849V8.30706Z" fill="black"/>
<path d="M6.96106 4.40137L7.41028 3.97168C7.50142 3.88053 7.6121 3.83496 7.74231 3.83496C7.87252 3.83496 7.98319 3.88053 8.07434 3.97168L11.8634 7.76074C11.9545 7.85189 12.0001 7.96257 12.0001 8.09277C12.0001 8.22298 11.9545 8.33366 11.8634 8.4248L8.07434 12.2139C7.98319 12.305 7.87252 12.3506 7.74231 12.3506C7.6121 12.3506 7.50142 12.305 7.41028 12.2139L6.96106 11.7842C6.86991 11.693 6.82434 11.5824 6.82434 11.4521C6.83736 11.3219 6.88944 11.2113 6.98059 11.1201L9.32434 8.87402H3.71887C3.58866 8.87402 3.47799 8.82845 3.38684 8.7373C3.29569 8.64616 3.25012 8.53548 3.25012 8.40527V7.78027C3.25012 7.65007 3.29569 7.53939 3.38684 7.44824C3.47799 7.3571 3.58866 7.31152 3.71887 7.31152H9.32434L6.98059 5.06543C6.88944 4.97428 6.83736 4.86361 6.82434 4.7334C6.82434 4.60319 6.86991 4.49251 6.96106 4.40137Z" fill="white"/>
</svg>
