<svg width="28" height="26" viewBox="0 0 28 26" fill="none" xmlns="http://www.w3.org/2000/svg">
<g clipPath="url(#clip0_487_6537)">
<path fill-rule="evenodd" clip-rule="evenodd" d="M17.958 18.3093C16.9668 19.3643 15.8115 20.311 14.5127 21.0763C14.3532 21.1891 14.1367 21.2046 13.959 21.094C12.0426 19.9107 10.4316 18.4885 9.16699 16.9446C7.42155 14.819 6.32096 12.4612 5.94499 10.1919C5.56217 7.8894 5.91992 5.67537 7.10026 3.87494C7.5651 3.16273 8.15983 2.51467 8.88444 1.95508C10.5501 0.665584 12.4528 -0.0134463 14.3464 -0.000175342C16.1715 0.0130956 17.9717 0.674431 19.528 2.0524C20.0749 2.53458 20.5352 3.08753 20.9111 3.68694C22.1803 5.71518 22.4538 8.30301 21.8955 10.9262C21.3464 13.5163 19.9792 16.1506 17.958 18.3027V18.3093ZM5.76953 16.4868C6.2207 16.4868 6.58756 16.8429 6.58756 17.2808C6.58756 17.7188 6.2207 18.0749 5.76953 18.0749H4.23372L2.21029 24.4162H25.7305L23.5339 18.0749H22.2646C21.8135 18.0749 21.4466 17.7188 21.4466 17.2808C21.4466 16.8429 21.8135 16.4868 22.2646 16.4868H24.7028L27.9977 25.9998H0L3.03516 16.4868H5.76953ZM13.9863 4.09391C16.2376 4.09391 18.0605 5.86558 18.0605 8.04644C18.0605 10.2317 16.2354 12.0012 13.9863 12.0012C11.735 12.0012 9.91439 10.2317 9.91439 8.04644C9.90983 5.86337 11.735 4.09391 13.9863 4.09391Z" fill="#646464"/>
</g>
<defs>
<clipPath id="clip0_487_6537">
<rect width="28" height="26" fill="white"/>
</clipPath>
</defs>
</svg>
