<svg width="52" height="52" viewBox="0 0 52 52" fill="none" xmlns="http://www.w3.org/2000/svg">
<path d="M10.5627 49.5626C10.5627 50.0113 10.9261 50.3751 11.3752 50.3751H31.6877C32.1368 50.3751 32.5002 50.0113 32.5002 49.5626V46.3126H42.2502C42.6993 46.3126 43.0627 45.9488 43.0627 45.5001V35.7501H47.9377C48.1829 35.7501 48.4154 35.6394 48.5693 35.4486C48.7241 35.2577 48.7836 35.0074 48.732 34.7674L46.3127 23.4757C46.2881 17.2752 43.6261 11.3517 39.001 7.21182C34.2903 2.99499 28.2037 1.06094 21.8671 1.76473C11.6918 2.89501 3.56762 11.1156 2.55041 21.3115C2.01958 26.6289 3.41369 31.932 6.47723 36.2436C9.15038 40.0054 10.5627 44.611 10.5627 49.5626ZM4.16748 21.473C5.10931 12.0352 12.6281 4.42599 22.0464 3.37942C27.922 2.72958 33.5555 4.51843 37.9172 8.42263C42.2201 12.2741 44.6877 17.7922 44.6877 23.5626C44.6877 23.6197 44.6941 23.6768 44.706 23.7328L46.9324 34.1251H42.2502C41.8011 34.1251 41.4377 34.4889 41.4377 34.9376V44.6876H31.6877H28.4377V46.3126H30.8752V48.7501H12.1758C12.0283 43.7676 10.5239 39.1334 7.8023 35.3026C4.96648 31.3111 3.67553 26.3996 4.16748 21.473Z" fill="black"/>
<path d="M29.1096 24.9632L28.5057 23.5203C28.6359 23.2529 28.7509 22.9748 28.8493 22.6883L30.299 22.0937C30.5695 21.9826 30.7592 21.7342 30.7964 21.4442C30.8504 21.0205 30.875 20.6611 30.875 20.3123C30.875 19.9636 30.8504 19.6042 30.7964 19.1805C30.7592 18.8905 30.5695 18.6421 30.299 18.531L28.8493 17.9363C28.7509 17.6503 28.6367 17.3722 28.5065 17.1044L29.1096 15.6615C29.2222 15.3913 29.181 15.0819 29.0017 14.8506C28.5375 14.2507 27.9987 13.7116 27.3997 13.2478C27.168 13.0677 26.8569 13.028 26.5887 13.1403L25.1454 13.7437C24.8773 13.6136 24.5995 13.4989 24.3139 13.4009L23.7188 11.9513C23.6077 11.6803 23.3602 11.4903 23.0698 11.4534C22.2223 11.3463 21.6526 11.3463 20.8052 11.4534C20.5148 11.4903 20.2673 11.6803 20.1562 11.9513L19.5611 13.4009C19.2754 13.4989 18.9977 13.6136 18.7295 13.7437L17.2862 13.1403C17.0173 13.028 16.7062 13.0677 16.4753 13.2478C15.8763 13.712 15.3375 14.2507 14.8733 14.8498C14.694 15.0811 14.6528 15.3909 14.7654 15.6611L15.3693 17.104C15.2391 17.3718 15.1241 17.6499 15.0257 17.9363L13.576 18.531C13.3055 18.6421 13.1158 18.8905 13.0785 19.1805C13.0246 19.6042 13 19.9636 13 20.3123C13 20.6611 13.0246 21.0205 13.0786 21.4442C13.1158 21.7342 13.3055 21.9826 13.576 22.0937L15.0257 22.6884C15.1241 22.9744 15.2383 23.2525 15.3685 23.5203L14.7654 24.9632C14.6528 25.2334 14.694 25.5428 14.8733 25.7741C15.3375 26.374 15.8763 26.9131 16.4753 27.3769C16.7062 27.5566 17.0173 27.5963 17.2863 27.4844L18.7296 26.881C18.9977 27.0111 19.2755 27.1258 19.5611 27.2238L20.1562 28.6734C20.2673 28.9444 20.5148 29.1344 20.8052 29.1713C21.2289 29.2248 21.5884 29.2498 21.9375 29.2498C22.2866 29.2498 22.6461 29.2248 23.0698 29.1713C23.3602 29.1344 23.6077 28.9444 23.7188 28.6734L24.3139 27.2238C24.6003 27.1258 24.8781 27.0111 25.1454 26.881L26.5887 27.4844C26.8569 27.5963 27.168 27.5566 27.3997 27.3769C27.9987 26.9131 28.5375 26.374 29.0017 25.7741C29.181 25.5428 29.2222 25.233 29.1096 24.9632ZM27.8789 21.3296C27.648 21.4244 27.4735 21.62 27.406 21.86C27.2822 22.2948 27.1124 22.707 26.9006 23.0843C26.7784 23.3025 26.7633 23.5651 26.8593 23.7956L27.4211 25.1378C27.2156 25.371 26.9958 25.5908 26.7633 25.7959L25.4208 25.2346C25.1899 25.1386 24.928 25.1532 24.7098 25.2758C24.3322 25.4877 23.9204 25.6575 23.4855 25.7808C23.2451 25.8487 23.0499 26.0232 22.9555 26.2541L22.4001 27.607C22.0748 27.6308 21.8002 27.6308 21.4749 27.607L20.9195 26.2541C20.8251 26.0232 20.6299 25.8487 20.3895 25.7808C19.9563 25.6579 19.5445 25.4877 19.1644 25.2754C18.9454 25.154 18.6851 25.1385 18.4542 25.2346L17.1117 25.7959C16.8792 25.5908 16.6595 25.3706 16.4539 25.1378L17.0149 23.7956C17.1109 23.5651 17.0959 23.3033 16.9745 23.0855C16.7618 22.7066 16.592 22.2944 16.469 21.86C16.4016 21.62 16.227 21.4244 15.9961 21.3296L14.6433 20.7745C14.6306 20.6119 14.625 20.4599 14.625 20.3123C14.625 20.1648 14.6306 20.0128 14.6432 19.8502L15.9961 19.2951C16.227 19.2003 16.4015 19.0047 16.469 18.7647C16.5928 18.3299 16.7626 17.9177 16.9744 17.5404C17.0966 17.3222 17.1117 17.06 17.0157 16.8291L16.4539 15.4865C16.6594 15.2537 16.8792 15.0339 17.1117 14.8288L18.4542 15.3901C18.6851 15.4861 18.9454 15.4707 19.1644 15.3493C19.5444 15.137 19.9562 14.9668 20.3895 14.8438C20.6299 14.776 20.8251 14.6014 20.9195 14.3705L21.4749 13.0177C21.8002 12.9939 22.0747 12.9939 22.4001 13.0177L22.9555 14.3705C23.0499 14.6014 23.2451 14.776 23.4855 14.8438C23.9187 14.9668 24.3305 15.137 24.7106 15.3493C24.928 15.4707 25.1898 15.4861 25.4207 15.3901L26.7633 14.8288C26.9958 15.0339 27.2155 15.254 27.421 15.4869L26.8601 16.8291C26.7641 17.0596 26.7791 17.3214 26.9005 17.5392C27.1132 17.9181 27.283 18.3303 27.406 18.7647C27.4734 19.0047 27.648 19.2003 27.8789 19.2951L29.2317 19.8502C29.2444 20.0128 29.25 20.1648 29.25 20.3123C29.25 20.4599 29.2444 20.6119 29.2318 20.7745L27.8789 21.3296Z" fill="black"/>
<path d="M21.9375 16.25C19.6976 16.25 17.875 18.0726 17.875 20.3125C17.875 22.5524 19.6976 24.375 21.9375 24.375C24.1774 24.375 26 22.5524 26 20.3125C26 18.0726 24.1774 16.25 21.9375 16.25ZM21.9375 22.75C20.5934 22.75 19.5 21.6566 19.5 20.3125C19.5 18.9684 20.5934 17.875 21.9375 17.875C23.2816 17.875 24.375 18.9684 24.375 20.3125C24.375 21.6566 23.2816 22.75 21.9375 22.75Z" fill="black"/>
<path d="M28.6802 29.4755L29.645 30.7831C30.575 30.0976 31.4105 29.2906 32.1293 28.3841L30.8566 27.374C30.2266 28.1683 29.4943 28.8752 28.6802 29.4755Z" fill="black"/>
<path d="M10.3602 26.2299L11.8059 25.4889C11.4559 24.8049 11.1751 24.0844 10.9711 23.3465C10.6998 22.3642 10.5625 21.3434 10.5625 20.3127C10.5625 14.0405 15.6652 8.93774 21.9375 8.93774H28.1011L27.0505 9.98828L28.1995 11.1372L30.637 8.69971C30.9543 8.38233 30.9543 7.86816 30.637 7.55078L28.1995 5.11328L27.0505 6.2622L28.1011 7.31274H21.9375C14.7694 7.31274 8.9375 13.1446 8.9375 20.3127C8.9375 21.4894 9.09461 22.6558 9.40485 23.779C9.63812 24.6232 9.95947 25.4476 10.3602 26.2299Z" fill="black"/>
<path d="M34.4701 23.7791L32.9038 23.3467C32.6348 24.3218 32.2349 25.2569 31.7168 26.1266L33.1117 26.9589C33.7052 25.9647 34.1622 24.8947 34.4701 23.7791Z" fill="black"/>
<path d="M12.5852 26.7881L11.249 27.7141C11.9076 28.6634 12.6899 29.5223 13.5762 30.2674L14.622 29.0233C13.846 28.371 13.1605 27.6192 12.5852 26.7881Z" fill="black"/>
<path d="M24.583 31.3784L24.9591 32.959C26.0842 32.6916 27.1689 32.2731 28.1853 31.7153L27.403 30.291C26.5151 30.7786 25.5661 31.1444 24.583 31.3784Z" fill="black"/>
<path d="M14.9731 31.291C15.9507 31.9127 17.0068 32.4003 18.1121 32.7403L18.5897 31.1867C17.6233 30.8899 16.7005 30.4634 15.8459 29.9199L14.9731 31.291Z" fill="black"/>
<path d="M23.2523 33.2469L23.0889 31.6298C22.7112 31.6679 22.3279 31.6873 21.9479 31.6873C21.3171 31.7171 20.6831 31.6361 20.0658 31.5342L19.8008 33.137C20.5062 33.2536 21.2592 33.3028 21.9487 33.3123C22.3819 33.3123 22.8199 33.2901 23.2523 33.2469Z" fill="black"/>
<path d="M18.6875 44.6875H20.3125V46.3125H18.6875V44.6875Z" fill="black"/>
<path d="M21.9375 44.6875H23.5625V46.3125H21.9375V44.6875Z" fill="black"/>
<path d="M25.1875 44.6875H26.8125V46.3125H25.1875V44.6875Z" fill="black"/>
</svg>
