<svg width="39" height="20" viewBox="0 0 39 20" fill="none" xmlns="http://www.w3.org/2000/svg">
<path d="M37.4766 8.16844H5.21338L10.5579 2.81212C11.1543 2.21438 11.1565 1.24299 10.563 0.642409C9.96947 0.041757 9.00483 0.0395329 8.40848 0.637193L0.448224 8.61521C0.447691 8.61567 0.44731 8.6162 0.446853 8.61666C-0.147973 9.2144 -0.149877 10.1889 0.4467 10.7887C0.447234 10.7891 0.447614 10.7897 0.448072 10.7901L8.40833 18.7681C9.00461 19.3657 9.96924 19.3637 10.5629 18.7629C11.1564 18.1624 11.1541 17.191 10.5577 16.5932L5.21338 11.2369H37.4766C38.318 11.2369 39 10.55 39 9.70267C39 8.85531 38.318 8.16844 37.4766 8.16844Z" fill="black"/>
</svg>
