<svg width="18" height="26" viewBox="0 0 18 26" fill="none" xmlns="http://www.w3.org/2000/svg">
<path d="M9 0.739014C4.03729 0.739014 0 4.87983 0 9.96978C0 11.6454 0.732706 13.4476 0.763412 13.5236C1.00006 14.0997 1.467 14.9946 1.80371 15.5191L7.97453 25.1088C8.22706 25.5019 8.60082 25.7273 9 25.7273C9.39918 25.7273 9.77294 25.5019 10.0255 25.1093L16.1968 15.5191C16.5341 14.9946 17.0005 14.0997 17.2371 13.5236C17.2678 13.4482 18 11.646 18 9.96978C18 4.87983 13.9627 0.739014 9 0.739014ZM16.2609 13.1023C16.0496 13.6187 15.615 14.451 15.3127 14.9213L9.14135 24.5115C9.01959 24.701 8.98094 24.701 8.85918 24.5115L2.68782 14.9213C2.38553 14.451 1.95088 13.6181 1.73965 13.1017C1.73065 13.0795 1.05882 11.4206 1.05882 9.96978C1.05882 5.47874 4.62124 1.82499 9 1.82499C13.3788 1.82499 16.9412 5.47874 16.9412 9.96978C16.9412 11.4228 16.2678 13.086 16.2609 13.1023Z" fill="black"/>
<path d="M9 5.0835C6.37253 5.0835 4.23529 7.27607 4.23529 9.97037C4.23529 12.6647 6.37253 14.8573 9 14.8573C11.6275 14.8573 13.7647 12.6647 13.7647 9.97037C13.7647 7.27607 11.6275 5.0835 9 5.0835ZM9 13.7713C6.957 13.7713 5.29412 12.0663 5.29412 9.97037C5.29412 7.87445 6.957 6.16947 9 6.16947C11.043 6.16947 12.7059 7.87445 12.7059 9.97037C12.7059 12.0663 11.043 13.7713 9 13.7713Z" fill="black"/>
</svg>
