<svg width="18" height="21" viewBox="0 0 18 21" fill="none" xmlns="http://www.w3.org/2000/svg">
<path fill-rule="evenodd" clip-rule="evenodd" d="M10.3755 11.3962H16.5161C16.911 11.3962 17.2897 11.5511 17.5689 11.8269C17.8481 12.1027 18.005 12.4767 18.005 12.8667V18.6097C18.005 18.9997 17.8481 19.3737 17.5689 19.6495C17.2897 19.9253 16.911 20.0802 16.5161 20.0802H10.3755C9.98066 20.0802 9.60197 19.9253 9.32276 19.6495C9.04355 19.3737 8.88669 18.9997 8.88669 18.6097V12.8618C8.88669 12.4718 9.04355 12.0978 9.32276 11.822C9.60197 11.5462 9.98066 11.3913 10.3755 11.3913V11.3962ZM9.48718 1.80707L12.6121 4.68757H9.48718V1.80707ZM3.30853 10.9289C3.26434 10.9302 3.22086 10.9402 3.18065 10.9583C3.14044 10.9764 3.1043 11.0023 3.07439 11.0344C3.04447 11.0665 3.02138 11.1043 3.00647 11.1454C2.99157 11.1865 2.98515 11.2301 2.9876 11.2737C2.98422 11.3178 2.98995 11.3621 3.00444 11.404C3.01892 11.4459 3.04187 11.4844 3.07187 11.5172C3.10188 11.5501 3.13833 11.5766 3.17901 11.5951C3.21969 11.6136 3.26375 11.6238 3.30853 11.625H7.22912V10.9289H3.30853ZM3.30853 13.4222C3.26433 13.4239 3.22092 13.4343 3.18086 13.4528C3.1408 13.4713 3.10491 13.4975 3.0753 13.53C3.04569 13.5624 3.02296 13.6004 3.00847 13.6417C2.99397 13.6829 2.988 13.7266 2.99091 13.7702C2.988 13.8138 2.99397 13.8575 3.00847 13.8988C3.02296 13.9401 3.04569 13.978 3.0753 14.0105C3.10491 14.0429 3.1408 14.0692 3.18086 14.0877C3.22092 14.1062 3.26433 14.1166 3.30853 14.1182H7.22912V13.4222H3.30853ZM3.30853 5.94074C3.26321 5.94065 3.21835 5.94975 3.17674 5.96749C3.13513 5.98522 3.09765 6.01121 3.06663 6.04384C3.03561 6.07647 3.01171 6.11504 2.99641 6.15718C2.9811 6.19931 2.97473 6.24409 2.97767 6.28876C2.97473 6.33342 2.9811 6.37821 2.99641 6.42034C3.01171 6.46247 3.03561 6.50105 3.06663 6.53368C3.09765 6.56631 3.13513 6.5923 3.17674 6.61003C3.21835 6.62776 3.26321 6.63687 3.30853 6.63677H6.9297C6.97375 6.63491 7.01698 6.62436 7.05685 6.60576C7.09672 6.58716 7.13242 6.56088 7.16185 6.52846C7.19129 6.49603 7.21387 6.45813 7.22826 6.41696C7.24265 6.3758 7.24857 6.33221 7.24566 6.28876C7.24857 6.2453 7.24265 6.20172 7.22826 6.16055C7.21387 6.11939 7.19129 6.08148 7.16185 6.04906C7.13242 6.01664 7.09672 5.99035 7.05685 5.97175C7.01698 5.95315 6.97375 5.94261 6.9297 5.94074H3.30853ZM3.30853 3.44747C3.26433 3.44912 3.22092 3.45951 3.18086 3.47801C3.1408 3.49652 3.10491 3.52277 3.0753 3.55522C3.04569 3.58766 3.02296 3.62564 3.00847 3.66691C2.99397 3.70818 2.988 3.75189 2.99091 3.79548C2.988 3.83907 2.99397 3.88279 3.00847 3.92405C3.02296 3.96532 3.04569 4.0033 3.0753 4.03574C3.10491 4.06819 3.1408 4.09444 3.18086 4.11295C3.22092 4.13145 3.26433 4.14184 3.30853 4.14349H5.29364C5.33769 4.14163 5.38092 4.13109 5.42079 4.11249C5.46065 4.09388 5.49635 4.0676 5.52579 4.03518C5.55523 4.00276 5.5778 3.96485 5.5922 3.92369C5.60659 3.88252 5.61251 3.83893 5.6096 3.79548C5.61251 3.75203 5.60659 3.70844 5.5922 3.66727C5.5778 3.62611 5.55523 3.58821 5.52579 3.55578C5.49635 3.52336 5.46065 3.49708 5.42079 3.47848C5.38092 3.45988 5.33769 3.44933 5.29364 3.44747H3.30853ZM3.30853 8.43566C3.26321 8.43556 3.21835 8.44466 3.17674 8.4624C3.13513 8.48013 3.09765 8.50612 3.06663 8.53875C3.03561 8.57138 3.01171 8.60996 2.99641 8.65209C2.9811 8.69422 2.97473 8.739 2.97767 8.78367C2.97473 8.82833 2.9811 8.87312 2.99641 8.91525C3.01171 8.95738 3.03561 8.99596 3.06663 9.02859C3.09765 9.06122 3.13513 9.08721 3.17674 9.10494C3.21835 9.12268 3.26321 9.13178 3.30853 9.13168H9.42929C9.47425 9.13063 9.51856 9.12076 9.55963 9.10263C9.6007 9.08451 9.63771 9.05849 9.6685 9.0261C9.69929 8.99372 9.72325 8.9556 9.73898 8.91398C9.75471 8.87236 9.7619 8.82806 9.76014 8.78367C9.76308 8.739 9.75671 8.69422 9.7414 8.65209C9.7261 8.60996 9.7022 8.57138 9.67118 8.53875C9.64016 8.50612 9.60268 8.48013 9.56107 8.4624C9.51946 8.44466 9.4746 8.43556 9.42929 8.43566H3.30853ZM14.359 5.10094C14.3579 4.98979 14.3204 4.88198 14.2521 4.79362C14.1838 4.70527 14.0884 4.64112 13.9802 4.61078L9.37635 0.199345C9.32849 0.137167 9.26668 0.0868041 9.19578 0.0522161C9.12488 0.0176281 9.04682 -0.000241408 8.96775 1.30917e-05H0.936317C0.813315 -0.000635039 0.691401 0.0227881 0.577614 0.0689301C0.463827 0.115072 0.360422 0.183019 0.273368 0.268848C0.186314 0.354676 0.117337 0.456686 0.0704174 0.568989C0.0234983 0.681291 -0.000432785 0.80166 5.92431e-06 0.923147V16.7357C-0.000385731 16.857 0.0235298 16.9772 0.0703752 17.0894C0.117221 17.2016 0.18607 17.3035 0.272959 17.3892C0.449177 17.5614 0.686828 17.6582 0.934663 17.6588H1.73036V18.9528C1.7338 19.2517 1.85551 19.5373 2.06945 19.7486C2.28339 19.9599 2.57257 20.0801 2.87511 20.0835H7.23574V19.1162H2.87015C2.82698 19.1165 2.78543 19.1001 2.75435 19.0705C2.72439 19.0398 2.70777 18.9987 2.70803 18.9561V17.667H7.23905V16.636H1.0455V1.02771H8.43673V5.2006C8.43672 5.26917 8.4505 5.33706 8.47727 5.40033C8.50404 5.4636 8.54326 5.52099 8.59266 5.56917C8.64205 5.61735 8.70065 5.65536 8.76503 5.68101C8.82942 5.70665 8.89833 5.7194 8.96775 5.71854H13.3069V9.83588H14.3507V6.93413H15.6427C15.6864 6.93345 15.7286 6.9499 15.7601 6.97988C15.7901 7.01058 15.8067 7.05162 15.8065 7.09425V9.83751H16.799V7.09425C16.7998 6.79573 16.6808 6.50905 16.4682 6.29693C16.3623 6.19226 16.2364 6.10945 16.0978 6.05335C15.9592 5.99725 15.8107 5.96897 15.6609 5.97015H14.3507V5.10094H14.359ZM13.1414 17.6343L11.2308 18.1359L11.5054 16.1197L13.1332 17.6359L13.1414 17.6343ZM11.9239 15.6606L13.952 13.3977C13.9678 13.3799 13.9871 13.3656 14.0087 13.3555C14.0304 13.3453 14.0538 13.3397 14.0778 13.3389C14.1076 13.3388 14.137 13.3455 14.1638 13.3585L15.6129 14.6656C15.6271 14.6789 15.6385 14.6948 15.6464 14.7125C15.6544 14.7302 15.6587 14.7492 15.6592 14.7685C15.6601 14.7903 15.656 14.8119 15.6475 14.832C15.6389 14.852 15.626 14.8699 15.6096 14.8845L13.5467 17.1752L11.9223 15.6606H11.9239Z" fill="#646464"/>
</svg>
