<svg width="16" height="16" viewBox="0 0 16 16" fill="none" xmlns="http://www.w3.org/2000/svg">
<path d="M15.7507 0.107346C15.9471 0.250203 16.0275 0.440679 15.9918 0.678774L13.706 14.3931C13.6763 14.5657 13.581 14.6996 13.4203 14.7948C13.337 14.8425 13.2447 14.8663 13.1435 14.8663C13.0781 14.8663 13.0066 14.8514 12.9293 14.8216L8.2239 12.902L5.56318 15.8216C5.45604 15.9466 5.31616 16.0091 5.14354 16.0091C5.0602 16.0091 4.99175 15.9972 4.93818 15.9734C4.82509 15.9318 4.7358 15.8603 4.67032 15.7591C4.60485 15.6639 4.57211 15.5568 4.57211 15.4377V11.402L0.357823 9.67877C0.137585 9.59544 0.0185375 9.43175 0.000680336 9.1877C-0.0171768 8.95556 0.0780613 8.77997 0.286395 8.66092L15.1435 0.0894885C15.3519 -0.0355115 15.5543 -0.0295589 15.7507 0.107346ZM12.6971 13.4913L14.6703 1.67877L1.86675 9.0627L4.86675 10.2859L12.5721 4.58056L8.30425 11.6966L12.6971 13.4913Z" fill="white"/>
</svg>
