<svg width="70" height="70" viewBox="0 0 70 70" fill="none" xmlns="http://www.w3.org/2000/svg">
<g opacity="0.4">
<path d="M21.8837 37.9225C21.497 37.9225 21.126 38.0762 20.8526 38.3497C20.5791 38.6232 20.4254 38.9941 20.4254 39.3809V48.1309C20.4254 48.5177 20.5791 48.8886 20.8526 49.1621C21.126 49.4356 21.497 49.5892 21.8837 49.5892C22.2705 49.5892 22.6415 49.4356 22.9149 49.1621C23.1884 48.8886 23.3421 48.5177 23.3421 48.1309V46.6725H24.7917C25.952 46.6725 27.0648 46.2116 27.8853 45.3911C28.7057 44.5707 29.1667 43.4579 29.1667 42.2975C29.1667 41.1372 28.7057 40.0244 27.8853 39.204C27.0648 38.3835 25.952 37.9225 24.7917 37.9225H21.8837ZM24.7917 43.7559H23.3421V40.8392H24.7917C25.1784 40.8392 25.5494 40.9929 25.8229 41.2663C26.0964 41.5398 26.25 41.9108 26.25 42.2975C26.25 42.6843 26.0964 43.0553 25.8229 43.3287C25.5494 43.6022 25.1784 43.7559 24.7917 43.7559ZM43.7442 39.3809C43.7442 38.9941 43.8978 38.6232 44.1713 38.3497C44.4448 38.0762 44.8157 37.9225 45.2025 37.9225H49.5921C49.9789 37.9225 50.3498 38.0762 50.6233 38.3497C50.8968 38.6232 51.0504 38.9941 51.0504 39.3809C51.0504 39.7677 50.8968 40.1386 50.6233 40.4121C50.3498 40.6856 49.9789 40.8392 49.5921 40.8392H46.6579L46.655 43.7617H49.5921C49.9789 43.7617 50.3498 43.9154 50.6233 44.1888C50.8968 44.4623 51.0504 44.8333 51.0504 45.22C51.0504 45.6068 50.8968 45.9778 50.6233 46.2512C50.3498 46.5247 49.9789 46.6784 49.5921 46.6784H46.655L46.6608 48.128C46.6612 48.3195 46.6239 48.5092 46.5509 48.6863C46.478 48.8633 46.3709 49.0243 46.2358 49.16C45.9628 49.4341 45.5922 49.5884 45.2054 49.5892C44.8186 49.59 44.4474 49.4371 44.1734 49.1641C43.8993 48.8912 43.7449 48.5206 43.7442 48.1338L43.7354 45.223V45.2171L43.7442 39.3809ZM33.5417 37.9225H34.9942C36.5413 37.9225 38.025 38.5371 39.119 39.6311C40.2129 40.7251 40.8275 42.2088 40.8275 43.7559C40.8275 45.303 40.2129 46.7867 39.119 47.8807C38.025 48.9746 36.5413 49.5892 34.9942 49.5892H33.5417C33.1549 49.5892 32.784 49.4356 32.5105 49.1621C32.237 48.8886 32.0833 48.5177 32.0833 48.1309V39.3809C32.0833 38.9941 32.237 38.6232 32.5105 38.3497C32.784 38.0762 33.1549 37.9225 33.5417 37.9225ZM35 46.6725C35.7735 46.6725 36.5154 46.3653 37.0624 45.8183C37.6094 45.2713 37.9167 44.5294 37.9167 43.7559C37.9167 42.9823 37.6094 42.2405 37.0624 41.6935C36.5154 41.1465 35.7735 40.8392 35 40.8392V46.6725ZM35 23.3334V5.83337H17.5C15.9529 5.83337 14.4692 6.44796 13.3752 7.54192C12.2812 8.63588 11.6667 10.1196 11.6667 11.6667V31.115C9.94292 31.9346 8.75 33.6934 8.75 35.7292V51.7709C8.75 53.8067 9.94292 55.5625 11.6667 56.385V58.3334C11.6667 59.8805 12.2812 61.3642 13.3752 62.4582C14.4692 63.5521 15.9529 64.1667 17.5 64.1667H52.5C54.0471 64.1667 55.5308 63.5521 56.6248 62.4582C57.7188 61.3642 58.3333 59.8805 58.3333 58.3334V56.385C60.0571 55.5655 61.25 53.8067 61.25 51.7709V35.7292C61.25 33.6934 60.0571 31.9375 58.3333 31.115V29.1667H40.8333C39.2862 29.1667 37.8025 28.5521 36.7085 27.4582C35.6146 26.3642 35 24.8805 35 23.3334ZM13.8542 35H56.1458C56.3392 35 56.5247 35.0769 56.6614 35.2136C56.7982 35.3504 56.875 35.5358 56.875 35.7292V51.7709C56.875 51.9643 56.7982 52.1497 56.6614 52.2865C56.5247 52.4232 56.3392 52.5 56.1458 52.5H13.8542C13.6608 52.5 13.4753 52.4232 13.3386 52.2865C13.2018 52.1497 13.125 51.9643 13.125 51.7709V35.7292C13.125 35.5358 13.2018 35.3504 13.3386 35.2136C13.4753 35.0769 13.6608 35 13.8542 35ZM39.375 23.3334V7.29171L56.875 24.7917H40.8333C40.4466 24.7917 40.0756 24.6381 39.8021 24.3646C39.5286 24.0911 39.375 23.7201 39.375 23.3334Z" fill="#646464"/>
</g>
</svg>
