<svg width="16" height="15" viewBox="0 0 16 15" fill="none" xmlns="http://www.w3.org/2000/svg">
<path d="M15.5342 2.28209C15.5332 2.28209 15.5322 2.28196 15.5312 2.28196H11.2812V1.80119C11.2812 1.00592 10.6504 0.358887 9.875 0.358887H6.125C5.34961 0.358887 4.71875 1.00592 4.71875 1.80119V2.28196H0.46875C0.207764 2.28196 0 2.50131 0 2.76273V13.3397C0 14.1349 0.630859 14.782 1.40625 14.782H14.5938C15.3691 14.782 16 14.1349 16 13.3397V2.77287C16 2.77225 16 2.77162 16 2.771C15.9821 2.45524 15.7927 2.28384 15.5342 2.28209ZM5.65625 1.80119C5.65625 1.53615 5.86658 1.32043 6.125 1.32043H9.875C10.1334 1.32043 10.3438 1.53615 10.3438 1.80119V2.28196H5.65625V1.80119ZM14.8809 3.2435L13.4252 7.72242C13.3613 7.91911 13.1826 8.05119 12.9806 8.05119H10.3438V7.57042C10.3438 7.30487 10.1339 7.08966 9.875 7.08966H6.125C5.86609 7.08966 5.65625 7.30487 5.65625 7.57042V8.05119H3.01941C2.81738 8.05119 2.63867 7.91911 2.57483 7.72242L1.11914 3.2435H14.8809ZM9.40625 8.05119V9.01273H6.59375V8.05119H9.40625ZM15.0625 13.3397C15.0625 13.6047 14.8522 13.8204 14.5938 13.8204H1.40625C1.14783 13.8204 0.9375 13.6047 0.9375 13.3397V5.72535L1.68542 8.02653C1.87708 8.61647 2.41321 9.01273 3.01941 9.01273H5.65625V9.4935C5.65625 9.75905 5.86609 9.97427 6.125 9.97427H9.875C10.1339 9.97427 10.3438 9.75905 10.3438 9.4935V9.01273H12.9806C13.5868 9.01273 14.1229 8.61647 14.3146 8.02653L15.0625 5.72535V13.3397Z" fill="#FCFCFC"/>
</svg>
