<svg width="523" height="1120" viewBox="0 0 523 1120" fill="none" xmlns="http://www.w3.org/2000/svg">
<g clipPath="url(#clip0_491_6896)">
<path d="M275.623 1082.37C275.623 1082.37 237.134 1101.56 235.639 1113.05C234.311 1124.54 307.36 1115.77 310.349 1111.84C313.337 1107.6 305.316 1082.37 305.316 1082.37L275.623 1082.37Z" fill="#4E5D83"/>
</g>
<path d="M398.703 1081.22C398.703 1081.22 373.343 1101.93 368.827 1112.23C376.628 1124.11 426.72 1112.23 433.611 1108.57C440.27 1097.01 426.72 1083.05 426.72 1083.05L398.703 1081.22Z" fill="#4E5D83"/>
<path d="M62.6101 71.6172L64.855 48.3559L0.666504 24.3676L62.6101 71.6172Z" fill="#73AAA4"/>
<path d="M0.666504 24.3676L46.3135 74.2523L60.3651 54.989L0.666504 24.3676Z" fill="#DCE4E1"/>
<path d="M0.666504 24.3676L64.855 48.3559L78.3246 30.0921L0.666504 24.3676Z" fill="#DCE4E1"/>
<path d="M60.3649 54.989L62.6099 71.6172L54.2122 63.4394L60.3649 54.989Z" fill="#8EC7C1"/>
<path d="M67.8484 61.8038C68.569 62.349 69.2896 62.8639 70.0102 63.3485" stroke="#8EC7C1" stroke-width="2" stroke-miterlimit="10"/>
<path d="M78.9521 72.7605C89.7369 78.7895 101.837 82.8089 113.762 81.2777C129.895 79.268 141.206 66.7315 158.917 70.6552C174.963 74.196 188.816 88.7422 192.937 106.064C195.743 117.739 192.85 131.615 183.994 138.888C161.548 157.549 136.296 128.648 136.296 93.1443C136.296 47.5918 190.132 8.73818 267.116 2.13498C359.531 -5.7123 481.057 66.6358 521.566 215.064" stroke="#82AB9B" stroke-width="2" stroke-miterlimit="10" stroke-dasharray="5.73 5.73"/>
<path d="M305.729 1083.87L274.093 1083.05C270.724 1053.97 261.572 828.012 260.561 813.532C255.732 745.923 258.54 655.967 252.139 646.618C245.737 637.269 269.545 584.367 269.545 584.367L325.808 597.478L353.021 690.855C353.021 690.855 342.465 840.097 340.892 867.46C340.78 870.082 306.066 1077.48 305.729 1083.87Z" fill="url(#paint0_linear_491_6896)"/>
<path d="M398.752 1083.05C394.389 1058.65 373.658 837.142 370.638 825.63C354.755 766.926 307.683 585.117 307.683 585.117L443.808 597.541C443.808 597.541 455.665 669.353 458.909 748.232C458.614 751.928 459.392 751.539 458.909 755.431C459.207 755.811 458.871 756.059 459.244 756.439C459.58 765.558 459.803 774.677 459.803 783.91C459.915 806.594 426.902 1043.49 426.119 1083.05H398.752Z" fill="url(#paint1_linear_491_6896)"/>
<path d="M218.59 423.946C218.59 423.946 217.13 440.623 226.112 450.04C235.205 459.456 244.973 477.948 244.973 477.948C244.973 477.948 256.761 466.83 263.161 458.095C269.56 449.359 290.105 413.849 290.442 395.811C290.891 377.659 258.894 350.545 258.894 350.545C258.894 350.545 241.156 379.701 239.696 396.492C238.124 413.169 218.59 423.946 218.59 423.946Z" fill="url(#paint2_linear_491_6896)"/>
<path d="M205.011 412.748C207.958 421.138 207.958 429.755 207.958 441.319C207.958 452.771 206.866 472.612 213.741 477.487C220.724 482.362 230.544 491.66 239.055 484.063C247.457 476.353 251.822 464.222 252.913 452.771C254.004 441.319 240.474 424.539 234.254 414.448L205.011 412.748Z" fill="#FEC4AD"/>
<path d="M261.968 458.466C261.968 458.466 255.267 470.92 238.292 484.403C221.205 497.886 208.362 491.144 203.448 484.403C198.534 477.661 203.448 428.986 203.448 428.986C203.448 428.986 221.429 431.843 233.378 414.246L261.968 458.466Z" fill="url(#paint3_linear_491_6896)"/>
<path d="M222.998 431.483L205.011 429.099V412.748L222.998 414.451V431.483Z" fill="#AEBFDE"/>
<path d="M397.592 271.835C400.626 280.762 429.841 291.176 429.841 291.176C429.841 291.176 341.747 393.946 307.701 393.259C273.767 392.572 322.533 296.326 322.533 296.326C322.533 296.326 332.421 291.29 335.567 281.563C338.714 271.835 332.196 229.72 332.196 229.72L368.041 207.404C368.041 207.404 394.446 262.909 397.592 271.835Z" fill="#FEC4AD"/>
<path style="mix-blend-mode:multiply" d="M397.592 271.835C400.626 280.762 429.841 291.176 429.841 291.176C429.841 291.176 341.747 393.946 307.701 393.259C273.767 392.572 322.533 296.326 322.533 296.326C322.533 296.326 332.421 291.29 335.567 281.563C338.714 271.835 332.196 229.72 332.196 229.72L368.041 207.404C368.041 207.404 394.446 262.909 397.592 271.835Z" fill="url(#paint4_linear_491_6896)"/>
<path d="M288.81 150.88C283.493 156.145 274.633 166.676 275.519 172.628C276.295 178.694 276.073 197.351 280.835 206.508C287.37 219.214 286.594 238.786 290.803 250.233C295.012 261.679 316.387 279.077 319.71 280.45C323.143 281.824 334.55 279.535 340.088 275.185C345.515 270.721 374.421 232.606 367.776 207.539C367.776 207.539 380.513 210.057 384.832 184.99C386.05 178.465 360.577 160.495 356.59 154.2C346.844 138.747 312.4 151.796 302.543 152.826C292.686 153.856 288.81 150.88 288.81 150.88Z" fill="#FEC4AD"/>
<path d="M276.492 182.636C276.492 182.636 272.135 167.349 284.982 165.637L324.974 157.309C336.256 153.772 340.725 151.605 340.725 151.605C340.725 151.605 344.076 167.121 348.098 170.657C352.119 174.194 360.162 177.503 361.726 182.522C363.29 187.428 363.849 192.562 363.849 192.562C363.849 192.562 369.099 182.066 375.131 182.408C381.275 182.751 383.174 191.992 378.371 197.582C373.567 203.172 368.429 207.508 368.429 207.508C368.429 207.508 369.993 214.695 372.45 219.829C374.908 224.963 379.6 233.634 379.6 233.634C379.6 233.634 385.073 198.723 392.446 183.207C399.819 167.691 399.931 124.68 355.359 125.364C355.359 125.364 326.314 102.547 297.493 108.822C272.582 114.298 246.107 135.176 267.667 169.63C275.151 181.496 276.492 182.636 276.492 182.636Z" fill="#7B2B1A"/>
<path d="M323.422 200.944C323.422 200.944 322.603 204.409 318.627 207.874C314.652 211.454 311.728 211.339 306.934 206.834C306.934 206.834 312.781 199.096 323.422 200.944Z" fill="white"/>
<path d="M315.446 201.445C316.816 200.986 317.616 205.004 317.387 205.922C317.045 207.3 316.474 209.137 313.277 209.596C308.711 210.285 307.683 204.43 307.683 204.43L315.446 201.445Z" fill="#542F38"/>
<path opacity="0.3" d="M310.178 205.922C312.351 205.703 313.68 207.669 312.472 208.761C311.144 209.744 309.333 210.181 308.729 208.652C308.246 207.014 308.126 206.031 310.178 205.922Z" fill="white"/>
<path d="M326.419 200.738C326.419 200.738 313.721 200.14 304.887 208.153C304.887 208.153 303.893 206.12 306.323 203.848C307.648 202.532 310.629 200.858 313.721 200.14C324.432 197.628 326.419 200.738 326.419 200.738Z" fill="#782F38"/>
<path d="M301.582 191.666C301.582 191.666 299.051 189.081 299.491 185.372C299.491 185.372 312.259 178.517 329.539 184.136C329.539 184.136 331.52 185.372 328.439 185.372C325.357 185.485 308.076 184.586 301.582 191.666Z" fill="#8E373F"/>
<path d="M283.702 211.656C283.702 211.656 283.821 217.828 287.277 218.527C291.805 219.459 292.043 214.684 291.924 211.423C291.924 211.423 287.873 208.977 283.702 211.656Z" fill="white"/>
<path d="M284.118 212.388C283.025 212.738 284.361 215.776 284.968 216.126C285.818 216.944 287.033 217.762 289.34 216.477C292.619 214.724 290.555 210.402 290.555 210.402L284.118 212.388Z" fill="#542F38"/>
<path opacity="0.3" d="M284.081 213.949C282.516 215.034 282.636 217.746 284.081 217.881C285.526 218.017 287.092 217.203 286.61 215.441C286.128 213.678 285.647 212.729 284.081 213.949Z" fill="white"/>
<path d="M283.068 213.157C281.636 213.278 281.966 211.947 284.17 210.615C286.813 209.284 289.677 208.8 291.109 208.921C293.863 209.042 294.194 211.22 294.194 211.22C290.448 210.978 286.923 211.947 283.949 213.399C283.656 213.238 283.362 213.157 283.068 213.157Z" fill="#782F38"/>
<path d="M276.556 196.784C283.185 189.976 287.837 189.417 287.837 189.417C289.581 191.427 289.697 195.222 289.697 195.222C283.534 196.226 279.347 198.235 276.556 199.909C276.091 198.458 276.091 197.342 276.556 196.784Z" fill="#8E373F"/>
<path fill-rule="evenodd" clip-rule="evenodd" d="M336.124 196.582C335.45 197.62 335.899 197.505 334.888 206.73C334.101 213.533 329.717 217.8 318.588 219.299C310.156 220.336 308.133 212.841 306.109 209.843C304.086 206.73 303.299 206.499 301.95 206.96C300.714 207.306 300.264 207.883 300.039 211.688C299.814 215.378 302.4 223.219 294.306 225.987C288.685 227.832 286.549 226.909 283.851 222.643C281.378 218.953 279.355 214.917 278.23 211.803C277.106 208.69 276.319 206.73 277.668 205.807C279.355 204.769 281.828 204.077 284.301 203.386C289.247 201.887 292.507 200.272 295.88 200.964C299.14 201.656 299.477 203.04 300.826 202.578C302.287 202.232 301.95 200.849 304.536 198.427C307.009 195.89 320.161 191.97 325.108 190.471C327.019 189.894 329.267 189.317 331.403 188.972C331.403 188.972 349.389 184.244 358.158 182.053C362.429 181.015 368.387 186.55 368.387 186.55C368.387 186.55 366.926 187.818 365.802 189.894C365.802 189.894 362.542 187.818 361.305 188.049C360.743 188.164 359.732 188.972 359.732 188.972L338.485 194.276C337.923 195.314 336.462 196.236 336.124 196.582ZM296.105 206.614C294.756 204.193 294.755 204.539 288.46 206.038C282.277 207.537 281.715 208.113 281.041 209.728C280.366 211.342 281.266 215.724 284.188 220.567C285.65 223.219 287.786 226.448 292.732 224.949C298.128 223.335 298.016 219.991 297.791 215.493C297.453 210.996 296.554 207.422 296.105 206.614ZM330.616 193.584C329.267 192.546 321.061 195.429 315.103 197.62C309.032 199.811 307.009 200.503 307.009 203.27C307.009 204.308 307.908 207.767 309.932 211.803C311.843 215.839 314.203 219.068 323.871 216.185C330.728 214.225 332.864 210.65 333.202 204.077C333.426 198.312 331.965 194.507 330.616 193.584Z" fill="#2F2521"/>
<path d="M299.923 209.652C299.923 209.652 298.197 226.271 294.637 229.594C290.107 234.064 291.941 237.503 295.392 238.534C298.844 239.566 306.934 237.961 306.934 237.961C306.934 237.961 306.718 229.824 304.237 223.864C301.756 217.904 299.923 209.652 299.923 209.652Z" fill="#F49A8A"/>
<path d="M303.187 244.882C303.187 244.882 304.957 250.339 309.382 253.067C310.709 253.94 312.369 254.485 314.249 254.595C320.113 254.922 323.099 251.757 324.648 248.156C326.529 243.791 326.418 238.88 326.418 238.88C326.418 238.88 320.444 242.263 312.922 243.791C305.51 245.209 303.187 244.882 303.187 244.882Z" fill="#542F38"/>
<path d="M308.433 253.195C309.867 253.996 311.659 254.496 313.69 254.596C320.022 254.897 323.248 251.993 324.92 248.689C323.367 247.888 313.69 254.596 308.433 253.195Z" fill="#C85A58"/>
<path d="M290.007 305.579C272.208 314.693 266.714 326.199 257.814 349.21C249.024 372.336 240.234 377.576 240.234 377.576C240.234 377.576 258.913 381.791 279.899 424.739C279.899 424.739 301.983 410.043 307.587 380.766C313.081 351.375 290.007 305.579 290.007 305.579Z" fill="url(#paint5_linear_491_6896)"/>
<path d="M413.179 280.099L473.329 303.419C473.329 303.419 483.037 361.606 482.256 383.211C481.475 404.931 449.559 620.073 449.559 620.073C449.559 620.073 369.769 629.104 329.706 620.073C289.644 610.928 261.969 602.697 261.969 602.697C261.969 602.697 275.806 392.699 278.931 371.094C282.167 349.374 289.979 306.048 289.979 306.048L321.448 290.844L338.857 303.419L413.179 280.099Z" fill="url(#paint6_linear_491_6896)"/>
<path d="M332.524 329.561C332.524 329.561 311.029 523.108 306.934 545.084L320.923 573.126C320.923 573.126 344.353 556.873 345.718 547.945C347.082 538.903 348.902 330.591 348.902 330.591L332.524 329.561Z" fill="url(#paint7_linear_491_6896)"/>
<path d="M235.844 378.116C240.028 376.637 258.232 372.2 265.356 372.313C272.479 372.541 293.963 370.721 302.443 371.972C310.923 373.224 318.838 385.057 326.075 388.584C329.919 390.404 337.495 393.932 346.654 398.028C343.601 406.106 340.661 414.298 337.721 422.49C333.198 419.304 329.241 417.029 326.188 416.119C313.863 412.705 314.202 409.519 307.531 409.861C300.973 410.202 301.991 410.202 295.998 409.292C290.005 408.268 285.821 399.393 281.525 396.776C277.341 394.045 271.009 391.087 271.801 388.812C272.479 386.536 272.818 383.805 287.178 386.991C287.178 386.991 273.497 381.985 267.391 381.871C261.285 381.757 248.508 383.464 242.402 383.35C236.296 383.236 231.66 379.595 235.844 378.116Z" fill="#FEC4AD"/>
<path d="M349.651 398.684L332.427 390.265L316.677 425.192L333.561 437.479L349.651 398.684Z" fill="#AEBFDE"/>
<path d="M296.011 440.635L247.114 452.193C242.079 453.452 235.925 450.248 233.463 445.327L179.083 335.245C176.621 330.325 178.635 325.404 183.559 324.145L232.12 312.359C241.072 312.016 245.659 314.19 248.121 319.225L302.613 428.391C305.186 433.541 304.515 436.974 296.011 440.635Z" fill="#97A3CC"/>
<path d="M293.382 441.31L244.293 452.979C239.261 454.123 233.111 451.034 230.651 446L176.082 335.486C173.622 330.566 175.634 325.647 180.666 324.388L229.309 312.605C234.564 311.346 240.938 314.435 243.51 319.583L298.303 429.755C300.986 434.903 298.75 440.051 293.382 441.31Z" fill="url(#paint8_linear_491_6896)"/>
<path d="M213.901 421.741C208.912 420.487 202.224 419.918 200.636 416.841C198.936 413.878 196.442 413.08 193.721 410.801C190.887 408.522 192.587 406.129 189.299 403.394C185.898 400.546 189.299 395.76 188.959 393.139C188.733 390.632 188.392 385.504 189.526 380.946C190.66 376.274 195.081 375.248 200.863 373.539C206.758 371.716 210.84 371.716 210.84 374.565C210.84 377.299 204.718 381.174 204.718 381.174C204.718 381.174 214.808 378.097 217.529 377.071C220.249 376.046 224.784 378.325 222.744 381.63C220.816 385.048 212.767 389.378 210.273 390.632C207.779 391.885 206.418 394.392 206.418 394.392C206.418 394.392 213.901 394.392 219.229 392.341C224.444 390.404 229.206 385.732 232.72 387.783C236.348 389.834 234.421 392.341 230.793 395.19C230.793 395.19 223.084 400.09 220.59 401.115C220.59 401.115 228.299 401.343 232.267 399.748C236.121 398.267 238.048 400.09 236.915 402.825C235.781 405.674 225.011 407.953 224.784 408.978C224.444 410.004 226.711 412.511 228.072 415.587C229.432 418.664 213.901 421.741 213.901 421.741Z" fill="#FEC4AD"/>
<path d="M324.171 307.603L333.208 329.523L349.078 330.31L372.884 304.343L338.167 303.331L324.171 307.603Z" fill="url(#paint9_linear_491_6896)"/>
<path d="M406.788 268.857L339.159 303.047L366.503 324.315L414.102 279.72L406.788 268.857Z" fill="url(#paint10_linear_491_6896)"/>
<path d="M339.159 303.253L317.426 319.818L321.949 290.686L329.01 282.347L339.159 303.253Z" fill="url(#paint11_linear_491_6896)"/>
<path d="M474.133 303.331C474.133 303.331 493.304 318.144 497.428 325.094C501.553 332.045 499.1 348.453 500.772 366.342C502.444 384.231 495.979 473.79 486.84 488.489C477.7 503.302 461.092 507.176 452.844 507.176C444.484 507.176 333.913 437.67 333.913 437.67L349.741 398.816L430.885 430.15C430.885 430.15 430.105 367.139 429.325 353.124C428.433 339.109 457.525 307.205 474.133 303.331Z" fill="url(#paint12_linear_491_6896)"/>
<path fill-rule="evenodd" clip-rule="evenodd" d="M94.0959 261.2V244.204L102.24 241.727C102.738 240.076 103.375 238.51 104.151 237.029L100.079 229.343L111.796 217.3L119.275 221.4C120.771 220.66 122.294 220.005 123.845 219.435L126.255 211.151H142.875L145.285 219.435C146.836 220.005 148.36 220.66 149.855 221.4L157.334 217.3L169.051 229.343L164.979 237.029C165.755 238.51 166.392 240.076 166.891 241.727L175.034 244.204V261.2L166.891 263.676C166.392 265.328 165.755 266.922 164.979 268.459L169.051 276.061L157.334 288.188L149.855 284.003C148.36 284.744 146.836 285.398 145.285 285.968L142.875 294.338H126.255L123.845 285.968C122.294 285.398 120.771 284.744 119.275 284.003L111.796 288.188L100.079 276.061L104.151 268.459C103.375 266.922 102.738 265.328 102.24 263.676L94.0959 261.2ZM116.366 252.744C116.366 263.079 124.51 271.449 134.565 271.449C144.62 271.449 152.764 263.079 152.764 252.744C152.764 242.325 144.62 233.955 134.565 233.955C124.51 233.955 116.366 242.325 116.366 252.744Z" fill="#D5EAE2"/>
<path fill-rule="evenodd" clip-rule="evenodd" d="M34.8821 654.239L42.8264 639.214L51.1834 640.831C52.396 639.604 53.6911 638.518 55.0687 637.571L55.062 628.873L71.049 623.704L75.7444 630.824C77.4128 630.869 79.0656 631.002 80.7031 631.223L86.7058 625.026L101.398 632.795L99.6564 641.245C100.762 642.473 101.802 643.764 102.779 645.118L111.306 644.989L116.036 661.112L108.843 666.004C108.837 667.675 108.668 669.357 108.337 671.05L114.379 677.046L106.434 692.071L98.0774 690.454C96.8648 691.681 95.5564 692.793 94.1522 693.789L94.1989 702.412L78.1718 707.657L73.5164 700.461C71.8481 700.417 70.1952 700.283 68.5577 700.062L62.5151 706.334L47.8226 698.566L49.6044 690.04C48.4993 688.812 47.4585 687.521 46.4822 686.167L37.9144 686.371L33.2251 670.173L40.3777 665.357C40.4106 663.635 40.5926 661.928 40.9237 660.235L34.8821 654.239ZM58.5222 657.174C53.6917 666.31 56.9787 677.516 65.8677 682.215C74.7566 686.915 85.8682 683.323 90.6987 674.187C95.5691 664.975 92.2821 653.77 83.3931 649.07C74.5042 644.37 63.3926 647.962 58.5222 657.174Z" fill="#D5EAE2"/>
<path fill-rule="evenodd" clip-rule="evenodd" d="M37.1392 214.118V203.688L42.2271 202.162C42.5607 201.144 42.9499 200.183 43.3948 199.279L40.8925 194.53L48.1491 187.153L52.7365 189.782C53.6818 189.273 54.6549 188.849 55.6558 188.51L57.0737 183.422H67.4164L68.8343 188.51C69.8352 188.849 70.8083 189.273 71.7536 189.782L76.3411 187.153L83.5976 194.53L81.0953 199.279C81.5402 200.183 81.9294 201.144 82.2631 202.162L87.351 203.688V214.118L82.2631 215.644C81.9294 216.661 81.5402 217.622 81.0953 218.527L83.5976 223.19L76.3411 230.652L71.7536 228.024C70.8083 228.533 69.8352 228.956 68.8343 229.296L67.4164 234.383H57.0737L55.6558 229.296C54.6549 228.956 53.6818 228.533 52.7365 228.024L48.1491 230.652L40.8925 223.19L43.3948 218.527C42.9499 217.622 42.5607 216.661 42.2271 215.644L37.1392 214.118ZM50.9015 208.86C50.9015 215.22 55.906 220.392 62.1617 220.392C68.4173 220.392 73.5052 215.22 73.5052 208.86C73.5052 202.501 68.4173 197.413 62.1617 197.413C55.906 197.413 50.9015 202.501 50.9015 208.86Z" fill="#D5EAE2"/>
<path fill-rule="evenodd" clip-rule="evenodd" d="M168.289 603.821V593.392L173.377 591.865C173.711 590.848 174.1 589.887 174.545 588.982L172.043 584.234L179.299 576.857L183.887 579.485C184.832 578.977 185.805 578.553 186.806 578.213L188.224 573.126H198.567L199.984 578.213C200.985 578.553 201.958 578.977 202.904 579.485L207.491 576.857L214.748 584.234L212.245 588.982C212.69 589.887 213.08 590.848 213.413 591.865L218.501 593.392V603.821L213.413 605.347C213.08 606.365 212.69 607.326 212.245 608.23L214.748 612.894L207.491 620.356L202.904 617.727C201.958 618.236 200.985 618.66 199.984 618.999L198.567 624.087H188.224L186.806 618.999C185.805 618.66 184.832 618.236 183.887 617.727L179.299 620.356L172.043 612.894L174.545 608.23C174.1 607.326 173.711 606.365 173.377 605.347L168.289 603.821ZM182.052 598.564C182.052 604.924 187.056 610.096 193.312 610.096C199.567 610.096 204.655 604.924 204.655 598.564C204.655 592.204 199.567 587.117 193.312 587.117C187.056 587.117 182.052 592.204 182.052 598.564Z" fill="#D5EAE2"/>
<path d="M26.1904 477.076V498.001" stroke="#E9F2F4" stroke-width="0.6" stroke-miterlimit="10"/>
<path d="M36.9991 475.675C36.9991 481.442 32.0935 486.138 26.1902 486.138C20.2037 486.138 15.2981 481.442 15.2981 475.675C15.2981 469.826 20.2037 465.131 26.1902 465.131C32.0935 465.131 36.9991 469.826 36.9991 475.675Z" fill="#0A6259"/>
<path d="M36.9991 512.335C36.9991 518.184 32.0935 522.879 26.1902 522.879C20.2037 522.879 15.2981 518.184 15.2981 512.335C15.2981 506.568 20.2037 501.872 26.1902 501.872C32.0935 501.872 36.9991 506.568 36.9991 512.335Z" fill="#0A6259"/>
<path d="M25.2756 479.794L20.2869 473.533L24.8599 475.346L35.2531 466.531L25.2756 479.794Z" fill="white"/>
<path d="M25.2756 516.866L20.2869 510.687L24.8599 512.499L35.2531 503.685L25.2756 516.866Z" fill="white"/>
<path d="M168.12 491.08H43.3184V479.794H168.12V491.08Z" fill="#E9F2F4"/>
<path d="M124.884 527.41H43.3184V516.042H124.884V527.41Z" fill="#E9F2F4"/>
<path d="M114.657 474.44H43.3184V468.673H114.657V474.44Z" fill="#0A6259"/>
<path d="M87.5519 510.44H43.3184V504.673H87.5519V510.44Z" fill="#0A6259"/>
<path d="M26.2981 395.465V416.39" stroke="#E9F2F4" stroke-width="0.6" stroke-miterlimit="10"/>
<path d="M37.1068 394.065C37.1068 399.831 32.2012 404.527 26.2978 404.527C20.3114 404.527 15.4058 399.831 15.4058 394.065C15.4058 388.216 20.3114 383.52 26.2978 383.52C32.2012 383.52 37.1068 388.216 37.1068 394.065Z" fill="#0A6259"/>
<path d="M37.1068 430.724C37.1068 436.573 32.2012 441.269 26.2978 441.269C20.3114 441.269 15.4058 436.573 15.4058 430.724C15.4058 424.957 20.3114 420.262 26.2978 420.262C32.2012 420.262 37.1068 424.957 37.1068 430.724Z" fill="#0A6259"/>
<path d="M25.383 398.184L20.3943 391.923L24.9673 393.735L35.3605 384.92L25.383 398.184Z" fill="white"/>
<path d="M25.383 435.255L20.3943 429.076L24.9673 430.889L35.3605 422.074L25.383 435.255Z" fill="white"/>
<path d="M168.228 409.47H43.426V398.184H168.228V409.47Z" fill="#E9F2F4"/>
<path d="M124.992 445.8H43.426V434.431H124.992V445.8Z" fill="#E9F2F4"/>
<path d="M114.765 392.829H43.426V387.062H114.765V392.829Z" fill="#0A6259"/>
<path d="M87.6595 428.829H43.426V423.062H87.6595V428.829Z" fill="#0A6259"/>
<defs>
<linearGradient id="paint0_linear_491_6896" x1="-36745" y1="109647" x2="-28018.1" y2="136985" gradientUnits="userSpaceOnUse">
<stop stop-color="#272438"/>
<stop offset="1" stop-color="#304260"/>
</linearGradient>
<linearGradient id="paint1_linear_491_6896" x1="-91832" y1="109030" x2="-93798.7" y2="153803" gradientUnits="userSpaceOnUse">
<stop stop-color="#272438"/>
<stop offset="1" stop-color="#304260"/>
</linearGradient>
<linearGradient id="paint2_linear_491_6896" x1="18961.4" y1="35200.5" x2="23571.8" y2="35200.5" gradientUnits="userSpaceOnUse">
<stop stop-color="#55DBA6"/>
<stop offset="1" stop-color="#057C70"/>
</linearGradient>
<linearGradient id="paint3_linear_491_6896" x1="-38741.4" y1="3061.51" x2="-42194.2" y2="7590.81" gradientUnits="userSpaceOnUse">
<stop stop-color="#55DBA6"/>
<stop offset="1" stop-color="#057C70"/>
</linearGradient>
<linearGradient id="paint4_linear_491_6896" x1="12568.7" y1="15964.3" x2="18049.4" y2="17309.5" gradientUnits="userSpaceOnUse">
<stop stop-color="white" stop-opacity="0"/>
<stop offset="1" stop-color="#E0BAD1"/>
</linearGradient>
<linearGradient id="paint5_linear_491_6896" x1="-11169.2" y1="42048.4" x2="-9357.53" y2="50348" gradientUnits="userSpaceOnUse">
<stop stop-color="#55DBA6"/>
<stop offset="1" stop-color="#057C70"/>
</linearGradient>
<linearGradient id="paint6_linear_491_6896" x1="-46037.3" y1="103597" x2="-46037.3" y2="171526" gradientUnits="userSpaceOnUse">
<stop stop-color="#057C70"/>
<stop offset="1" stop-color="#55DBA6"/>
</linearGradient>
<linearGradient id="paint7_linear_491_6896" x1="10346.2" y1="-82353.3" x2="10346.2" y2="-91340" gradientUnits="userSpaceOnUse">
<stop stop-color="#272438"/>
<stop offset="1" stop-color="#304260"/>
</linearGradient>
<linearGradient id="paint8_linear_491_6896" x1="-17796.2" y1="-33450.9" x2="-31005.7" y2="-37748.6" gradientUnits="userSpaceOnUse">
<stop stop-color="#EEF4FB"/>
<stop offset="1" stop-color="#CFE1F3"/>
</linearGradient>
<linearGradient id="paint9_linear_491_6896" x1="11663.5" y1="-9258.74" x2="11663.5" y2="-10453.3" gradientUnits="userSpaceOnUse">
<stop stop-color="#272438"/>
<stop offset="1" stop-color="#304260"/>
</linearGradient>
<linearGradient id="paint10_linear_491_6896" x1="-11168" y1="15878.7" x2="-11168" y2="18692.8" gradientUnits="userSpaceOnUse">
<stop stop-color="#55DBA6"/>
<stop offset="1" stop-color="#057C70"/>
</linearGradient>
<linearGradient id="paint11_linear_491_6896" x1="-4864.92" y1="15033.6" x2="-4864.92" y2="15865.2" gradientUnits="userSpaceOnUse">
<stop stop-color="#55DBA6"/>
<stop offset="1" stop-color="#031E54"/>
</linearGradient>
<linearGradient id="paint12_linear_491_6896" x1="-50403.1" y1="66140.2" x2="-56435.7" y2="96236" gradientUnits="userSpaceOnUse">
<stop stop-color="#4AC091"/>
<stop offset="1" stop-color="#0A6259"/>
</linearGradient>
<clipPath id="clip0_491_6896">
<rect width="76.3693" height="66.5152" fill="white" transform="translate(234.975 1053.48)"/>
</clipPath>
</defs>
</svg>
