<svg width="14" height="14" viewBox="0 0 14 14" fill="none" xmlns="http://www.w3.org/2000/svg">
<path fill-rule="evenodd" clip-rule="evenodd" d="M5.94062 0.0244141C2.6597 0.0244141 0 2.68411 0 5.96504C0 9.24596 2.6597 11.9057 5.94062 11.9057C9.22154 11.9057 11.8812 9.24596 11.8812 5.96504C11.8812 2.68411 9.22154 0.0244141 5.94062 0.0244141ZM13.7552 13.7209C13.4246 14.0573 12.8808 14.0621 12.5445 13.7315L10.1699 11.3982C10.6216 11.046 11.0282 10.6387 11.3797 10.1865L13.7446 12.5102C14.0809 12.8408 14.0857 13.3845 13.7552 13.7209ZM5.94062 1.67844C8.30804 1.67844 10.2272 3.59761 10.2272 5.96501C10.2272 8.3324 8.30801 10.2516 5.94062 10.2516C3.5732 10.2516 1.65405 8.3324 1.65405 5.96501C1.65405 3.59761 3.57323 1.67844 5.94062 1.67844Z" fill="#646464"/>
</svg>
