<svg width="14" height="15" viewBox="0 0 14 15" fill="none" xmlns="http://www.w3.org/2000/svg">
<path d="M13.1647 5.53117C12.8924 5.4894 12.6325 5.38329 12.4044 5.22073C12.1763 5.05818 11.9859 4.84338 11.8473 4.59232C11.7087 4.34127 11.6255 4.06043 11.6039 3.77071C11.5824 3.481 11.6229 3.18988 11.7227 2.91903C11.7861 2.74196 11.7954 2.54837 11.7494 2.36542C11.7033 2.18246 11.6043 2.0193 11.466 1.89881C10.8556 1.35749 10.1608 0.932244 9.41267 0.642028C9.2423 0.575189 9.0563 0.566837 8.88118 0.618165C8.70605 0.669492 8.55073 0.77788 8.43734 0.927886C8.26667 1.15837 8.04854 1.34479 7.7995 1.47299C7.55047 1.6012 7.27705 1.66783 7 1.66783C6.72296 1.66783 6.44954 1.6012 6.20051 1.47299C5.95147 1.34479 5.73334 1.15837 5.56267 0.927886C5.44928 0.77788 5.29396 0.669492 5.11883 0.618165C4.94371 0.566837 4.75771 0.575189 4.58734 0.642028C3.89652 0.909966 3.25062 1.29264 2.67401 1.7756C2.52866 1.89712 2.42397 2.0646 2.37527 2.2535C2.32656 2.4424 2.3364 2.64281 2.40334 2.82539C2.51103 3.1034 2.55552 3.4042 2.53325 3.70366C2.51098 4.00311 2.42256 4.29289 2.2751 4.54974C2.12764 4.80659 1.92523 5.02336 1.68411 5.18268C1.44299 5.34199 1.16988 5.4394 0.886676 5.4671C0.702813 5.48786 0.53012 5.57042 0.394022 5.70263C0.257923 5.83483 0.165611 6.00969 0.130677 6.20146C0.0437823 6.65573 1.00988e-05 7.11801 1.00988e-05 7.58146C-0.000628578 7.96945 0.0290275 8.35683 0.0886767 8.73967C0.118364 8.93759 0.208958 9.11967 0.346454 9.25775C0.483949 9.39584 0.660688 9.48224 0.849343 9.5036C1.13877 9.53229 1.41747 9.63377 1.66214 9.79957C1.9068 9.96536 2.1103 10.1906 2.25561 10.4565C2.40092 10.7224 2.4838 11.0212 2.49732 11.3279C2.51085 11.6346 2.45462 11.9402 2.33334 12.2192C2.25397 12.4007 2.23429 12.605 2.27741 12.7997C2.32053 12.9943 2.42398 13.1682 2.57134 13.2937C3.17806 13.8252 3.86614 14.2435 4.60601 14.5307C4.70062 14.5654 4.79989 14.5837 4.90001 14.585C5.03729 14.5846 5.17249 14.5496 5.29429 14.4827C5.41609 14.4158 5.52092 14.319 5.60001 14.2005C5.76633 13.9446 5.98929 13.7354 6.24953 13.5911C6.50977 13.4468 6.79942 13.3718 7.09334 13.3725C7.37812 13.3729 7.65889 13.4435 7.91328 13.5787C8.16768 13.7139 8.38867 13.9099 8.55867 14.1512C8.67175 14.3118 8.83192 14.4283 9.01424 14.4827C9.19656 14.5371 9.39078 14.5262 9.56667 14.4519C10.2432 14.1643 10.873 13.7669 11.4333 13.274C11.5741 13.1511 11.6743 12.9842 11.7196 12.7973C11.7649 12.6105 11.7529 12.4132 11.6853 12.234C11.5756 11.9596 11.5277 11.662 11.5455 11.3647C11.5634 11.0673 11.6464 10.7785 11.788 10.5209C11.9297 10.2632 12.1261 10.0439 12.3618 9.8802C12.5974 9.71649 12.8659 9.61287 13.146 9.57753C13.3276 9.55101 13.4965 9.46411 13.6283 9.32942C13.76 9.19473 13.8477 9.01924 13.8787 8.82839C13.9536 8.4173 13.9942 8.00005 14 7.58146C14.0001 7.13993 13.961 6.69937 13.8833 6.26553C13.8518 6.07889 13.7654 5.90747 13.6364 5.77564C13.5074 5.64381 13.3423 5.55827 13.1647 5.53117ZM9.33334 7.58146C9.33334 8.06885 9.19649 8.54529 8.9401 8.95054C8.68371 9.35579 8.31929 9.67165 7.89293 9.85816C7.46657 10.0447 6.99742 10.0935 6.54479 9.9984C6.09217 9.90331 5.67641 9.66861 5.35009 9.32397C5.02377 8.97934 4.80154 8.54024 4.71151 8.06222C4.62148 7.58419 4.66768 7.08871 4.84429 6.63842C5.02089 6.18813 5.31996 5.80326 5.70368 5.53248C6.08739 5.2617 6.53852 5.11717 7 5.11717C7.61884 5.11717 8.21233 5.3768 8.64992 5.83895C9.0875 6.30109 9.33334 6.92789 9.33334 7.58146Z" fill="#646464"/>
</svg>
