<svg width="16" height="17" viewBox="0 0 16 17" fill="none" xmlns="http://www.w3.org/2000/svg">
<path d="M8 0.384521C3.58875 0.384521 0 4.06555 0 8.58965C0 13.1138 3.58875 16.7948 8 16.7948C12.411 16.7948 16 13.114 16 8.58965C16 4.06529 12.411 0.384521 8 0.384521ZM8 1.41016C11.8597 1.41016 15 4.63068 15 8.58965C15 10.0263 14.585 11.3643 13.8737 12.4879C13.51 10.674 12.3593 9.10401 10.743 8.24862C11.2153 7.63632 11.5 6.86503 11.5 6.02555C11.5 4.04606 9.93 2.4358 8 2.4358C6.07 2.4358 4.5 4.04606 4.5 6.02555C4.5 6.86503 4.78475 7.63632 5.257 8.24862C3.6405 9.10401 2.49 10.674 2.12625 12.4879C1.415 11.3643 1 10.0263 1 8.58965C1 4.63068 4.14 1.41016 8 1.41016ZM5.5 6.02555C5.5 4.6117 6.6215 3.46144 8 3.46144C9.3785 3.46144 10.5 4.6117 10.5 6.02555C10.5 7.43939 9.3785 8.58965 8 8.58965C6.6215 8.58965 5.5 7.43939 5.5 6.02555ZM8 15.7691C6.045 15.7691 4.2755 14.9417 3.00425 13.6117C3.04525 11.5976 4.2455 9.78657 6.04375 9.00093C6.6025 9.38862 7.27575 9.61529 8 9.61529C8.724 9.61529 9.3975 9.38862 9.95625 9.00093C11.7545 9.78657 12.9548 11.5976 12.9958 13.6117C11.7245 14.9417 9.955 15.7691 8 15.7691Z" fill="black"/>
</svg>
