<svg width="16" height="19" viewBox="0 0 16 19" fill="none" xmlns="http://www.w3.org/2000/svg">
<path d="M12.8584 18.2351C12.7407 18.2885 12.6072 18.3001 12.4816 18.2679C12.4143 18.2514 12.3511 18.2221 12.2956 18.1817C12.2402 18.1414 12.1936 18.0907 12.1585 18.0327L10.8034 15.7738L9.51443 17.1741C9.35537 17.3532 9.15734 17.4959 8.93454 17.5923C8.79559 17.6503 8.64203 17.6674 8.49309 17.6414C8.41386 17.6251 8.33895 17.5931 8.27305 17.5476C8.20715 17.502 8.15167 17.4437 8.11009 17.3765C8.02421 17.2315 7.97518 17.0688 7.96704 16.9018L7.43176 10.1369C6.54801 10.2908 5.63645 10.1399 4.85598 9.71026C4.07551 9.28066 3.47562 8.59971 3.16088 7.78609C2.84615 6.97248 2.83653 6.07781 3.13371 5.25804C3.43088 4.43827 4.016 3.74539 4.78707 3.30018C5.55814 2.85498 6.46626 2.68568 7.35312 2.8218C8.23998 2.95792 9.04934 3.39082 9.64012 4.04505C10.2309 4.69928 10.5656 5.53334 10.5859 6.40184C10.6063 7.27035 10.3109 8.1182 9.75131 8.79762L15.5702 12.6488C15.7155 12.7393 15.8367 12.8616 15.924 13.006C15.9626 13.0735 15.9864 13.1479 15.9941 13.2247C16.0018 13.3015 15.9931 13.379 15.9686 13.4524C15.9187 13.59 15.827 13.7098 15.7056 13.7961C15.5083 13.9355 15.2812 14.0301 15.0411 14.0729H15.0318L13.143 14.4643L14.4889 16.7321C14.5574 16.8492 14.5751 16.9879 14.5381 17.1176C14.5026 17.2464 14.4194 17.3582 14.3043 17.4316C14.2997 17.4354 14.2945 17.4384 14.2889 17.4405L12.8922 18.2217L12.8615 18.2351H12.8584ZM7.27794 8.20239L7.24872 7.84822V7.82739C7.24666 7.7715 7.25825 7.71593 7.28255 7.66518C7.31019 7.60606 7.3531 7.55481 7.40715 7.51637C7.42995 7.50036 7.45545 7.48827 7.48252 7.48066C7.53483 7.4631 7.59052 7.457 7.64556 7.4628C7.69948 7.46821 7.75176 7.48389 7.79938 7.50893C7.81511 7.51643 7.83005 7.52541 7.84399 7.53572L7.98396 7.62798C8.02564 7.4766 8.04532 7.32033 8.04241 7.1637V7.00596C8.04543 6.83566 8.00585 6.66719 7.92705 6.51489C7.84995 6.37105 7.73061 6.25249 7.58404 6.17411C7.4086 6.08421 7.21178 6.04058 7.01338 6.04762H6.68575C6.60098 6.05361 6.51656 6.03214 6.44579 5.98661C6.41875 5.96423 6.39755 5.93599 6.38392 5.90418C6.37029 5.87237 6.36461 5.83791 6.36735 5.80358V5.75893C6.3652 5.72867 6.36941 5.69831 6.37972 5.66966C6.39003 5.64102 6.40623 5.61469 6.42733 5.59227C6.47362 5.55173 6.53156 5.52578 6.59346 5.51786C6.67442 5.50652 6.7563 5.50253 6.83802 5.50596C6.99184 5.50596 7.16258 5.50596 7.35023 5.51786C7.53789 5.52977 7.70709 5.53572 7.85783 5.54762V4.81846C7.76246 4.79614 7.65633 4.7753 7.53635 4.75447C7.41638 4.73364 7.29025 4.71578 7.15489 4.70239C7.09182 4.69495 7.02722 4.69048 6.96108 4.6875V4.31548H6.43195V4.6875C6.1981 4.70737 5.97501 4.79154 5.789 4.93006C5.67711 5.02749 5.58982 5.14845 5.53382 5.28363C5.47782 5.41881 5.45462 5.56461 5.46598 5.70983V5.85864C5.46598 6.2376 5.56391 6.50794 5.75977 6.66965C6.00869 6.84671 6.31444 6.93266 6.62268 6.91221H6.88263C6.94639 6.91026 7.00905 6.92856 7.06106 6.96429C7.0854 6.98119 7.10512 7.00357 7.11852 7.0295C7.13192 7.05543 7.13859 7.08412 7.13797 7.1131V7.16965C7.14001 7.1967 7.13629 7.22386 7.12703 7.24946C7.11777 7.27506 7.10317 7.29855 7.08413 7.31846C7.03774 7.35736 6.98145 7.38356 6.92109 7.39435C6.83246 7.41135 6.74225 7.41933 6.65191 7.41816C6.53808 7.41816 6.41503 7.41816 6.28275 7.41816C6.15046 7.41816 6.01972 7.41072 5.89051 7.40477C5.76131 7.39881 5.64133 7.38989 5.53058 7.38096V8.11012C5.61518 8.13245 5.70286 8.15179 5.79515 8.16816C5.88744 8.18453 5.98127 8.19792 6.08125 8.20983C6.18123 8.22173 6.28275 8.23215 6.38888 8.2381H6.43503V8.64286H6.96415V8.24405C7.07054 8.23629 7.17635 8.22238 7.28102 8.20239H7.27794ZM6.75189 4.57057e-06C7.71831 -0.00110184 8.6737 0.198679 9.55338 0.585822C10.4331 0.972965 11.2165 1.53843 11.8507 2.24395C12.4848 2.94947 12.9549 3.77856 13.2291 4.67511C13.5032 5.57165 13.5751 6.51473 13.4398 7.44048C13.3979 7.73972 13.3336 8.03563 13.2476 8.3259C13.2326 8.37855 13.2045 8.42682 13.1657 8.46644C13.1268 8.50605 13.0785 8.53579 13.025 8.55301C12.9714 8.57023 12.9143 8.5744 12.8587 8.56516C12.8031 8.55591 12.7507 8.53353 12.7061 8.5L12.1278 8.11757C12.0682 8.0772 12.0234 8.01954 11.9999 7.95294C11.9764 7.88633 11.9754 7.81422 11.997 7.74703C12.0448 7.55081 12.0808 7.35206 12.1047 7.15179C12.1296 6.94583 12.1419 6.73862 12.1416 6.53126C12.1405 5.5482 11.8518 4.58553 11.309 3.75451C10.7661 2.9235 9.99129 2.25808 9.07399 1.83518C8.15668 1.41229 7.1344 1.24918 6.12531 1.36472C5.11622 1.48026 4.16154 1.86972 3.37161 2.48809C2.58169 3.10646 1.98879 3.92848 1.66145 4.85913C1.33412 5.78978 1.28571 6.79105 1.52182 7.7472C1.75794 8.70334 2.26893 9.57532 2.99574 10.2623C3.72255 10.9493 4.63549 11.4233 5.62903 11.6295C5.70131 11.6444 5.76674 11.6814 5.81573 11.735C5.86473 11.7885 5.89471 11.8559 5.90128 11.9271L5.95512 12.6057C5.96148 12.6938 5.93159 12.7808 5.87195 12.8477C5.81231 12.9146 5.72776 12.956 5.63672 12.9628C5.59844 12.9654 5.55999 12.9619 5.52289 12.9524C4.86076 12.8349 4.22082 12.6212 3.6248 12.3185C2.28811 11.6404 1.22474 10.5487 0.604457 9.21759C-0.0158317 7.88646 -0.157283 6.39266 0.202684 4.97466C0.562651 3.55665 1.40328 2.29619 2.59038 1.39449C3.77748 0.492791 5.24262 0.00183773 6.75189 4.57057e-06ZM12.5277 17.4807C12.5401 17.4851 12.5537 17.4851 12.5662 17.4807H12.58L13.8321 16.8021C13.8438 16.7928 13.8524 16.7804 13.8567 16.7664C13.8605 16.7573 13.8605 16.7472 13.8567 16.7381L12.4108 14.2247C12.3979 14.2034 12.3886 14.1803 12.3831 14.1563C12.3709 14.0965 12.3836 14.0344 12.4184 13.9837C12.4533 13.933 12.5075 13.8976 12.5692 13.8854L14.6904 13.5417C14.852 13.5144 15.0053 13.4529 15.1395 13.3616C15.183 13.3327 15.2172 13.2925 15.2379 13.2455C15.2434 13.2306 15.2453 13.2147 15.2434 13.199C15.2415 13.1832 15.236 13.1681 15.2272 13.1548C15.1797 13.0811 15.1149 13.0194 15.038 12.9747L8.00703 8.4137L8.11778 9.95387L8.59307 16.5863C8.59404 16.6736 8.61673 16.7593 8.65921 16.8363C8.66608 16.8491 8.67566 16.8604 8.68732 16.8693C8.69898 16.8783 8.71246 16.8848 8.72689 16.8884C8.77947 16.8956 8.83307 16.8873 8.88071 16.8646C9.02921 16.7981 9.16056 16.7005 9.26525 16.5789L10.5742 14.9926C10.5916 14.9748 10.6112 14.9593 10.6327 14.9464C10.6596 14.9312 10.6894 14.9213 10.7203 14.9173C10.7513 14.9132 10.7827 14.9151 10.8129 14.9229C10.843 14.9306 10.8713 14.944 10.8961 14.9624C10.9208 14.9807 10.9416 15.0036 10.9572 15.0298L12.5046 17.4673C12.5076 17.471 12.5113 17.4741 12.5155 17.4764C12.5197 17.4787 12.5244 17.4802 12.5292 17.4807H12.5277Z" fill="#646464"/>
</svg>
