<svg width="213" height="163" viewBox="0 0 213 163" fill="none" xmlns="http://www.w3.org/2000/svg">
<g clipPath="url(#clip0_2169_10666)">
<path d="M152.039 56.9933C119.342 55.0439 100.398 40.4921 100.398 40.4921C100.398 40.4921 81.4602 55.0382 48.7575 56.9933C48.7575 71.6933 44.4674 135.287 100.398 146.989C156.323 135.287 152.039 71.6933 152.039 56.9933Z" fill="white"/>
<path d="M166.976 46.363C124.816 43.8493 100.397 25.091 100.397 25.091C100.397 25.091 75.9785 43.8493 33.8183 46.363C33.8183 65.3151 28.2919 147.302 100.397 162.39C172.503 147.308 166.976 65.3151 166.976 46.363ZM100.397 146.978C44.4666 135.276 48.7567 71.6819 48.7567 56.9819C81.4536 55.0325 100.397 40.4807 100.397 40.4807C100.397 40.4807 119.335 55.0268 152.038 56.9819C152.038 71.6819 156.328 135.276 100.397 146.978Z" fill="#0A6259" stroke="#55DBA6" stroke-miterlimit="10"/>
<path d="M93.9268 116.677L77.1938 95.5702C74.7667 92.5093 75.2795 88.0577 78.3389 85.6296C81.3984 83.2014 85.848 83.7144 88.2694 86.7753L96.4507 97.0921L122.117 77.8264C125.239 75.4837 129.672 76.1164 132.013 79.24C134.355 82.3635 133.723 86.798 130.6 89.1464L93.9211 116.677H93.9268Z" fill="#55DBA6"/>
<g opacity="0.7">
<path d="M203.451 115.816L204.99 114.34C205.542 113.81 205.559 112.932 205.03 112.385L203.594 110.886C203.064 110.333 203.081 109.461 203.634 108.931L203.77 108.8C204.323 108.27 205.195 108.287 205.725 108.84L207.16 110.339C207.69 110.892 208.568 110.909 209.115 110.379L210.653 108.902C211.205 108.372 212.077 108.389 212.607 108.942C213.137 109.495 213.12 110.367 212.567 110.897L211.029 112.373C210.476 112.904 210.459 113.781 210.989 114.329L212.425 115.828C212.955 116.381 212.937 117.253 212.385 117.783L212.242 117.919C211.69 118.45 210.818 118.432 210.288 117.88L208.852 116.381C208.323 115.828 207.445 115.811 206.898 116.341L205.36 117.817C204.807 118.347 203.936 118.33 203.406 117.777C202.876 117.224 202.893 116.346 203.446 115.822L203.451 115.816Z" fill="#55DBA6"/>
<path d="M67.7195 17.4873H67.7024C67.4973 17.4873 67.3036 17.4018 67.1611 17.2479L66.6427 16.7064C66.5971 16.6608 66.5401 16.638 66.4775 16.6323C66.3863 16.6323 66.3578 16.6551 66.3122 16.695L65.7539 17.2308C65.4463 17.5272 64.962 17.5158 64.6657 17.208C64.5233 17.0598 64.4492 16.866 64.4492 16.6608C64.4492 16.4556 64.5404 16.2618 64.6828 16.1193L65.2411 15.5835C65.3323 15.4923 65.338 15.3498 65.2468 15.2529L64.7284 14.7114C64.4321 14.4036 64.4435 13.9192 64.7512 13.6228L64.8024 13.5772C65.1101 13.2865 65.5944 13.2922 65.8906 13.6L66.4091 14.1414C66.5003 14.2326 66.6484 14.2383 66.7395 14.1471L67.2979 13.6114C67.446 13.4689 67.634 13.3891 67.8448 13.3948C68.0499 13.3948 68.2436 13.4803 68.3861 13.6342C68.5285 13.7824 68.6026 13.9762 68.6026 14.1813C68.6026 14.3865 68.5114 14.5803 68.3633 14.7228L67.8049 15.2586C67.7594 15.3042 67.7366 15.3612 67.7366 15.4239C67.7366 15.4866 67.7594 15.5436 67.7992 15.5892L68.3177 16.1307C68.4601 16.2789 68.5342 16.4727 68.5342 16.6779C68.5342 16.8831 68.4487 17.0769 68.3006 17.2194L68.2493 17.2707C68.1069 17.4075 67.9189 17.4816 67.7195 17.4816V17.4873ZM66.4775 16.1022H66.4946C66.6997 16.1022 66.8934 16.1877 67.0358 16.3416L67.5543 16.8831C67.5998 16.9287 67.6568 16.9515 67.7195 16.9572C67.7708 16.9572 67.8391 16.9344 67.8847 16.8945L67.936 16.8432C67.9816 16.8033 68.0043 16.7406 68.0043 16.6836C68.0043 16.6209 67.9816 16.5639 67.9417 16.5183L67.4232 15.9768C67.2808 15.8286 67.2067 15.6348 67.2124 15.4296C67.2124 15.2244 67.3036 15.0306 67.4517 14.8938L68.01 14.358C68.0556 14.3124 68.0784 14.2554 68.0784 14.1927C68.0784 14.13 68.0556 14.0731 68.0157 14.0275C67.9702 13.9819 67.9132 13.9591 67.8505 13.9534C67.7935 13.9534 67.7309 13.9762 67.6853 14.0161L67.127 14.5518C66.8193 14.8425 66.335 14.8368 66.0388 14.529L65.5203 13.9876C65.4292 13.8964 65.281 13.8907 65.1899 13.9819L65.1386 14.0275C65.0474 14.1186 65.0417 14.2668 65.1329 14.358L65.6514 14.8995C65.9476 15.2073 65.9362 15.6918 65.6286 15.9882L65.0702 16.524C65.0246 16.5696 65.0019 16.6266 65.0019 16.6893C65.0019 16.752 65.0246 16.809 65.0645 16.8546C65.1101 16.9002 65.1671 16.923 65.2297 16.9287C65.2867 16.9287 65.3494 16.9059 65.395 16.866L65.9533 16.3302C66.0957 16.1934 66.2838 16.1136 66.4832 16.1136L66.4775 16.1022Z" fill="#55DBA6"/>
<path d="M11.2358 57.7115L9.12209 57.6659C8.36435 57.6488 7.73764 58.253 7.72625 59.0054L7.68637 61.063C7.66927 61.8211 7.04257 62.4196 6.29052 62.4025H6.09681C5.33907 62.3854 4.74085 61.7584 4.75794 61.0003L4.79782 58.9427C4.81492 58.1846 4.211 57.5576 3.45895 57.5462L1.35095 57.5006C0.593203 57.4835 -0.0050159 56.8565 0.0120761 56.1041C0.029168 55.346 0.655873 54.7475 1.40792 54.7646L3.51593 54.8102C4.27367 54.8273 4.90038 54.2231 4.91177 53.4708L4.95165 51.4131C4.96874 50.655 5.59545 50.0565 6.3475 50.0736H6.5412C7.29895 50.0907 7.89717 50.7177 7.88007 51.4758L7.84019 53.5335C7.8231 54.2915 8.42702 54.9185 9.17906 54.9299L11.2871 54.9755C12.0448 54.9926 12.643 55.6196 12.6259 56.372C12.6089 57.1301 11.9821 57.7286 11.2301 57.7172L11.2358 57.7115Z" fill="#55DBA6"/>
<path d="M181.146 7.38707C180.804 7.38707 180.462 7.34147 180.121 7.23887C178.166 6.67458 177.038 4.62262 177.602 2.66755C177.876 1.72137 178.502 0.934784 179.368 0.461692C180.234 -0.0113995 181.226 -0.125397 182.177 0.148198C184.131 0.712488 185.26 2.76445 184.695 4.71952C184.228 6.33259 182.747 7.38137 181.152 7.38137L181.146 7.38707ZM181.146 0.535791C180.622 0.535791 180.103 0.666888 179.631 0.929084C178.89 1.33378 178.354 2.00636 178.121 2.81575C177.887 3.62514 177.978 4.48012 178.389 5.21541C178.793 5.95639 179.465 6.49219 180.274 6.72588C181.938 7.21037 183.698 6.24709 184.183 4.57702C184.667 2.90695 183.704 1.15138 182.035 0.666888C181.744 0.58139 181.448 0.541491 181.152 0.541491L181.146 0.535791Z" fill="#55DBA6"/>
<path d="M23.4447 144.344C23.0972 144.344 22.7497 144.293 22.4135 144.196C20.4593 143.632 19.3313 141.58 19.8953 139.625C20.465 137.67 22.5161 136.541 24.4702 137.105C26.4244 137.67 27.5525 139.722 26.9885 141.677C26.715 142.623 26.0883 143.409 25.2223 143.883C24.6697 144.185 24.06 144.344 23.4504 144.344H23.4447ZM23.4447 137.493C22.0774 137.493 20.8126 138.394 20.4138 139.767C19.9295 141.437 20.8923 143.193 22.5616 143.677C23.3707 143.911 24.2253 143.82 24.9602 143.409C25.7009 143.005 26.2364 142.332 26.47 141.523C26.9543 139.853 25.9914 138.097 24.3221 137.613C24.0316 137.527 23.7353 137.487 23.4447 137.487V137.493Z" fill="#55DBA6"/>
<path d="M56.576 152.712C56.5134 152.712 56.445 152.689 56.3937 152.643C56.2114 152.478 56.0291 152.307 55.8525 152.142C55.7442 152.039 55.7385 151.874 55.8411 151.766C55.9436 151.657 56.1089 151.651 56.2171 151.754C56.3937 151.919 56.576 152.09 56.7584 152.256C56.8666 152.358 56.8723 152.524 56.7755 152.632C56.7242 152.689 56.6501 152.717 56.576 152.717V152.712ZM54.8725 151.099C54.8042 151.099 54.7358 151.076 54.6845 151.025C54.2971 150.648 53.9154 150.272 53.5394 149.89C53.4368 149.788 53.4368 149.617 53.5394 149.508C53.6419 149.406 53.8128 149.406 53.9154 149.508C54.2914 149.885 54.6674 150.261 55.0549 150.637C55.1631 150.74 55.1631 150.911 55.0549 151.013C55.0036 151.064 54.9352 151.093 54.8612 151.093L54.8725 151.099ZM52.6107 148.813C52.5423 148.813 52.4683 148.784 52.417 148.727C52.0467 148.34 51.682 147.947 51.3174 147.548C51.2149 147.439 51.2263 147.268 51.3345 147.171C51.4428 147.074 51.6137 147.08 51.7105 147.188C52.0695 147.582 52.4341 147.969 52.8044 148.357C52.907 148.465 52.9013 148.636 52.793 148.733C52.7418 148.784 52.6734 148.807 52.6107 148.807V148.813ZM50.44 146.442C50.366 146.442 50.2919 146.413 50.2406 146.351C49.8874 145.946 49.5342 145.541 49.1866 145.131C49.0898 145.017 49.1069 144.852 49.2151 144.755C49.3291 144.658 49.5 144.675 49.5911 144.783C49.9387 145.188 50.2862 145.593 50.6394 145.997C50.7363 146.106 50.7249 146.276 50.6166 146.373C50.5654 146.419 50.5027 146.442 50.44 146.442ZM48.3605 143.991C48.2807 143.991 48.2067 143.957 48.1554 143.894C47.8136 143.478 47.4774 143.056 47.147 142.634C47.0558 142.52 47.0729 142.349 47.1926 142.258C47.3065 142.167 47.4774 142.184 47.5686 142.304C47.899 142.72 48.2352 143.142 48.5713 143.552C48.6625 143.666 48.6511 143.837 48.5314 143.928C48.4802 143.968 48.4232 143.991 48.3605 143.991ZM46.3721 141.466C46.2924 141.466 46.2126 141.432 46.1613 141.357C45.8366 140.93 45.5175 140.497 45.1985 140.064C45.113 139.944 45.1358 139.779 45.2555 139.687C45.3751 139.602 45.5403 139.625 45.6315 139.744C45.9448 140.178 46.2639 140.605 46.5886 141.033C46.6798 141.152 46.657 141.318 46.5374 141.409C46.4861 141.443 46.4291 141.466 46.3778 141.466H46.3721ZM44.4749 138.872C44.3895 138.872 44.3097 138.832 44.2584 138.758C43.9508 138.319 43.6431 137.875 43.3412 137.43C43.2557 137.311 43.2899 137.14 43.4152 137.06C43.5349 136.974 43.7058 137.008 43.7856 137.128C44.0875 137.567 44.3895 138.012 44.6971 138.445C44.7826 138.565 44.7541 138.736 44.6345 138.821C44.5889 138.855 44.5319 138.872 44.4806 138.872H44.4749ZM42.6689 136.21C42.5834 136.21 42.498 136.171 42.4467 136.091C42.1504 135.64 41.8599 135.19 41.575 134.734C41.4952 134.609 41.5351 134.443 41.6605 134.364C41.7858 134.284 41.951 134.324 42.0308 134.449C42.3157 134.899 42.6062 135.35 42.8968 135.8C42.9765 135.925 42.9424 136.091 42.817 136.171C42.7714 136.199 42.7202 136.216 42.6689 136.216V136.21ZM40.954 133.492C40.8628 133.492 40.7774 133.446 40.7261 133.361C40.4469 132.899 40.1735 132.437 39.9 131.975C39.8259 131.85 39.8658 131.685 39.9968 131.611C40.1222 131.537 40.2874 131.576 40.3615 131.708C40.6292 132.169 40.9027 132.631 41.1819 133.087C41.256 133.212 41.2161 133.378 41.0907 133.457C41.0452 133.486 40.9996 133.497 40.954 133.497V133.492ZM39.3303 130.716C39.2391 130.716 39.1479 130.664 39.0967 130.579C38.8346 130.112 38.5725 129.638 38.3161 129.165C38.2478 129.034 38.2933 128.875 38.4244 128.801C38.5554 128.732 38.7149 128.778 38.789 128.909C39.0454 129.376 39.3018 129.844 39.5639 130.311C39.6379 130.442 39.5923 130.602 39.4613 130.676C39.4214 130.699 39.3758 130.71 39.3303 130.71V130.716ZM37.8034 127.894C37.7065 127.894 37.6154 127.843 37.5641 127.752C37.3191 127.279 37.0741 126.8 36.8348 126.321C36.7665 126.19 36.8234 126.03 36.9545 125.962C37.0855 125.894 37.245 125.951 37.3134 126.082C37.5527 126.555 37.7977 127.034 38.0427 127.507C38.111 127.638 38.0598 127.797 37.9287 127.866C37.8888 127.889 37.849 127.894 37.8034 127.894ZM36.3677 125.033C36.2708 125.033 36.1739 124.976 36.1284 124.885C35.8948 124.4 35.6669 123.916 35.439 123.431C35.3763 123.294 35.439 123.135 35.57 123.078C35.7068 123.015 35.8606 123.078 35.9233 123.209C36.1455 123.693 36.3733 124.172 36.6069 124.651C36.6696 124.782 36.6183 124.947 36.4816 125.01C36.4417 125.027 36.4018 125.039 36.3677 125.039V125.033ZM35.0174 122.126C34.9148 122.126 34.818 122.069 34.7724 121.966C34.5559 121.476 34.3394 120.986 34.1286 120.496C34.0716 120.359 34.1286 120.199 34.271 120.142C34.4078 120.085 34.5673 120.142 34.6243 120.285C34.8351 120.775 35.0516 121.26 35.2681 121.75C35.3307 121.887 35.2681 122.046 35.1313 122.103C35.0971 122.12 35.0573 122.126 35.0231 122.126H35.0174ZM33.7469 119.185C33.6443 119.185 33.5418 119.122 33.5019 119.02C33.2968 118.524 33.0974 118.028 32.898 117.532C32.841 117.395 32.9094 117.241 33.0461 117.184C33.1828 117.127 33.3424 117.196 33.3937 117.332C33.5931 117.828 33.7925 118.318 33.9976 118.814C34.0545 118.951 33.9919 119.111 33.8551 119.162C33.8209 119.173 33.7868 119.185 33.7526 119.185H33.7469ZM32.5618 116.21C32.4536 116.21 32.351 116.147 32.3112 116.039C32.1174 115.537 31.9294 115.035 31.7471 114.528C31.6958 114.391 31.7642 114.237 31.9066 114.186C32.0434 114.135 32.1972 114.203 32.2485 114.346C32.4365 114.847 32.6188 115.349 32.8125 115.85C32.8638 115.987 32.7954 116.141 32.6587 116.198C32.6245 116.21 32.596 116.215 32.5618 116.215V116.21ZM31.4509 113.189C31.3426 113.189 31.2344 113.12 31.2002 113.012C31.0236 112.505 30.8469 111.997 30.676 111.49C30.6305 111.348 30.7045 111.199 30.8413 111.148C30.978 111.102 31.1318 111.177 31.1831 111.313C31.354 111.821 31.5306 112.322 31.7072 112.829C31.7585 112.972 31.6845 113.12 31.542 113.171C31.5135 113.183 31.485 113.189 31.4509 113.189ZM30.4196 110.145C30.3057 110.145 30.2032 110.071 30.1633 109.962C29.998 109.449 29.8328 108.936 29.6733 108.429C29.6277 108.287 29.7075 108.138 29.8499 108.093C29.9924 108.047 30.1405 108.127 30.1861 108.27C30.3456 108.777 30.5051 109.29 30.676 109.797C30.7216 109.94 30.6475 110.088 30.5051 110.133C30.4766 110.145 30.4481 110.145 30.4196 110.145ZM29.4625 107.073C29.3486 107.073 29.2403 106.998 29.2061 106.879C29.0523 106.366 28.9042 105.847 28.756 105.334C28.7162 105.192 28.7959 105.043 28.9383 105.004C29.0808 104.964 29.2289 105.043 29.2688 105.186C29.4169 105.699 29.5651 106.212 29.7189 106.725C29.7588 106.867 29.679 107.016 29.5366 107.061C29.5138 107.067 29.4853 107.073 29.4625 107.073ZM28.5794 103.983C28.4598 103.983 28.3515 103.903 28.323 103.784C28.1806 103.265 28.0439 102.746 27.9071 102.228C27.8672 102.085 27.9527 101.937 28.1008 101.903C28.2433 101.869 28.3914 101.948 28.4256 102.097C28.5623 102.615 28.6991 103.128 28.8415 103.647C28.8814 103.789 28.7959 103.938 28.6535 103.978C28.6307 103.983 28.6079 103.989 28.5851 103.989L28.5794 103.983ZM27.7647 100.871C27.6451 100.871 27.5368 100.791 27.5026 100.666C27.3716 100.142 27.2462 99.6228 27.1209 99.0984C27.0867 98.9559 27.1779 98.8077 27.3203 98.7735C27.4627 98.7393 27.6109 98.8305 27.6451 98.973C27.7704 99.4917 27.8957 100.01 28.0268 100.535C28.061 100.677 27.9755 100.826 27.8331 100.86C27.8103 100.86 27.7875 100.865 27.7704 100.865L27.7647 100.871ZM27.0183 97.7419C26.8987 97.7419 26.7848 97.6564 26.7563 97.531C26.6366 97.0066 26.517 96.4822 26.4087 95.9578C26.3746 95.8153 26.4714 95.6728 26.6138 95.6386C26.762 95.6044 26.8987 95.7013 26.9329 95.8438C27.0468 96.3682 27.1608 96.8869 27.2804 97.4113C27.3146 97.5538 27.2235 97.702 27.081 97.7305C27.0582 97.7305 27.0411 97.7362 27.024 97.7362L27.0183 97.7419ZM26.3347 94.5955C26.2093 94.5955 26.1011 94.51 26.0726 94.3789C25.9643 93.8488 25.8561 93.3244 25.7535 92.8C25.7251 92.6575 25.8219 92.515 25.9643 92.4865C26.1125 92.458 26.2492 92.555 26.2777 92.6974C26.3802 93.2218 26.4885 93.7462 26.5967 94.2706C26.6252 94.4131 26.5341 94.5556 26.3916 94.5898C26.3746 94.5898 26.3575 94.5898 26.3347 94.5898V94.5955ZM25.7137 91.4378C25.5883 91.4378 25.4744 91.3466 25.4516 91.2212C25.3547 90.6911 25.2579 90.161 25.161 89.6366C25.1325 89.4884 25.2294 89.3516 25.3775 89.3288C25.52 89.3003 25.6624 89.3972 25.6852 89.5454C25.7763 90.0698 25.8732 90.5999 25.97 91.1243C25.9985 91.2725 25.9017 91.4093 25.7535 91.4378C25.7365 91.4378 25.7194 91.4378 25.7023 91.4378H25.7137ZM25.1553 88.2686C25.0243 88.2686 24.916 88.1774 24.8932 88.0463C24.8021 87.5162 24.7166 86.9861 24.6369 86.4561C24.6141 86.3079 24.7166 86.1711 24.8591 86.1483C25.0015 86.1255 25.1439 86.2224 25.1667 86.3706C25.2522 86.8949 25.3376 87.425 25.4231 87.9551C25.4459 88.1033 25.349 88.2401 25.2009 88.2629C25.1838 88.2629 25.1724 88.2629 25.1553 88.2629V88.2686ZM24.654 85.0881C24.5229 85.0881 24.409 84.9912 24.3919 84.8601C24.3121 84.33 24.2381 83.7942 24.164 83.2641C24.1412 83.1159 24.2438 82.9791 24.3919 82.962C24.5343 82.9392 24.6711 83.0418 24.6938 83.19C24.7679 83.7201 24.842 84.2502 24.9217 84.7803C24.9445 84.9285 24.842 85.0653 24.6995 85.0824C24.6881 85.0824 24.6711 85.0824 24.6597 85.0824L24.654 85.0881ZM24.2096 81.9018C24.0785 81.9018 23.9646 81.8049 23.9418 81.6681C23.8734 81.1324 23.8051 80.6023 23.7424 80.0722C23.7253 79.924 23.8279 79.7929 23.976 79.7758C24.1184 79.753 24.2551 79.8613 24.2722 80.0095C24.3349 80.5396 24.4033 81.0697 24.4716 81.6054C24.4887 81.7536 24.3862 81.8847 24.2381 81.9075C24.2267 81.9075 24.2153 81.9075 24.2039 81.9075L24.2096 81.9018ZM23.8165 78.7099C23.6797 78.7099 23.5658 78.6073 23.5487 78.4705C23.486 77.9347 23.429 77.3989 23.3721 76.8688C23.355 76.7206 23.4632 76.5895 23.6114 76.5724C23.7538 76.5553 23.8905 76.6636 23.9076 76.8118C23.9646 77.3419 24.0216 77.872 24.0842 78.4078C24.1013 78.556 23.9931 78.6871 23.8506 78.7042C23.8392 78.7042 23.8279 78.7042 23.8222 78.7042L23.8165 78.7099ZM23.4746 75.5122C23.3379 75.5122 23.2239 75.4097 23.2068 75.2729C23.1556 74.7371 23.1043 74.2013 23.0587 73.6712C23.0473 73.523 23.1556 73.3919 23.3037 73.3805C23.4404 73.3691 23.5829 73.4774 23.5943 73.6256C23.6398 74.1557 23.6911 74.6915 23.7424 75.2273C23.7538 75.3755 23.6512 75.5066 23.5031 75.518C23.4917 75.518 23.486 75.518 23.4746 75.518V75.5122ZM23.1841 72.3089C23.0473 72.3089 22.9277 72.2006 22.9163 72.0638C22.8707 71.528 22.8308 70.9922 22.7909 70.4564C22.7795 70.3082 22.8878 70.1828 23.0359 70.1714C23.1841 70.16 23.3094 70.2683 23.3265 70.4165C23.3664 70.9466 23.4062 71.4824 23.4518 72.0182C23.4632 72.1664 23.355 72.2975 23.2068 72.3089C23.2011 72.3089 23.1897 72.3089 23.1841 72.3089ZM22.9391 69.0999C22.8023 69.0999 22.6827 68.9916 22.6713 68.8491C22.6371 68.3076 22.6029 67.7718 22.5687 67.2417C22.5573 67.0935 22.6713 66.9681 22.8194 66.9567C22.9619 66.951 23.0929 67.0593 23.1043 67.2075C23.1385 67.7376 23.1727 68.2734 23.2068 68.8092C23.2182 68.9574 23.1043 69.0828 22.9562 69.0942C22.9505 69.0942 22.9448 69.0942 22.9391 69.0942V69.0999ZM22.7454 65.8908C22.6029 65.8908 22.4833 65.7825 22.4776 65.64C22.4491 65.0985 22.4206 64.5627 22.3978 64.0327C22.3921 63.8845 22.5061 63.7591 22.6542 63.7534C22.7966 63.7477 22.9277 63.8617 22.9334 64.0099C22.9562 64.5399 22.9846 65.0757 23.0131 65.6172C23.0188 65.7654 22.9106 65.8908 22.7625 65.9022C22.7625 65.9022 22.7511 65.9022 22.7454 65.9022V65.8908ZM22.5915 62.6761C22.4491 62.6761 22.3295 62.5621 22.3238 62.4196C22.301 61.8781 22.2839 61.3423 22.2611 60.8122C22.2611 60.664 22.3693 60.5386 22.5175 60.5329C22.6656 60.5158 22.7909 60.6412 22.7966 60.7894C22.8137 61.3195 22.8365 61.8553 22.8593 62.3968C22.865 62.545 22.7511 62.6704 22.6029 62.6761C22.6029 62.6761 22.5972 62.6761 22.5915 62.6761ZM22.4833 59.4613C22.3408 59.4613 22.2212 59.3473 22.2155 59.1991C22.1984 58.6577 22.187 58.1219 22.1756 57.5918C22.1756 57.4436 22.2896 57.3239 22.4377 57.3182C22.6029 57.3182 22.7112 57.4322 22.7112 57.5804C22.7226 58.1105 22.7397 58.6462 22.7511 59.1877C22.7511 59.3359 22.6371 59.4613 22.489 59.4613H22.4833ZM22.4092 56.2466C22.2611 56.2466 22.1414 56.1269 22.1414 55.9844C22.13 55.4372 22.1244 54.9014 22.1187 54.3713C22.1187 54.2231 22.2383 54.1034 22.3807 54.0977C22.5232 54.092 22.6485 54.2174 22.6542 54.3656C22.6599 54.8957 22.6656 55.4315 22.677 55.973C22.677 56.1212 22.563 56.2409 22.4149 56.2466H22.4092ZM22.375 53.0262C22.2269 53.0262 22.1073 52.9065 22.1073 52.7583C22.1073 52.2111 22.1073 51.6753 22.1016 51.1452C22.1016 50.997 22.2212 50.8773 22.3693 50.8773C22.5175 50.8773 22.6371 50.997 22.6371 51.1452C22.6371 51.6696 22.6371 52.2054 22.6428 52.7526C22.6428 52.9008 22.5232 53.0204 22.375 53.0204V53.0262ZM22.375 49.8114C22.2269 49.8114 22.1073 49.6917 22.1073 49.5435C22.1073 48.9963 22.1073 48.4605 22.113 47.9361C22.113 47.7879 22.2326 47.6682 22.3807 47.6682C22.5289 47.6682 22.6485 47.7879 22.6485 47.9361C22.6485 48.4605 22.6428 48.9963 22.6428 49.5435C22.6428 49.6917 22.5232 49.8114 22.375 49.8114ZM22.3978 46.5967C22.2497 46.5967 22.13 46.477 22.13 46.3288C22.13 45.7759 22.1414 45.2401 22.1471 44.7214C22.1471 44.5732 22.2668 44.4592 22.4149 44.4592C22.563 44.4592 22.6827 44.5846 22.677 44.7328C22.6713 45.2515 22.6656 45.7873 22.6599 46.3402C22.6599 46.4884 22.5403 46.6081 22.3921 46.6081L22.3978 46.5967ZM22.4377 43.3819C22.2896 43.3819 22.1699 43.2565 22.1756 43.1083L22.1984 41.501C22.1984 41.3528 22.3181 41.2388 22.4662 41.2388C22.6143 41.2388 22.734 41.3642 22.7283 41.5124L22.7055 43.1197C22.7055 43.2679 22.5858 43.3819 22.4377 43.3819ZM22.4776 40.1672C22.3295 40.1672 22.2098 40.0418 22.2098 39.8993C22.2155 39.3293 22.2212 38.7935 22.2212 38.2919C22.2212 38.1437 22.3409 38.024 22.489 38.024C22.6371 38.024 22.7568 38.1437 22.7568 38.2919C22.7568 38.7935 22.7568 39.3293 22.7454 39.905C22.7454 40.0532 22.6257 40.1729 22.4776 40.1729V40.1672Z" fill="#55DBA6"/>
<path d="M58.9974 154.587C57.4876 153.988 55.4422 153.436 53.8926 153.413L56.2855 152.136L57.3053 149.628C57.4933 151.173 58.2453 153.151 58.9974 154.587Z" fill="#55DBA6"/>
<path d="M145.556 151.572L145.186 151.184C179.176 118.735 178.407 63.5596 178.116 42.7891L178.099 41.5238H178.635L178.652 42.7777C178.8 53.1858 179.068 72.5597 175.034 92.9881C170.111 117.885 160.198 137.596 145.556 151.572Z" fill="#55DBA6"/>
<path d="M178.339 38.2862C178.92 39.8024 179.906 41.6777 180.937 42.8404L178.379 41.9456L175.844 42.8974C176.852 41.7176 177.792 39.8138 178.339 38.2862Z" fill="#55DBA6"/>
<path d="M174.355 149.81H173.939C173.791 149.799 173.666 149.919 173.666 150.067V150.472C173.655 150.62 173.529 150.74 173.381 150.734H173.341C173.193 150.734 173.073 150.608 173.079 150.46V150.056C173.09 149.907 172.971 149.782 172.823 149.782H172.407C172.259 149.771 172.139 149.645 172.145 149.497C172.145 149.349 172.27 149.229 172.418 149.235H172.834C172.982 149.246 173.108 149.126 173.108 148.978V148.574C173.119 148.425 173.244 148.306 173.392 148.311H173.432C173.58 148.311 173.7 148.437 173.694 148.585V148.99C173.683 149.138 173.803 149.263 173.951 149.263H174.367C174.515 149.275 174.634 149.4 174.629 149.548C174.629 149.696 174.503 149.816 174.355 149.81Z" fill="#55DBA6"/>
</g>
<path d="M57.2754 162.43H71.2851" stroke="#55DBA6" stroke-width="2" stroke-linecap="round" stroke-linejoin="round"/>
<path d="M112.602 162.43H115.336" stroke="#55DBA6" stroke-width="2" stroke-linecap="round" stroke-linejoin="round"/>
<path d="M75.6602 162.43H109.85" stroke="#55DBA6" stroke-width="2" stroke-linecap="round" stroke-linejoin="round"/>
<path d="M117.689 162.43H143.527" stroke="#55DBA6" stroke-width="2" stroke-linecap="round" stroke-linejoin="round"/>
</g>
<defs>
<clipPath id="clip0_2169_10666">
<rect width="213" height="163" fill="white"/>
</clipPath>
</defs>
</svg>
