<svg width="253" height="193" viewBox="0 0 253 193" fill="none" xmlns="http://www.w3.org/2000/svg">
<g clipPath="url(#clip0_381_4793)">
<path d="M180.591 67.4828C141.754 65.1747 119.253 47.9446 119.253 47.9446C119.253 47.9446 96.7583 65.168 57.9144 67.4828C57.9144 84.8884 52.8186 160.187 119.253 174.042C185.68 160.187 180.591 84.8884 180.591 67.4828Z" fill="white"/>
<path d="M198.335 54.896C148.257 51.9197 119.253 29.7089 119.253 29.7089C119.253 29.7089 90.2482 51.9197 40.1707 54.896C40.1707 77.3363 33.6064 174.413 119.253 192.278C204.899 174.42 198.335 77.3363 198.335 54.896ZM119.253 174.029C52.8186 160.173 57.9144 84.8749 57.9144 67.4694C96.7515 65.1612 119.253 47.9311 119.253 47.9311C119.253 47.9311 141.747 65.1545 180.591 67.4694C180.591 84.8749 185.687 160.173 119.253 174.029Z" fill="#0A6259" stroke="#55DBA6" stroke-miterlimit="10"/>
<path d="M111.564 138.151L91.6884 113.16C88.8056 109.536 89.4146 104.265 93.0487 101.39C96.6827 98.5146 101.968 99.122 104.844 102.746L114.562 114.962L145.048 92.1503C148.757 89.3765 154.021 90.1256 156.803 93.824C159.584 97.5225 158.833 102.773 155.125 105.554L111.557 138.151H111.564Z" fill="#55DBA6"/>
<g opacity="0.7">
<path d="M241.657 137.132L243.485 135.384C244.141 134.756 244.161 133.717 243.532 133.069L241.827 131.294C241.197 130.64 241.218 129.607 241.874 128.979L242.036 128.824C242.693 128.196 243.728 128.217 244.358 128.871L246.063 130.646C246.692 131.301 247.734 131.321 248.384 130.694L250.211 128.946C250.868 128.318 251.903 128.338 252.532 128.993C253.162 129.647 253.141 130.68 252.485 131.308L250.658 133.056C250.001 133.683 249.981 134.723 250.611 135.371L252.316 137.146C252.945 137.8 252.925 138.833 252.269 139.46L252.099 139.622C251.443 140.25 250.408 140.23 249.778 139.575L248.073 137.8C247.443 137.146 246.401 137.125 245.752 137.753L243.925 139.501C243.268 140.129 242.233 140.108 241.603 139.454C240.974 138.799 240.994 137.76 241.651 137.139L241.657 137.132Z" fill="#55DBA6"/>
<path d="M80.4332 20.7058H80.4129C80.1693 20.7058 79.9392 20.6046 79.77 20.4223L79.1542 19.7812C79.1001 19.7272 79.0324 19.7002 78.958 19.6934C78.8497 19.6934 78.8159 19.7204 78.7617 19.7677L78.0985 20.4021C77.7331 20.753 77.1579 20.7395 76.806 20.3751C76.6368 20.1996 76.5488 19.9702 76.5488 19.7272C76.5488 19.4842 76.6571 19.2548 76.8263 19.086L77.4895 18.4516C77.5977 18.3437 77.6045 18.1749 77.4962 18.0602L76.8804 17.419C76.5285 17.0546 76.5421 16.4809 76.9075 16.13L76.9684 16.076C77.3338 15.7318 77.909 15.7386 78.2609 16.103L78.8768 16.7441C78.985 16.8521 79.161 16.8589 79.2693 16.7509L79.9324 16.1165C80.1084 15.9478 80.3317 15.8533 80.5821 15.86C80.8257 15.86 81.0558 15.9613 81.225 16.1435C81.3942 16.319 81.4821 16.5484 81.4821 16.7914C81.4821 17.0344 81.3739 17.2638 81.1979 17.4325L80.5347 18.0669C80.4806 18.1209 80.4535 18.1884 80.4535 18.2627C80.4535 18.3369 80.4806 18.4044 80.528 18.4584L81.1438 19.0995C81.313 19.275 81.4009 19.5045 81.4009 19.7474C81.4009 19.9904 81.2994 20.2199 81.1235 20.3886L81.0626 20.4493C80.8934 20.6113 80.6701 20.699 80.4332 20.699V20.7058ZM78.958 19.0658H78.9783C79.2219 19.0658 79.452 19.167 79.6212 19.3492L80.237 19.9904C80.2911 20.0444 80.3588 20.0714 80.4332 20.0781C80.4941 20.0781 80.5753 20.0511 80.6295 20.0039L80.6904 19.9432C80.7445 19.8959 80.7716 19.8217 80.7716 19.7542C80.7716 19.6799 80.7445 19.6125 80.6971 19.5585L80.0813 18.9173C79.9121 18.7418 79.8242 18.5124 79.8309 18.2694C79.8309 18.0265 79.9392 17.797 80.1152 17.635L80.7784 17.0006C80.8325 16.9466 80.8596 16.8791 80.8596 16.8049C80.8596 16.7307 80.8325 16.6632 80.7851 16.6092C80.731 16.5552 80.6633 16.5282 80.5889 16.5214C80.5212 16.5214 80.4468 16.5484 80.3926 16.5957L79.7294 17.2301C79.364 17.5743 78.7888 17.5675 78.4369 17.2031L77.8211 16.5619C77.7128 16.4539 77.5368 16.4472 77.4286 16.5552L77.3677 16.6092C77.2594 16.7172 77.2526 16.8926 77.3609 17.0006L77.9767 17.6418C78.3286 18.0062 78.3151 18.5799 77.9496 18.9308L77.2865 19.5652C77.2323 19.6192 77.2052 19.6867 77.2052 19.7609C77.2052 19.8352 77.2323 19.9027 77.2797 19.9567C77.3338 20.0106 77.4015 20.0376 77.4759 20.0444C77.5436 20.0444 77.618 20.0174 77.6722 19.9702L78.3354 19.3357C78.5046 19.1738 78.7279 19.0793 78.9647 19.0793L78.958 19.0658Z" fill="#55DBA6"/>
<path d="M13.3436 68.3332L10.833 68.2792C9.93292 68.259 9.18852 68.9743 9.17499 69.8652L9.12761 72.3016C9.10731 73.1992 8.36292 73.9078 7.46964 73.8876H7.23955C6.33951 73.8673 5.62895 73.125 5.64925 72.2273L5.69662 69.791C5.71693 68.8934 4.9996 68.151 4.10632 68.1375L1.60244 68.0835C0.702401 68.0632 -0.00815855 67.3209 0.0121432 66.43C0.0324449 65.5324 0.776841 64.8237 1.67012 64.844L4.174 64.898C5.07404 64.9182 5.81843 64.2028 5.83197 63.312L5.87934 60.8756C5.89964 59.978 6.64404 59.2693 7.53731 59.2896H7.7674C8.66744 59.3098 9.378 60.0522 9.3577 60.9498L9.31033 63.3862C9.29003 64.2838 10.0074 65.0262 10.9006 65.0397L13.4045 65.0937C14.3046 65.1139 15.0151 65.8563 14.9948 66.7472C14.9745 67.6448 14.2301 68.3534 13.3368 68.34L13.3436 68.3332Z" fill="#55DBA6"/>
<path d="M215.163 8.74664C214.757 8.74664 214.351 8.69264 213.945 8.57116C211.624 7.90302 210.284 5.47339 210.954 3.1585C211.279 2.03817 212.023 1.10681 213.052 0.54665C214.08 -0.0135132 215.258 -0.148492 216.388 0.175458C218.709 0.843605 220.049 3.27323 219.379 5.58812C218.824 7.49808 217.065 8.73989 215.17 8.73989L215.163 8.74664ZM215.163 0.634387C214.54 0.634387 213.925 0.789613 213.363 1.10006C212.483 1.57924 211.847 2.37562 211.57 3.33397C211.292 4.29232 211.4 5.30467 211.888 6.17528C212.368 7.05265 213.167 7.68705 214.128 7.96376C216.104 8.53742 218.195 7.39684 218.77 5.4194C219.345 3.44195 218.202 1.36327 216.219 0.789613C215.874 0.688379 215.522 0.641136 215.17 0.641136L215.163 0.634387Z" fill="#55DBA6"/>
<path d="M27.8456 170.911C27.4328 170.911 27.02 170.85 26.6207 170.735C24.2996 170.067 22.9597 167.637 23.6296 165.322C24.3063 163.008 26.7425 161.671 29.0637 162.339C31.3849 163.008 32.7248 165.437 32.0548 167.752C31.73 168.872 30.9856 169.804 29.957 170.364C29.3006 170.722 28.5765 170.911 27.8524 170.911H27.8456ZM27.8456 162.798C26.2215 162.798 24.7191 163.865 24.2454 165.491C23.6702 167.469 24.8139 169.547 26.7967 170.121C27.7576 170.398 28.7727 170.29 29.6457 169.804C30.5254 169.325 31.1616 168.528 31.439 167.57C32.0142 165.592 30.8706 163.514 28.8878 162.94C28.5426 162.839 28.1907 162.792 27.8456 162.792V162.798Z" fill="#55DBA6"/>
<path d="M67.1986 180.818C67.1241 180.818 67.0429 180.791 66.982 180.737C66.7655 180.541 66.5489 180.339 66.3391 180.143C66.2105 180.022 66.2038 179.826 66.3256 179.698C66.4474 179.57 66.6437 179.563 66.7722 179.684C66.982 179.88 67.1986 180.082 67.4151 180.278C67.5437 180.4 67.5505 180.595 67.4354 180.724C67.3745 180.791 67.2865 180.825 67.1986 180.825V180.818ZM65.1752 178.908C65.094 178.908 65.0127 178.881 64.9518 178.82C64.4917 178.375 64.0383 177.93 63.5916 177.477C63.4698 177.356 63.4698 177.153 63.5916 177.025C63.7134 176.904 63.9165 176.904 64.0383 177.025C64.4849 177.471 64.9315 177.916 65.3917 178.361C65.5203 178.483 65.5203 178.685 65.3917 178.807C65.3308 178.868 65.2496 178.901 65.1616 178.901L65.1752 178.908ZM62.4886 176.202C62.4074 176.202 62.3194 176.168 62.2585 176.101C61.8186 175.642 61.3855 175.176 60.9524 174.704C60.8306 174.575 60.8441 174.373 60.9727 174.258C61.1013 174.143 61.3043 174.15 61.4193 174.278C61.8457 174.744 62.2788 175.203 62.7187 175.662C62.8405 175.79 62.8337 175.993 62.7051 176.107C62.6442 176.168 62.563 176.195 62.4886 176.195V176.202ZM59.9102 173.394C59.8223 173.394 59.7343 173.361 59.6734 173.286C59.2538 172.807 58.8343 172.328 58.4215 171.842C58.3064 171.707 58.3267 171.511 58.4553 171.397C58.5906 171.282 58.7937 171.302 58.9019 171.43C59.3147 171.909 59.7275 172.389 60.1471 172.868C60.2621 172.996 60.2486 173.199 60.12 173.313C60.0591 173.367 59.9847 173.394 59.9102 173.394ZM57.4402 170.492C57.3455 170.492 57.2575 170.452 57.1966 170.377C56.7905 169.885 56.3913 169.385 55.9988 168.886C55.8905 168.751 55.9108 168.548 56.0529 168.441C56.1883 168.333 56.3913 168.353 56.4996 168.495C56.8921 168.987 57.2913 169.487 57.6906 169.973C57.7989 170.108 57.7853 170.31 57.6432 170.418C57.5823 170.465 57.5146 170.492 57.4402 170.492ZM55.0784 167.502C54.9837 167.502 54.889 167.462 54.8281 167.374C54.4423 166.868 54.0634 166.355 53.6844 165.842C53.5829 165.7 53.6099 165.505 53.7521 165.397C53.8942 165.296 54.0904 165.322 54.1987 165.464C54.5709 165.977 54.9499 166.483 55.3356 166.989C55.4439 167.131 55.4168 167.327 55.2747 167.435C55.2138 167.475 55.1461 167.502 55.0852 167.502H55.0784ZM52.8249 164.432C52.7234 164.432 52.6287 164.384 52.5678 164.297C52.2024 163.777 51.8369 163.251 51.4783 162.724C51.3768 162.582 51.4174 162.38 51.5662 162.285C51.7084 162.184 51.9114 162.225 52.0061 162.366C52.3648 162.886 52.7234 163.413 53.0889 163.925C53.1904 164.067 53.1565 164.27 53.0144 164.371C52.9603 164.411 52.8926 164.432 52.8317 164.432H52.8249ZM50.6797 161.28C50.5782 161.28 50.4767 161.233 50.4158 161.138C50.0639 160.605 49.7188 160.072 49.3804 159.532C49.2857 159.383 49.3331 159.188 49.4819 159.093C49.6308 158.999 49.8271 159.046 49.9218 159.194C50.2602 159.728 50.6053 160.261 50.9504 160.794C51.0452 160.942 51.0046 161.138 50.8557 161.233C50.8015 161.266 50.7406 161.287 50.6797 161.287V161.28ZM48.6428 158.061C48.5345 158.061 48.433 158.007 48.3721 157.905C48.0405 157.359 47.7157 156.812 47.3909 156.265C47.3029 156.117 47.3503 155.921 47.5059 155.833C47.6548 155.746 47.851 155.793 47.939 155.948C48.2571 156.495 48.5819 157.042 48.9135 157.581C49.0015 157.73 48.9541 157.926 48.8052 158.02C48.7511 158.054 48.6969 158.067 48.6428 158.067V158.061ZM46.7141 154.774C46.6059 154.774 46.4976 154.713 46.4367 154.612C46.1254 154.058 45.8141 153.498 45.5096 152.938C45.4284 152.783 45.4825 152.594 45.6381 152.506C45.7938 152.425 45.9833 152.479 46.0712 152.634C46.3758 153.188 46.6803 153.741 46.9916 154.295C47.0796 154.45 47.0254 154.639 46.8698 154.727C46.8224 154.754 46.7683 154.767 46.7141 154.767V154.774ZM44.9005 151.433C44.7855 151.433 44.6772 151.372 44.6163 151.264C44.3253 150.704 44.0343 150.137 43.7501 149.57C43.6689 149.415 43.7365 149.226 43.8922 149.145C44.0478 149.064 44.2373 149.132 44.3185 149.287C44.6028 149.847 44.8937 150.414 45.1847 150.974C45.2659 151.129 45.205 151.318 45.0494 151.399C45.002 151.426 44.9546 151.433 44.9005 151.433ZM43.1952 148.045C43.0801 148.045 42.9651 147.978 42.9109 147.87C42.6335 147.296 42.3628 146.722 42.0921 146.149C42.0177 145.987 42.0921 145.798 42.2478 145.73C42.4102 145.656 42.5929 145.73 42.6673 145.885C42.9312 146.459 43.2019 147.026 43.4794 147.593C43.5538 147.748 43.4929 147.944 43.3305 148.018C43.2831 148.038 43.2358 148.052 43.1952 148.052V148.045ZM41.5913 144.603C41.4695 144.603 41.3545 144.536 41.3003 144.414C41.0432 143.834 40.786 143.253 40.5356 142.673C40.468 142.511 40.5356 142.322 40.7048 142.255C40.8672 142.187 41.0567 142.255 41.1244 142.423C41.3748 143.004 41.6319 143.577 41.8891 144.158C41.9635 144.32 41.8891 144.509 41.7267 144.576C41.6861 144.596 41.6387 144.603 41.5981 144.603H41.5913ZM40.0822 141.121C39.9604 141.121 39.8386 141.046 39.7912 140.925C39.5476 140.338 39.3108 139.751 39.0739 139.164C39.0062 139.002 39.0875 138.819 39.2499 138.752C39.4123 138.684 39.6018 138.765 39.6627 138.927C39.8995 139.514 40.1364 140.095 40.38 140.682C40.4477 140.844 40.3732 141.033 40.2108 141.094C40.1702 141.107 40.1296 141.121 40.089 141.121H40.0822ZM38.6747 137.598C38.5461 137.598 38.4243 137.524 38.3769 137.395C38.1468 136.801 37.9235 136.207 37.7069 135.607C37.646 135.445 37.7272 135.263 37.8964 135.202C38.0588 135.141 38.2415 135.222 38.3025 135.391C38.5258 135.985 38.7423 136.579 38.9724 137.173C39.0333 137.335 38.9521 137.517 38.7897 137.584C38.7491 137.598 38.7153 137.605 38.6747 137.605V137.598ZM37.355 134.021C37.2265 134.021 37.0979 133.94 37.0573 133.812C36.8475 133.211 36.6377 132.61 36.4347 132.01C36.3806 131.841 36.4685 131.665 36.6309 131.605C36.7934 131.551 36.9761 131.638 37.037 131.8C37.24 132.401 37.4498 132.995 37.6596 133.596C37.7205 133.764 37.6325 133.94 37.4633 134.001C37.4295 134.014 37.3956 134.021 37.355 134.021ZM36.1302 130.417C35.9948 130.417 35.873 130.329 35.8256 130.201C35.6294 129.594 35.4331 128.986 35.2437 128.385C35.1895 128.217 35.2843 128.041 35.4534 127.987C35.6226 127.933 35.7986 128.028 35.8527 128.196C36.0422 128.797 36.2317 129.405 36.4347 130.005C36.4888 130.174 36.4009 130.349 36.2317 130.403C36.1978 130.417 36.164 130.417 36.1302 130.417ZM34.9933 126.779C34.8579 126.779 34.7293 126.691 34.6887 126.55C34.506 125.942 34.3301 125.328 34.1541 124.721C34.1068 124.552 34.2015 124.377 34.3707 124.329C34.5399 124.282 34.7158 124.377 34.7632 124.545C34.9391 125.153 35.1151 125.76 35.2978 126.368C35.3452 126.536 35.2504 126.712 35.0812 126.766C35.0542 126.772 35.0203 126.779 34.9933 126.779ZM33.9444 123.121C33.8022 123.121 33.6737 123.027 33.6398 122.885C33.4706 122.271 33.3082 121.657 33.1458 121.043C33.0984 120.874 33.2 120.698 33.3759 120.658C33.5451 120.617 33.721 120.712 33.7616 120.887C33.924 121.501 34.0865 122.109 34.2556 122.723C34.303 122.892 34.2015 123.067 34.0323 123.115C34.0053 123.121 33.9782 123.128 33.9511 123.128L33.9444 123.121ZM32.9766 119.436C32.8345 119.436 32.7059 119.342 32.6653 119.193C32.5097 118.572 32.3608 117.958 32.2119 117.337C32.1713 117.169 32.2796 116.993 32.4488 116.953C32.618 116.912 32.7939 117.02 32.8345 117.189C32.9834 117.803 33.1323 118.417 33.2879 119.038C33.3285 119.207 33.227 119.382 33.0578 119.423C33.0308 119.423 33.0037 119.43 32.9834 119.43L32.9766 119.436ZM32.0901 115.731C31.948 115.731 31.8127 115.63 31.7788 115.481C31.6367 114.861 31.4946 114.24 31.366 113.619C31.3254 113.45 31.4405 113.281 31.6097 113.241C31.7856 113.2 31.948 113.315 31.9886 113.484C32.124 114.105 32.2593 114.719 32.4014 115.34C32.442 115.508 32.3337 115.684 32.1646 115.718C32.1375 115.718 32.1172 115.724 32.0969 115.724L32.0901 115.731ZM31.2781 112.006C31.1292 112.006 31.0006 111.904 30.9668 111.749C30.8382 111.122 30.7096 110.501 30.5878 109.88C30.554 109.711 30.669 109.542 30.8382 109.509C31.0141 109.475 31.1765 109.59 31.2104 109.758C31.3322 110.379 31.4608 111 31.5894 111.621C31.6232 111.79 31.5149 111.958 31.3457 111.999C31.3254 111.999 31.3051 111.999 31.2781 111.999V112.006ZM30.5404 108.267C30.3916 108.267 30.2562 108.159 30.2291 108.01C30.1141 107.383 29.999 106.755 29.884 106.134C29.8502 105.959 29.9652 105.797 30.1412 105.77C30.3103 105.736 30.4795 105.851 30.5066 106.026C30.6149 106.647 30.7299 107.275 30.845 107.896C30.8788 108.071 30.7637 108.233 30.5878 108.267C30.5675 108.267 30.5472 108.267 30.5269 108.267H30.5404ZM29.8772 104.514C29.7216 104.514 29.593 104.406 29.5659 104.251C29.4577 103.624 29.3562 102.996 29.2614 102.368C29.2344 102.193 29.3562 102.031 29.5253 102.004C29.6945 101.977 29.8637 102.091 29.8908 102.267C29.9923 102.888 30.0938 103.516 30.1953 104.143C30.2224 104.319 30.1073 104.481 29.9314 104.508C29.9111 104.508 29.8975 104.508 29.8772 104.508V104.514ZM29.2817 100.748C29.1261 100.748 28.9907 100.634 28.9704 100.478C28.8757 99.8508 28.7877 99.2164 28.6997 98.5888C28.6727 98.4133 28.7945 98.2513 28.9704 98.2311C29.1396 98.2041 29.302 98.3256 29.3291 98.501C29.4171 99.1287 29.505 99.7564 29.5998 100.384C29.6269 100.559 29.505 100.721 29.3359 100.742C29.3223 100.742 29.302 100.742 29.2885 100.742L29.2817 100.748ZM28.7539 96.9758C28.5982 96.9758 28.4629 96.861 28.4358 96.6991C28.3546 96.0647 28.2734 95.437 28.199 94.8094C28.1787 94.6339 28.3005 94.4787 28.4764 94.4584C28.6456 94.4314 28.808 94.5597 28.8283 94.7351C28.9028 95.3628 28.984 95.9904 29.0652 96.6248C29.0855 96.8003 28.9637 96.9555 28.7877 96.9825C28.7742 96.9825 28.7606 96.9825 28.7471 96.9825L28.7539 96.9758ZM28.2869 93.1964C28.1245 93.1964 27.9892 93.0749 27.9689 92.9129C27.8944 92.2785 27.8268 91.6441 27.7591 91.0165C27.7388 90.841 27.8674 90.6857 28.0433 90.6655C28.2125 90.6453 28.3749 90.7735 28.3952 90.949C28.4629 91.5766 28.5306 92.2043 28.605 92.8387C28.6253 93.0141 28.4967 93.1694 28.3275 93.1896C28.314 93.1896 28.3005 93.1896 28.2937 93.1896L28.2869 93.1964ZM27.8809 89.4102C27.7185 89.4102 27.5831 89.2887 27.5628 89.1267C27.5019 88.4923 27.441 87.8579 27.3869 87.2303C27.3734 87.0548 27.5019 86.8996 27.6779 86.8861C27.8403 86.8726 28.0095 87.0008 28.023 87.1763C28.0772 87.8039 28.1381 88.4383 28.199 89.0728C28.2125 89.2482 28.0907 89.4035 27.9147 89.417C27.9012 89.417 27.8944 89.417 27.8809 89.417V89.4102ZM27.5358 85.6173C27.3734 85.6173 27.2312 85.4891 27.2177 85.3271C27.1636 84.6927 27.1162 84.0583 27.0688 83.4239C27.0553 83.2484 27.1839 83.0999 27.3598 83.0864C27.5358 83.0729 27.6847 83.2012 27.705 83.3766C27.7523 84.0043 27.7997 84.6387 27.8538 85.2731C27.8674 85.4486 27.7388 85.6038 27.5628 85.6173C27.5561 85.6173 27.5425 85.6173 27.5358 85.6173ZM27.2448 81.8176C27.0824 81.8176 26.9403 81.6894 26.9267 81.5207C26.8861 80.8795 26.8455 80.2451 26.8049 79.6175C26.7914 79.442 26.9267 79.2935 27.1027 79.28C27.2719 79.2733 27.4275 79.4015 27.441 79.577C27.4816 80.2046 27.5222 80.839 27.5628 81.4734C27.5764 81.6489 27.441 81.7974 27.2651 81.8109C27.2583 81.8109 27.2515 81.8109 27.2448 81.8109V81.8176ZM27.0147 78.018C26.8455 78.018 26.7034 77.8897 26.6966 77.721C26.6628 77.0799 26.629 76.4454 26.6019 75.8178C26.5951 75.6423 26.7305 75.4938 26.9064 75.4871C27.0756 75.4803 27.2312 75.6153 27.238 75.7908C27.2651 76.4185 27.2989 77.0529 27.3328 77.694C27.3395 77.8695 27.2109 78.018 27.035 78.0315C27.035 78.0315 27.0215 78.0315 27.0147 78.0315V78.018ZM26.832 74.2115C26.6628 74.2115 26.5207 74.0766 26.5139 73.9078C26.4869 73.2667 26.4666 72.6323 26.4395 72.0046C26.4395 71.8292 26.5681 71.6807 26.744 71.6739C26.92 71.6537 27.0688 71.8022 27.0756 71.9776C27.0959 72.6053 27.123 73.2397 27.15 73.8808C27.1568 74.0563 27.0215 74.2048 26.8455 74.2115C26.8455 74.2115 26.8388 74.2115 26.832 74.2115ZM26.7034 70.4051C26.5342 70.4051 26.3921 70.2702 26.3853 70.0947C26.365 69.4535 26.3515 68.8191 26.338 68.1915C26.338 68.016 26.4733 67.8743 26.6493 67.8675C26.8455 67.8675 26.9741 68.0025 26.9741 68.178C26.9876 68.8056 27.0079 69.44 27.0215 70.0812C27.0215 70.2567 26.8861 70.4051 26.7102 70.4051H26.7034ZM26.6154 66.5987C26.4395 66.5987 26.2974 66.457 26.2974 66.2883C26.2838 65.6404 26.2771 65.006 26.2703 64.3783C26.2703 64.2028 26.4124 64.0611 26.5816 64.0544C26.7508 64.0476 26.8997 64.1961 26.9064 64.3716C26.9132 64.9992 26.92 65.6336 26.9335 66.2748C26.9335 66.4502 26.7981 66.592 26.6222 66.5987H26.6154ZM26.5748 62.7856C26.3989 62.7856 26.2568 62.6438 26.2568 62.4684C26.2568 61.8205 26.2568 61.1861 26.25 60.5584C26.25 60.3829 26.3921 60.2412 26.5681 60.2412C26.744 60.2412 26.8861 60.3829 26.8861 60.5584C26.8861 61.1793 26.8861 61.8137 26.8929 62.4616C26.8929 62.6371 26.7508 62.7788 26.5748 62.7788V62.7856ZM26.5748 58.9791C26.3989 58.9791 26.2568 58.8374 26.2568 58.6619C26.2568 58.014 26.2568 57.3796 26.2635 56.7587C26.2635 56.5833 26.4056 56.4415 26.5816 56.4415C26.7575 56.4415 26.8997 56.5833 26.8997 56.7587C26.8997 57.3796 26.8929 58.014 26.8929 58.6619C26.8929 58.8374 26.7508 58.9791 26.5748 58.9791ZM26.6019 55.1727C26.4259 55.1727 26.2838 55.031 26.2838 54.8555C26.2838 54.2009 26.2974 53.5665 26.3041 52.9523C26.3041 52.7768 26.4462 52.6419 26.6222 52.6419C26.7981 52.6419 26.9403 52.7903 26.9335 52.9658C26.9267 53.58 26.92 54.2144 26.9132 54.869C26.9132 55.0445 26.7711 55.1862 26.5951 55.1862L26.6019 55.1727ZM26.6493 51.3663C26.4733 51.3663 26.3312 51.2178 26.338 51.0424L26.365 49.1392C26.365 48.9637 26.5072 48.8287 26.6831 48.8287C26.8591 48.8287 27.0012 48.9772 26.9944 49.1527L26.9673 51.0559C26.9673 51.2313 26.8252 51.3663 26.6493 51.3663ZM26.6966 47.5599C26.5207 47.5599 26.3786 47.4114 26.3786 47.2427C26.3853 46.5678 26.3921 45.9334 26.3921 45.3395C26.3921 45.164 26.5342 45.0223 26.7102 45.0223C26.8861 45.0223 27.0282 45.164 27.0282 45.3395C27.0282 45.9334 27.0282 46.5678 27.0147 47.2495C27.0147 47.4249 26.8726 47.5667 26.6966 47.5667V47.5599Z" fill="#55DBA6"/>
<path d="M70.0732 183.039C68.2799 182.33 65.8505 181.675 64.0098 181.648L66.852 180.136L68.0633 177.167C68.2867 178.996 69.1799 181.338 70.0732 183.039Z" fill="#55DBA6"/>
<path d="M172.887 179.468L172.447 179.009C212.821 140.588 211.907 75.2576 211.562 50.6644L211.542 49.1662H212.178L212.198 50.6509C212.374 62.9745 212.692 85.9142 207.901 110.103C202.054 139.582 190.279 162.92 172.887 179.468Z" fill="#55DBA6"/>
<path d="M211.827 45.3327C212.518 47.128 213.688 49.3484 214.913 50.7252L211.875 49.6656L208.863 50.7927C210.061 49.3956 211.178 47.1415 211.827 45.3327Z" fill="#55DBA6"/>
<path d="M207.097 177.383H206.603C206.427 177.369 206.278 177.511 206.278 177.687V178.166C206.264 178.341 206.115 178.483 205.939 178.476H205.892C205.716 178.476 205.574 178.328 205.581 178.152V177.673C205.594 177.498 205.452 177.349 205.276 177.349H204.782C204.606 177.336 204.464 177.187 204.471 177.012C204.471 176.836 204.62 176.695 204.796 176.701H205.29C205.466 176.715 205.615 176.573 205.615 176.398V175.918C205.628 175.743 205.777 175.601 205.953 175.608H206C206.176 175.608 206.318 175.756 206.312 175.932V176.411C206.298 176.587 206.44 176.735 206.616 176.735H207.11C207.286 176.748 207.428 176.897 207.421 177.072C207.421 177.248 207.273 177.39 207.097 177.383Z" fill="#55DBA6"/>
</g>
<path d="M68.0312 192.325H84.6719" stroke="#55DBA6" stroke-width="2" stroke-linecap="round" stroke-linejoin="round"/>
<path d="M133.748 192.325H136.996" stroke="#55DBA6" stroke-width="2" stroke-linecap="round" stroke-linejoin="round"/>
<path d="M89.8691 192.325H130.479" stroke="#55DBA6" stroke-width="2" stroke-linecap="round" stroke-linejoin="round"/>
<path d="M139.791 192.325H170.48" stroke="#55DBA6" stroke-width="2" stroke-linecap="round" stroke-linejoin="round"/>
</g>
<defs>
<clipPath id="clip0_381_4793">
<rect width="253" height="193" fill="white"/>
</clipPath>
</defs>
</svg>
