<svg width="30" height="31" viewBox="0 0 30 31" fill="none" xmlns="http://www.w3.org/2000/svg">
<path d="M15 0.527344C6.71572 0.527344 0 7.26481 0 15.5759C0 23.887 6.71572 30.6245 15 30.6245C23.2843 30.6245 30 23.887 30 15.5759C30 7.26481 23.2843 0.527344 15 0.527344ZM15 28.7434C7.75125 28.7434 1.875 22.8481 1.875 15.5759C1.875 8.30369 7.75125 2.40841 15 2.40841C22.2488 2.40841 28.125 8.30369 28.125 15.5759C28.125 22.8481 22.2488 28.7434 15 28.7434Z" fill="black"/>
<path d="M15 17.457C16.0355 17.457 16.875 16.6148 16.875 15.5759C16.875 14.537 16.0355 13.6948 15 13.6948C13.9645 13.6948 13.125 14.537 13.125 15.5759C13.125 16.6148 13.9645 17.457 15 17.457Z" fill="black"/>
<path d="M21.5625 17.457C22.598 17.457 23.4375 16.6148 23.4375 15.5759C23.4375 14.537 22.598 13.6948 21.5625 13.6948C20.527 13.6948 19.6875 14.537 19.6875 15.5759C19.6875 16.6148 20.527 17.457 21.5625 17.457Z" fill="black"/>
<path d="M8.4375 17.457C9.47303 17.457 10.3125 16.6148 10.3125 15.5759C10.3125 14.537 9.47303 13.6948 8.4375 13.6948C7.40197 13.6948 6.5625 14.537 6.5625 15.5759C6.5625 16.6148 7.40197 17.457 8.4375 17.457Z" fill="black"/>
</svg>
