<svg width="67" height="54" viewBox="0 0 67 54" fill="none" xmlns="http://www.w3.org/2000/svg">
<g clipPath="url(#clip0_821_6156)">
<path d="M37.971 4.27701C38.0746 4.27701 38.1728 4.29346 38.2655 4.32088C38.7071 4.43603 39.0343 4.84179 39.0343 5.32433V18.3308L50.1737 7.12835C50.5499 6.75 51.0352 6.56905 51.5259 6.56905C52.0112 6.56905 52.5019 6.75 52.8781 7.12835L56.7221 10.9941C56.902 11.1751 56.9456 11.4821 56.8039 11.7234C56.3568 12.4362 56.1932 13.2807 56.2859 14.0922C56.384 14.8763 56.733 15.6495 57.3437 16.2636C57.9434 16.8777 58.7068 17.2287 59.5028 17.3274C60.2989 17.4261 61.1168 17.2561 61.8311 16.8394C62.0655 16.6858 62.3872 16.6968 62.5944 16.9106L66.4384 20.7764C66.8146 21.1548 66.9946 21.6428 66.9946 22.1363C66.9946 22.6243 66.8146 23.1178 66.4384 23.4961L39.0343 51.0554V52.9691C39.0343 53.5394 38.5708 54.0055 38.0037 54.0055H2.95524C2.14282 54.0055 1.40674 53.671 0.872396 53.1336C0.332601 52.5908 0 51.845 0 51.028V2.81296C0 2.64297 0.0381673 2.48396 0.114502 2.34139C0.261719 1.79854 0.545247 1.316 0.926921 0.932169C1.49943 0.356418 2.29004 0 3.15698 0H37.971C38.5381 0 39.0015 0.466084 39.0015 1.03635C39.0015 1.60662 38.5381 2.07271 37.971 2.07271H3.15698C2.8571 2.07271 2.58447 2.19882 2.38273 2.39622C2.18644 2.59911 2.06104 2.87327 2.06104 3.17486C2.06104 3.47644 2.18644 3.75061 2.38273 3.95349C2.58447 4.15638 2.8571 4.27701 3.15698 4.27701H37.971ZM39.0343 20.0416V26.1062C39.1815 26.1336 39.3505 26.172 39.5468 26.2214L40.4955 25.2673L41.3679 26.1446L40.9644 26.5504L42.0059 26.7971L43.0691 25.7279L43.9469 26.6107L43.429 27.1316L44.7539 27.4387L46.984 25.196C47.2948 24.8834 47.8945 24.9657 48.3089 25.3824C48.7233 25.7991 48.8106 26.4023 48.4943 26.7149L46.2642 28.9576L46.5696 30.279L47.0821 29.7636L47.96 30.6464L46.9022 31.7102L47.1421 32.7575L47.5401 32.3572L48.418 33.24L47.4747 34.1887L47.4801 34.2106C47.9327 36.2065 47.5292 35.5814 46.0243 37.0948L43.8433 31.4031L41.6842 33.5745C41.8314 34.6273 41.8968 35.4718 41.0735 36.2998L40.152 35.395C40.0811 34.9509 40.0484 34.6328 40.0103 34.4025C39.8739 34.3367 39.7376 34.2435 39.6177 34.1283C39.5141 34.0242 39.4268 33.9035 39.3669 33.7829C39.2742 33.7719 39.1597 33.761 39.0343 33.7445V43.0717L42.1694 46.2246L59.9772 28.3105L45.3973 13.6426L39.0343 20.0416ZM39.0343 28.5847V31.8966C39.3887 31.8857 39.7594 31.9515 40.1793 32.0337L42.333 29.8678L39.0343 28.5847ZM39.0343 44.7277V49.3721L41.3461 47.0471L39.0343 44.7277ZM60.806 27.4825L46.2206 12.8146L51.0243 7.98375C51.166 7.84119 51.346 7.77539 51.5422 7.77539C51.7222 7.77539 51.9185 7.84667 52.0602 7.98375L55.5825 11.526C55.179 12.3814 55.0264 13.319 55.1354 14.2457C55.5389 17.6235 59.1048 19.5152 62.0982 18.0841L65.6205 21.6263C65.7623 21.7689 65.8277 21.9498 65.8277 22.1472C65.8277 22.3282 65.7568 22.5256 65.6205 22.6682L65.6042 22.6517L60.806 27.4825ZM28.3202 28.3928C28.3529 28.3928 28.3856 28.3928 28.4128 28.3983C28.62 28.0364 28.8054 27.6525 28.9799 27.2522C28.9854 27.2467 28.9854 27.2413 28.9908 27.2303C29.2471 26.6216 29.4434 25.9856 29.5688 25.3276C29.6669 24.8176 29.7378 24.3022 29.7542 23.7648H26.6953C26.6408 25.3276 26.1773 26.8684 25.3158 28.3818H28.3147V28.3928H28.3202ZM27.7858 29.3743H24.7106C23.7782 30.7396 22.5133 32.0776 20.9375 33.41C21.1829 33.3771 21.4337 33.3387 21.6736 33.2894C22.3333 33.1578 22.9713 32.9604 23.582 32.6917C24.2035 32.423 24.7815 32.1105 25.3267 31.7431C25.8665 31.3812 26.3627 30.9699 26.8207 30.5093C27.1751 30.1529 27.5023 29.7801 27.7967 29.3743H27.7858ZM18.3149 33.4045C16.7391 32.0776 15.4796 30.7342 14.5417 29.3688H11.4666C11.761 29.7691 12.0881 30.1474 12.4425 30.5039C12.906 30.9645 13.3967 31.3757 13.9365 31.7376C14.4709 32.0995 15.0488 32.4175 15.6813 32.6862C15.6868 32.6917 15.6922 32.6917 15.7031 32.6972C16.3083 32.9549 16.9408 33.1523 17.5951 33.2839C17.835 33.3333 18.0804 33.3716 18.3312 33.4045H18.3149ZM10.8232 28.3928H13.9202C13.0587 26.8739 12.5898 25.3331 12.5407 23.7758H9.48185C9.50912 24.3132 9.56909 24.8286 9.66724 25.3385C9.7981 26.002 9.99439 26.6436 10.2616 27.2577C10.4306 27.6525 10.616 28.0309 10.8232 28.3928ZM9.48185 22.7943H12.557C12.6716 21.2644 13.1786 19.7236 14.0783 18.1773H10.8177C10.6105 18.5392 10.4251 18.9175 10.2561 19.3123C10.2507 19.3178 10.2507 19.3233 10.2452 19.3343C9.98893 19.9429 9.79264 20.579 9.66724 21.237C9.56909 21.736 9.50366 22.2569 9.48185 22.7943ZM11.4611 17.1903H14.7108C15.6377 15.8469 16.8591 14.498 18.3803 13.1436C18.1077 13.1765 17.8405 13.2149 17.5788 13.2697C16.919 13.4013 16.2811 13.5987 15.6704 13.8674C15.0488 14.1361 14.4709 14.4541 13.9256 14.816C13.3858 15.1779 12.8896 15.5892 12.4316 16.0498C12.0772 16.4062 11.7501 16.779 11.4556 17.1848L11.4611 17.1903ZM20.8666 13.1436C22.3933 14.498 23.6147 15.8469 24.5361 17.1903H27.7858C27.4914 16.79 27.1642 16.4117 26.8098 16.0552C26.3464 15.5946 25.8556 15.1834 25.3158 14.8215C24.7815 14.4596 24.2035 14.1416 23.571 13.8729C23.5656 13.8674 23.5601 13.8674 23.5492 13.8619C22.944 13.6042 22.3115 13.4068 21.6572 13.2752C21.3901 13.2203 21.1229 13.182 20.8557 13.1491V13.1436H20.8666ZM28.4237 18.1718H25.1632C26.0628 19.7236 26.5699 21.2589 26.6844 22.7888H29.7596C29.7323 22.2514 29.6724 21.736 29.5742 21.226C29.4434 20.5625 29.2471 19.921 28.9799 19.3069C28.8163 18.9121 28.6309 18.5337 28.4237 18.1718ZM17.3879 12.3101C18.1077 12.1621 18.8547 12.0908 19.6235 12.0908C20.3923 12.0908 21.1338 12.1621 21.859 12.3101C22.5732 12.4527 23.2603 12.6665 23.9364 12.9571C23.9418 12.9571 23.9582 12.9626 23.9636 12.9681C24.6288 13.2587 25.2668 13.6042 25.8611 14.0045C26.4554 14.3993 27.0007 14.8599 27.5023 15.3589C28.0094 15.8633 28.4565 16.4117 28.849 17.0093C29.2471 17.607 29.5906 18.2431 29.8796 18.9175C30.174 19.603 30.3866 20.3048 30.5339 21.0341C30.6811 21.7579 30.752 22.5091 30.752 23.2823C30.752 24.0554 30.6811 24.8012 30.5339 25.5305C30.3921 26.2488 30.1794 26.9397 29.8905 27.6196C29.8905 27.6251 29.885 27.6416 29.8796 27.647C29.5906 28.327 29.2471 28.9576 28.849 29.5552C28.4565 30.1529 27.9985 30.7013 27.5023 31.2057C27.0007 31.7157 26.4554 32.1653 25.8611 32.5601C25.2668 32.9604 24.6343 33.3058 23.9636 33.5965C23.2821 33.8926 22.5841 34.1064 21.859 34.2545C21.1392 34.4025 20.3923 34.4738 19.6235 34.4738C18.8547 34.4738 18.1131 34.4025 17.3879 34.2545C16.6737 34.1119 15.9867 33.898 15.3105 33.6074C15.3051 33.6074 15.2887 33.6019 15.2833 33.5965C14.6181 33.3058 13.9801 32.9604 13.3858 32.5601C12.7915 32.1653 12.2463 31.7047 11.7446 31.2057C11.2375 30.7013 10.7904 30.1529 10.3979 29.5552C9.99984 28.9576 9.65633 28.3215 9.36735 27.647C9.07292 26.9616 8.86027 26.2597 8.71305 25.5305C8.56584 24.8067 8.49496 24.0554 8.49496 23.2823C8.49496 22.5091 8.56584 21.7634 8.71305 21.0341C8.85482 20.3158 9.06746 19.6249 9.35645 18.945C9.35645 18.9395 9.3619 18.923 9.36735 18.9175C9.65633 18.2376 9.99984 17.607 10.3979 17.0093C10.7904 16.4117 11.243 15.8633 11.7446 15.3589C12.2463 14.8489 12.7915 14.3993 13.3858 14.0045C13.9801 13.6042 14.6126 13.2587 15.2833 12.9681C15.9648 12.672 16.6682 12.4582 17.3879 12.3101ZM20.1087 13.7796V17.1903H23.342C22.4915 16.0662 21.4173 14.9312 20.1087 13.7796ZM20.1087 18.1718V22.7888H25.7084C25.583 21.2699 25.0214 19.7346 24.0181 18.1718H20.1087ZM20.1087 23.7703V28.3873H24.1872C25.1577 26.8574 25.6702 25.3166 25.7302 23.7703H20.1087ZM20.1087 29.3743V32.8233C21.4882 31.6828 22.6278 30.5258 23.5056 29.3743H20.1087ZM19.1382 32.8233V29.3743H15.7413C16.6137 30.5258 17.7478 31.6828 19.1382 32.8233ZM19.1382 28.3928V23.7758H13.5167C13.5767 25.3276 14.0946 26.8629 15.0597 28.3928H19.1382ZM19.1382 22.7943V18.1773H15.2233C14.2201 19.74 13.6584 21.2809 13.533 22.7943H19.1382ZM19.1382 17.1903V13.7796C17.8296 14.9257 16.7555 16.0607 15.9049 17.1903H19.1382ZM12.3171 46.9484C11.7501 46.9484 11.2866 46.4823 11.2866 45.9121C11.2866 45.3418 11.7501 44.8757 12.3171 44.8757H26.6844C27.2515 44.8757 27.7149 45.3418 27.7149 45.9121C27.7149 46.4823 27.2515 46.9484 26.6844 46.9484H12.3171ZM8.12419 41.5199C7.55713 41.5199 7.09367 41.0538 7.09367 40.4835C7.09367 39.9133 7.55713 39.4472 8.12419 39.4472H30.8828C31.4499 39.4472 31.9133 39.9133 31.9133 40.4835C31.9133 41.0538 31.4499 41.5199 30.8828 41.5199H8.12419ZM36.9732 6.34972H3.15698C2.76986 6.34972 2.39909 6.27843 2.06104 6.15232V51.028C2.06104 51.2748 2.16463 51.4996 2.32275 51.6641C2.48633 51.8286 2.70988 51.9273 2.95524 51.9273H36.9732V6.34972Z" fill="white"/>
</g>
<defs>
<clipPath id="clip0_821_6156">
<rect width="67" height="54" fill="white"/>
</clipPath>
</defs>
</svg>
