<svg width="167" height="169" viewBox="0 0 167 169" fill="none" xmlns="http://www.w3.org/2000/svg">
<g clipPath="url(#clip0_2129_13756)">
<path d="M105.333 20.8754L163.632 122.919C165.771 126.661 167 130.999 167 135.631C167 149.695 155.717 161.098 141.799 161.098H83.4999L63.3389 84.6091L83.4999 8.12061C92.8349 8.12061 100.978 13.2537 105.333 20.8754Z" fill="#55DBA6"/>
<path d="M61.6664 20.8754L3.36707 122.919C1.22934 126.661 0 130.999 0 135.631C0 149.695 11.2829 161.098 25.2013 161.098H83.5V8.12061C74.165 8.12061 66.0214 13.2537 61.6664 20.8754Z" fill="#55DBA6"/>
<path d="M154.903 128.012L96.6047 25.9696C93.9771 21.3685 89.152 18.4652 83.9336 18.3159L133.795 150.912H141.799C150.136 150.912 156.92 144.057 156.92 135.632C156.92 132.956 156.221 130.321 154.903 128.012Z" fill="#D9D9D9"/>
<path d="M145.098 128.012C146.237 130.321 146.839 132.956 146.839 135.632C146.839 144.057 140.989 150.912 133.795 150.912H25.2012C16.8646 150.912 10.0806 144.057 10.0806 135.632C10.0806 132.956 10.7796 130.321 12.0966 128.012L70.3953 25.97C73.097 21.2434 78.1171 18.3062 83.4999 18.3062C83.6444 18.3062 83.7889 18.3094 83.9334 18.3164C88.4124 18.493 92.5489 21.3894 94.8034 25.97L145.098 128.012Z" fill="white"/>
<path d="M83.5 116.955V133.933C88.1404 133.933 91.9006 130.133 91.9006 125.443C91.9006 120.754 88.1404 116.955 83.5 116.955Z" fill="#55DBA6"/>
<path d="M83.5002 116.955C84.4275 116.955 85.1803 120.754 85.1803 125.444C85.1803 130.133 84.4275 133.933 83.5002 133.933C78.8597 133.933 75.0996 130.133 75.0996 125.444C75.0996 120.754 78.8597 116.955 83.5002 116.955Z" fill="#55DBA6"/>
<path d="M83.5 43.9497V106.769C88.1404 106.769 91.9006 102.966 91.9006 98.2798V52.4389C91.9006 47.7495 88.1404 43.9497 83.5 43.9497Z" fill="#55DBA6"/>
<path d="M83.5002 43.9497C84.4275 43.9497 85.1803 47.7495 85.1803 52.4389V98.2798C85.1803 102.966 84.4275 106.769 83.5002 106.769C78.8597 106.769 75.0996 102.966 75.0996 98.2798V52.4389C75.0996 47.7495 78.8597 43.9497 83.5002 43.9497Z" fill="#55DBA6"/>
</g>
<defs>
<clipPath id="clip0_2129_13756">
<rect width="167" height="168.763" fill="white" transform="translate(0 0.227539)"/>
</clipPath>
</defs>
</svg>
