<svg width="27" height="27" viewBox="0 0 27 27" fill="none" xmlns="http://www.w3.org/2000/svg">
<path d="M17.9735 26C14.125 26 10.9861 22.6349 10.9861 18.5089C10.9861 14.3829 14.125 11.0178 17.9735 11.0178C21.8221 11.0178 24.9609 14.3829 24.9609 18.5089C24.9609 22.6349 21.8221 26 17.9735 26Z" stroke="#646464" stroke-miterlimit="10" stroke-linecap="round" stroke-linejoin="round"/>
<path d="M5.76285 18.3629H1.38043C0.924562 18.3629 0.552895 18.763 0.552895 19.25V19.8765C0.552895 20.3636 0.924562 20.7637 1.38043 20.7637C4.70739 20.7637 8.00681 20.8358 11.3307 20.8358C11.1074 20.1028 10.9866 19.3206 10.9866 18.5088C10.9866 14.3713 14.1146 11.0177 17.974 11.0177C18.7327 11.0177 19.4623 11.1473 20.1445 11.3867V2.39181C20.1445 1.41607 19.4011 0.617432 18.491 0.617432H17.3223C16.4122 0.617432 15.6673 1.41607 15.6673 2.39181V8.90876H8.0695C6.80148 8.90876 5.76285 10.0207 5.76285 11.3818V18.3629Z" stroke="#646464" stroke-miterlimit="10" stroke-linecap="round" stroke-linejoin="round"/>
<path d="M3.32295 25.3669C2.71564 25.3669 2.22159 24.8355 2.22159 24.1845C2.22159 23.5334 2.71564 23.0038 3.32295 23.0038C3.93016 23.0038 4.42578 23.5334 4.42578 24.1845C4.42583 24.8355 3.93021 25.3669 3.32295 25.3669Z" stroke="#646464" stroke-miterlimit="10" stroke-linecap="round" stroke-linejoin="round"/>
<path d="M13.2588 12.9807H7.26258H5.76359" stroke="#646464" stroke-miterlimit="10" stroke-linecap="round" stroke-linejoin="round"/>
<path d="M17.8408 11.0178V26" stroke="#646464" stroke-miterlimit="10" stroke-linecap="round" stroke-linejoin="round"/>
<path d="M24.8262 18.5089H10.986" stroke="#646464" stroke-miterlimit="10" stroke-linecap="round" stroke-linejoin="round"/>
<path d="M12.939 13.1676L22.7363 23.85" stroke="#646464" stroke-miterlimit="10" stroke-linecap="round" stroke-linejoin="round"/>
<path d="M22.7363 13.1676L13.1638 23.604" stroke="#646464" stroke-miterlimit="10" stroke-linecap="round" stroke-linejoin="round"/>
<path d="M8.76074 18.3629H2.76449H1.26549" stroke="#646464" stroke-miterlimit="10" stroke-linecap="round" stroke-linejoin="round"/>
<path d="M24.8323 3.19702H20.144V5.50763H24.8323C25.4243 5.50763 25.9092 4.98776 25.9092 4.35317C25.9092 3.71683 25.4243 3.19702 24.8323 3.19702Z" stroke="#646464" stroke-miterlimit="10" stroke-linecap="round" stroke-linejoin="round"/>
</svg>
