<svg width="19" height="16" viewBox="0 0 19 16" fill="none" xmlns="http://www.w3.org/2000/svg">
<path d="M16.8671 1.84221C16.4415 1.41638 15.9361 1.07858 15.3799 0.848115C14.8237 0.617646 14.2275 0.499023 13.6254 0.499023C13.0234 0.499023 12.4272 0.617646 11.871 0.848115C11.3147 1.07858 10.8094 1.41638 10.3838 1.84221L9.50042 2.72554L8.61709 1.84221C7.75735 0.982468 6.59128 0.499469 5.37542 0.499469C4.15956 0.499469 2.9935 0.982468 2.13376 1.84221C1.27401 2.70196 0.791016 3.86802 0.791016 5.08388C0.791016 6.29974 1.27401 7.4658 2.13376 8.32555L3.01709 9.20888L9.50042 15.6922L15.9838 9.20888L16.8671 8.32555C17.2929 7.89992 17.6307 7.39456 17.8612 6.83834C18.0917 6.28212 18.2103 5.68595 18.2103 5.08388C18.2103 4.48181 18.0917 3.88563 17.8612 3.32942C17.6307 2.7732 17.2929 2.26784 16.8671 1.84221Z" fill="#E5E5E5"/>
</svg>
