<svg width="60" height="60" viewBox="0 0 60 60" fill="none" xmlns="http://www.w3.org/2000/svg">
<rect width="60" height="60" rx="15" fill="#0A6259"/>
<path fill-rule="evenodd" clip-rule="evenodd" d="M24.9706 22.618C25.3384 20.2359 27.3976 18.4121 29.8827 18.4121C32.3678 18.4121 34.427 20.2359 34.7948 22.618H39.0592C40.3262 22.618 41.3533 23.6451 41.3533 24.9121V27.6622L30.0738 30.573C29.9485 30.6054 29.8169 30.6054 29.6916 30.573L18.4121 27.6622V24.9121C18.4121 23.6451 19.4392 22.618 20.7062 22.618H24.9706ZM26.5268 22.618C26.8745 21.0855 28.245 19.9415 29.8827 19.9415C31.5204 19.9415 32.8909 21.0855 33.2386 22.618H26.5268Z" fill="white"/>
<path d="M35.618 30.7223L41.3533 29.2422V39.0596C41.3533 40.3266 40.3262 41.3538 39.0592 41.3538H20.7062C19.4392 41.3538 18.4121 40.3266 18.4121 39.0596V29.2422L24.1474 30.7223V32.5596C24.1474 32.982 24.4898 33.3243 24.9121 33.3243C25.3345 33.3243 25.6768 32.982 25.6768 32.5596V31.1169L29.3094 32.0544C29.6854 32.1514 30.08 32.1514 30.456 32.0544L34.0886 31.1169V32.5596C34.0886 32.982 34.4309 33.3243 34.8533 33.3243C35.2756 33.3243 35.618 32.982 35.618 32.5596V30.7223Z" fill="white"/>
</svg>
