<svg width="35" height="28" viewBox="0 0 35 28" fill="none" xmlns="http://www.w3.org/2000/svg">
<path d="M12.9427 0H4.54305C3.2898 0 2.21598 0.443536 1.32446 1.33061C0.430094 2.21768 0 3.29647 0 4.56413V12.5764C0 13.8469 0.441488 14.9257 1.32446 15.8099C2.20744 16.697 3.28125 17.1405 4.54305 17.1405H8.27718C8.01514 18.1478 7.69613 19.1064 7.29452 20.002C6.9043 20.9091 6.2321 21.7762 5.30925 22.6032C7.08374 22.1396 8.65885 21.4443 10.0545 20.5286C11.4388 19.6215 12.6436 18.4826 13.6348 17.1434H16.6427C17.8959 17.1434 18.9697 16.6913 19.8612 15.8128C20.7528 14.9257 21.1857 13.8469 21.1857 12.5793V4.56699C21.1857 3.30792 20.7442 2.22913 19.8612 1.33347C18.9811 0.43209 17.9073 0 16.6427 0H12.9427ZM27.9248 16.2277H25.2645L24.8828 17.4181H22.4874L25.3471 10.2013H27.9163L30.7617 17.4181H28.3036L27.9248 16.2277ZM27.4292 14.6653L26.6003 12.0728L25.7686 14.6653H27.4292ZM13.7887 10.7879C14.0991 10.994 14.3042 11.1256 14.3982 11.1771C14.5406 11.2544 14.7343 11.3431 14.9736 11.4461L14.2814 12.7767C13.9339 12.6165 13.5864 12.4247 13.2446 12.2044C12.9028 11.9812 12.6636 11.8152 12.5269 11.7065C11.9743 11.9325 11.2821 12.047 10.4504 12.047C9.21997 12.047 8.2487 11.7437 7.53947 11.1342C6.69922 10.4159 6.28052 9.40296 6.28052 8.10097C6.28052 6.83618 6.64795 5.85181 7.38281 5.15074C8.11768 4.44967 9.14307 4.10056 10.4618 4.10056C11.8062 4.10056 12.8402 4.44108 13.5722 5.12785C14.3042 5.81175 14.6688 6.79326 14.6688 8.06663C14.6688 9.19693 14.3754 10.104 13.7887 10.7879ZM11.8717 9.56893C12.0711 9.23127 12.1708 8.72478 12.1708 8.04946C12.1708 7.27399 12.017 6.72172 11.7151 6.38978C11.4103 6.05784 10.9916 5.89188 10.4561 5.89188C9.95768 5.89188 9.55322 6.06071 9.24561 6.40123C8.93514 6.73889 8.78133 7.26827 8.78133 7.98937C8.78133 8.8278 8.93229 9.41727 9.23421 9.75493C9.53613 10.0926 9.95199 10.2643 10.4789 10.2643C10.6498 10.2643 10.8093 10.2471 10.9603 10.2185C10.7495 10.0239 10.4191 9.84364 9.96338 9.67195L10.3564 8.81921C10.5786 8.85641 10.7524 8.90506 10.8748 8.95943C11.0002 9.0138 11.2394 9.1626 11.6012 9.4001C11.6809 9.45161 11.7721 9.50884 11.8717 9.56893ZM35 9.1998V17.2121C35 17.9389 34.869 18.6228 34.6098 19.258C34.3477 19.8933 33.9689 20.4685 33.4448 20.9807C33.2255 21.201 32.9834 21.4042 32.7441 21.5759C32.4935 21.7562 32.2314 21.9078 31.9723 22.0394C31.9609 22.0509 31.9409 22.0509 31.9324 22.0595C31.5906 22.2197 31.2402 22.3313 30.8785 22.4114C30.4968 22.4916 30.1066 22.5316 29.705 22.5316H25.8598C25.9111 22.6919 25.9595 22.855 26.0193 23.0152C26.1702 23.4588 26.3497 23.9023 26.5405 24.3344V24.3458C26.7114 24.7493 26.9507 25.1328 27.2441 25.5162C27.546 25.9082 27.9049 26.2917 28.3378 26.6866C28.6483 26.9584 28.6796 27.4334 28.3976 27.7453C28.2068 27.9657 27.9163 28.0486 27.6542 27.9771C26.7314 27.7339 25.8484 27.4334 25.0252 27.07C24.2021 26.7066 23.4216 26.2831 22.6868 25.7995C21.9633 25.3245 21.2826 24.7808 20.6502 24.1885C20.1176 23.6848 19.6163 23.1297 19.1463 22.5459H16.5173C16.0246 22.5459 15.5432 22.4858 15.0932 22.3657C14.6431 22.2455 14.2102 22.0538 13.8 21.8019C13.4497 21.5902 13.3386 21.1266 13.5494 20.7747C13.7602 20.4227 14.2216 20.3111 14.5719 20.5228C14.8539 20.6945 15.153 20.8262 15.4834 20.9149C15.8053 21.0064 16.1556 21.0465 16.5173 21.0465H19.5166C19.7473 21.0465 19.9666 21.1467 20.1176 21.3498C20.5904 21.9851 21.1117 22.5688 21.6813 23.1039C22.2424 23.639 22.8548 24.1226 23.5156 24.5547C24.148 24.9668 24.8202 25.3416 25.5322 25.6621C25.3927 25.4304 25.2816 25.1986 25.1705 24.9668C24.9711 24.5032 24.7803 24.0282 24.6094 23.5246C24.4499 23.0496 24.2989 22.5574 24.1679 22.0623C24.1366 21.9822 24.128 21.8906 24.128 21.7991C24.128 21.387 24.4584 21.0436 24.88 21.0436H29.705C30.0069 21.0436 30.2861 21.0122 30.5566 20.9521C30.8187 20.892 31.0579 20.8119 31.2887 20.7088C31.3001 20.6974 31.3086 20.6974 31.32 20.6888C31.5108 20.5972 31.7017 20.4885 31.8726 20.3655C32.052 20.2338 32.2229 20.0936 32.3853 19.9219C32.7555 19.5499 33.0375 19.135 33.217 18.6915C33.3964 18.2479 33.4876 17.7529 33.4876 17.2206V9.20838C33.4876 8.67328 33.3964 8.18109 33.217 7.73756C33.0375 7.29402 32.7555 6.88196 32.3853 6.5071C32.015 6.1351 31.602 5.85181 31.1605 5.67154C30.719 5.49126 30.2262 5.39969 29.6965 5.39969H24.6578C24.2476 5.39969 23.9058 5.06776 23.9058 4.64425C23.9058 4.23219 24.2362 3.88881 24.6578 3.88881H29.705C30.4285 3.88881 31.1007 4.02044 31.7301 4.28084C32.3625 4.5441 32.9236 4.92468 33.4448 5.43975C33.9575 5.95483 34.3477 6.52713 34.5984 7.16239C34.8604 7.79765 34.9886 8.47297 34.9886 9.19693H35V9.1998Z" fill="#646464"/>
</svg>
