<svg width="32" height="32" viewBox="0 0 32 32" fill="none" xmlns="http://www.w3.org/2000/svg">
<path d="M14.962 23.2451C14.9068 23.1123 14.8789 22.9693 14.8789 22.8167C14.8789 22.6636 14.9065 22.5206 14.962 22.3881C15.0167 22.2563 15.099 22.1358 15.2081 22.0264L15.2083 22.0259C15.3174 21.9165 15.4383 21.8347 15.5703 21.7798C15.7031 21.7243 15.8464 21.697 15.999 21.697C16.1529 21.697 16.2964 21.7243 16.4292 21.7798C16.5594 21.8337 16.6784 21.9141 16.7862 22.0204C16.7883 22.0225 16.7904 22.024 16.7919 22.0259C16.901 22.1347 16.9831 22.2558 17.038 22.3881C17.0935 22.5209 17.1208 22.6639 17.1208 22.8167C17.1208 22.9693 17.0935 23.1123 17.038 23.2451C16.9831 23.3769 16.9013 23.498 16.7919 23.6074C16.6823 23.7167 16.5607 23.8001 16.4279 23.8555C16.2953 23.911 16.1521 23.9389 15.999 23.9389C15.8464 23.9389 15.7036 23.911 15.5714 23.8555C15.4417 23.8011 15.3221 23.7201 15.2143 23.6133C15.2122 23.6113 15.2102 23.6092 15.2081 23.6074C15.099 23.4982 15.0169 23.3774 14.962 23.2451ZM16 1.34504C14.9859 1.34504 14.0026 1.44035 13.0505 1.63098C12.0971 1.8216 11.1773 2.10623 10.2922 2.48435L10.2924 2.4854C9.39271 2.87237 8.55495 3.32497 7.78047 3.84476C7.00443 4.36559 6.28464 4.95699 5.62318 5.62105L5.62057 5.62365C4.95651 6.28537 4.3651 7.00463 3.84427 7.78093C3.32448 8.5554 2.87214 9.39315 2.4849 10.2929C2.48021 10.3038 2.47526 10.3142 2.47031 10.3249C2.09896 11.2002 1.81901 12.1093 1.63047 13.0509C1.43984 14.003 1.34453 14.9863 1.34453 16.0001C1.34453 17.0144 1.43984 17.9975 1.63047 18.9496C1.82109 19.9027 2.10573 20.8227 2.48385 21.7079L2.48464 21.7074C2.87161 22.6071 3.32422 23.4449 3.84401 24.2193C4.36484 24.9954 4.95625 25.7152 5.62031 26.3763L5.62292 26.379C6.28438 27.0433 7.00391 27.6347 7.78021 28.1555C8.55469 28.6748 9.39245 29.1274 10.2922 29.5146C10.3031 29.5193 10.3138 29.5242 10.3242 29.5294C11.1995 29.9008 12.1086 30.1805 13.0503 30.3693C14.0023 30.5599 14.9857 30.6552 15.9997 30.6552C17.0138 30.6552 17.9971 30.5602 18.949 30.3693C19.9023 30.1787 20.8219 29.8938 21.7076 29.5159L21.707 29.5149C22.6068 29.1279 23.4445 28.675 24.219 28.1558C24.9948 27.6349 25.7146 27.0435 26.376 26.3792L26.3786 26.3766C27.0424 25.7154 27.6341 24.9956 28.1547 24.2196C28.6745 23.4449 29.1271 22.6074 29.5143 21.7076C29.519 21.697 29.5237 21.6863 29.5289 21.6761C29.9005 20.8009 30.1802 19.8912 30.3688 18.9498C30.5594 17.9978 30.6549 17.0144 30.6549 16.0004C30.6549 14.9866 30.5596 14.0033 30.3688 13.0512C30.1781 12.0978 29.8935 11.1783 29.5154 10.2929L29.5146 10.2931C29.1276 9.39341 28.6747 8.55566 28.1549 7.78119C27.6344 7.00515 27.0427 6.28563 26.3789 5.62391L26.3763 5.62131C25.7148 4.95751 24.9951 4.36585 24.2193 3.84502C23.4445 3.32523 22.607 2.87263 21.7073 2.48566C21.6966 2.48097 21.6859 2.47602 21.6753 2.47107C20.8 2.09972 19.8909 1.81978 18.9492 1.63124C17.9974 1.44035 17.0141 1.34504 16 1.34504ZM12.788 0.312237C13.8276 0.104166 14.8984 0 16 0C17.1013 0 18.1724 0.104166 19.212 0.312237C20.237 0.517444 21.2339 0.825514 22.2016 1.23645C22.2138 1.24088 22.2258 1.24556 22.238 1.25077C23.2029 1.66587 24.1125 2.15858 24.9654 2.73097C25.8156 3.30154 26.6023 3.94814 27.325 4.67288L27.3276 4.67548C28.0521 5.39787 28.699 6.18484 29.2693 7.0351C29.8417 7.8877 30.3344 8.79732 30.7495 9.76242L30.7487 9.76268L30.7495 9.76503C31.1677 10.7434 31.4807 11.7515 31.688 12.7882C31.8961 13.8278 32 14.8986 32 16.0001C32 17.1017 31.8961 18.173 31.688 19.2121C31.4828 20.2371 31.1747 21.2339 30.7638 22.2016C30.7594 22.2139 30.7547 22.2261 30.7492 22.2384C30.3341 23.2032 29.8417 24.1126 29.269 24.9657C28.6987 25.8157 28.0518 26.6024 27.3273 27.3253L27.3247 27.3279C26.6023 28.0526 25.8154 28.6992 24.9651 29.2698C24.1125 29.8419 23.2026 30.3349 22.2378 30.75L22.2372 30.749L22.2349 30.75C21.2565 31.168 20.2484 31.481 19.2117 31.6885C18.1721 31.8966 17.1013 32.0008 15.9997 32.0008C14.8982 32.0008 13.8271 31.8966 12.7878 31.6885C11.763 31.4831 10.7661 31.1753 9.79818 30.7643C9.78594 30.7596 9.77396 30.7552 9.76172 30.75C8.79662 30.3349 7.88724 29.8422 7.03438 29.2698C6.18438 28.6992 5.3974 28.0526 4.675 27.3279L4.6724 27.3253C3.94766 26.6026 3.30104 25.8157 2.73047 24.9657C2.15807 24.1128 1.66536 23.2032 1.25026 22.2384L1.2513 22.2378L1.25026 22.2352C0.832292 21.2571 0.519271 20.2491 0.311719 19.2121C0.104167 18.1725 0 17.1014 0 15.9996C0 14.8983 0.104167 13.8272 0.31224 12.7877C0.517448 11.7629 0.825521 10.7661 1.2362 9.79836C1.24063 9.78612 1.24557 9.77414 1.25052 9.7619C1.66563 8.7968 2.15833 7.88718 2.73073 7.03458C3.30104 6.18459 3.94792 5.39761 4.67266 4.67496L4.67526 4.67236C5.39766 3.94762 6.18464 3.30101 7.03464 2.73045C7.8875 2.15806 8.79714 1.66535 9.76198 1.25025L9.7625 1.25103L9.76458 1.25025C10.7432 0.832545 11.7513 0.519787 12.788 0.312237ZM16.6945 20.2655C16.6932 20.529 16.5078 20.6951 16.2708 20.7665C16.1846 20.7925 16.0919 20.805 16 20.805C15.9081 20.805 15.8154 20.7923 15.7292 20.7665C15.4922 20.6954 15.3068 20.529 15.3055 20.2655L14.4156 8.6304C14.4154 8.62779 14.4154 8.62493 14.4154 8.62233C14.4154 8.33743 14.8396 8.16452 15.3826 8.09681C15.5779 8.07259 15.7891 8.06035 16 8.06035C16.2109 8.06035 16.4221 8.07259 16.6172 8.09681C17.1604 8.16452 17.5849 8.33743 17.5849 8.62233C17.5849 8.62701 17.5844 8.6317 17.5839 8.63613L16.6945 20.2655Z" fill="white"/>
</svg>
