<svg width="30" height="30" viewBox="0 0 30 30" fill="none" xmlns="http://www.w3.org/2000/svg">
<path d="M13.2161 0C16.862 0 20.1682 1.46925 22.5633 3.83157C24.9581 6.20366 26.4318 9.46858 26.4318 13.089C26.4318 15.7299 25.6368 18.1979 24.2792 20.2529L30 26.4277L26.0539 30L20.537 23.9885C18.4421 25.3713 15.9211 26.1782 13.2161 26.1782C9.57025 26.1782 6.26381 24.7087 3.86897 22.3466C1.47388 19.9743 0 16.7091 0 13.089C0 9.4781 1.4835 6.20366 3.86897 3.83157C6.26381 1.45973 9.56064 0 13.2161 0ZM7.09874 9.75399H8.98208V13.0209C8.98208 13.7069 8.92119 14.2294 8.79818 14.5878C8.67493 14.9449 8.42768 15.2489 8.05594 15.4982C7.68396 15.746 7.2077 15.8705 6.62791 15.8705C6.01435 15.8705 5.53908 15.7877 5.20259 15.6239C4.86462 15.4601 4.60456 15.2208 4.42066 14.9042C4.23676 14.5892 4.12805 14.1984 4.09551 13.7338L5.88542 13.4928C5.88838 13.7562 5.91229 13.9523 5.95617 14.0795C6.00005 14.2084 6.07499 14.3104 6.18099 14.3905C6.25297 14.4423 6.35478 14.4674 6.48789 14.4674C6.69841 14.4674 6.85273 14.3905 6.95158 14.2364C7.0492 14.0824 7.0985 13.8219 7.0985 13.4564V9.75399H7.09874ZM9.56729 12.766C9.56729 11.7843 9.84289 11.0199 10.3958 10.4737C10.9487 9.92611 11.7178 9.65291 12.7049 9.65291C13.7158 9.65291 14.4948 9.92196 15.042 10.4581C15.589 10.9959 15.8619 11.7494 15.8619 12.7169C15.8619 13.4195 15.7436 13.9952 15.5042 14.4447C15.2654 14.8944 14.9188 15.2443 14.4679 15.495C14.0156 15.7455 13.4528 15.8702 12.7783 15.8702C12.094 15.8702 11.527 15.7626 11.0774 15.5468C10.6293 15.3297 10.2644 14.9882 9.98587 14.5204C9.70706 14.0543 9.56729 13.4689 9.56729 12.766ZM11.4422 12.7701C11.4422 13.3763 11.5566 13.8133 11.7844 14.078C12.0134 14.3426 12.3245 14.4757 12.7177 14.4757C13.1205 14.4757 13.4343 14.3453 13.6549 14.0863C13.877 13.826 13.9872 13.3609 13.9872 12.6876C13.9872 12.1219 13.8711 11.7088 13.6409 11.4483C13.4089 11.1866 13.0963 11.0565 12.7007 11.0565C12.3218 11.0565 12.0164 11.1893 11.7874 11.454C11.5566 11.7186 11.4422 12.1583 11.4422 12.7701ZM16.4555 9.75399H19.9722C20.5577 9.75399 21.0068 9.89827 21.3209 10.1854C21.6349 10.4725 21.7917 10.8282 21.7917 11.2525C21.7917 11.6082 21.68 11.9134 21.4552 12.1668C21.3068 12.3377 21.0879 12.4708 20.801 12.5702C21.2376 12.6737 21.5573 12.8514 21.7639 13.1048C21.9685 13.3585 22.072 13.6764 22.072 14.0585C22.072 14.3707 21.9983 14.6508 21.8524 14.9C21.7054 15.1493 21.5048 15.3451 21.2514 15.4911C21.0929 15.5805 20.8557 15.6464 20.5375 15.6871C20.1147 15.7418 19.8349 15.7697 19.6964 15.7697H16.4555V9.75399ZM18.3472 12.1148H19.1661C19.459 12.1148 19.6641 12.0643 19.778 11.9649C19.8926 11.8641 19.9508 11.7201 19.9508 11.5309C19.9508 11.356 19.8926 11.2186 19.778 11.1207C19.6638 11.0213 19.4632 10.9723 19.1785 10.9723H18.347L18.3472 12.1148ZM18.3472 14.4757H19.3049C19.6286 14.4757 19.8561 14.4183 19.989 14.3048C20.1219 14.1913 20.1884 14.0402 20.1884 13.8483C20.1884 13.6703 20.1233 13.5277 19.9919 13.4198C19.8606 13.3121 19.6298 13.2574 19.3005 13.2574H18.3472V14.4757ZM21.5161 4.86869C19.3924 2.76565 16.4545 1.45973 13.2161 1.45973C9.97749 1.45973 7.03958 2.76589 4.91615 4.86869C2.79271 6.97174 1.47388 9.88143 1.47388 13.089C1.47388 16.2965 2.79271 19.2062 4.91615 21.3093C7.03958 23.4123 9.97749 24.7185 13.2161 24.7185C16.4545 24.7185 19.3924 23.4123 21.5161 21.3093C23.6393 19.2062 24.9581 16.2965 24.9581 13.089C24.9581 9.88143 23.6393 6.97174 21.5161 4.86869Z" fill="#646464"/>
</svg>
