<svg width="27" height="27" viewBox="0 0 27 27" fill="none" xmlns="http://www.w3.org/2000/svg">
<path d="M11.127 14.291H15.873V15.873H11.127V14.291Z" fill="#646464"/>
<path d="M21.9047 15.8731H17.4551V16.6641C17.4551 17.1012 17.1012 17.4551 16.6641 17.4551H10.3359C9.89882 17.4551 9.54492 17.1012 9.54492 16.6641V15.8731H5.09525C4.07249 15.8731 3.16798 15.2211 2.84415 14.2509L0 5.71695V22.9922C0 24.3007 1.06458 25.3652 2.37305 25.3652H24.627C25.9354 25.3652 27 24.3007 27 22.9922V5.71757L24.1556 14.2509C23.832 15.2211 22.9275 15.8731 21.9047 15.8731Z" fill="#646464"/>
<path d="M16.6639 1.63477H10.3358C9.02731 1.63477 7.96273 2.69934 7.96273 4.00781V4.79883H1.36084L4.34425 13.7503C4.45239 14.0739 4.75438 14.291 5.09509 14.291H9.54476V13.5C9.54476 13.0629 9.89866 12.709 10.3358 12.709H16.6639C17.101 12.709 17.4549 13.0629 17.4549 13.5V14.291H21.9046C22.2453 14.291 22.5473 14.0739 22.6554 13.7503L25.639 4.79883H19.0369V4.00781C19.0369 2.69934 17.9724 1.63477 16.6639 1.63477ZM9.54476 4.79883V4.00781C9.54476 3.57131 9.89928 3.2168 10.3358 3.2168H16.6639C17.1004 3.2168 17.4549 3.57131 17.4549 4.00781V4.79883H9.54476Z" fill="#646464"/>
</svg>
