<svg width="30" height="28" viewBox="0 0 30 28" fill="none" xmlns="http://www.w3.org/2000/svg">
<path d="M5.0586 16.8196C4.86691 16.8099 4.68685 16.7286 4.55717 16.5932C4.4275 16.4578 4.35858 16.279 4.36524 16.0955C4.35858 15.9119 4.4275 15.7331 4.55717 15.5977C4.68685 15.4623 4.86691 15.381 5.0586 15.3713H14.0308C14.2225 15.381 14.4025 15.4623 14.5322 15.5977C14.6619 15.7331 14.7308 15.9119 14.7241 16.0955C14.7308 16.279 14.6619 16.4578 14.5322 16.5932C14.4025 16.7286 14.2225 16.8099 14.0308 16.8196H5.0586ZM20.2832 22.3678C20.0391 22.0104 19.6069 21.5221 19.6069 21.1016C19.6124 20.9653 19.6604 20.8337 19.7449 20.7237C19.8293 20.6138 19.9462 20.5306 20.0806 20.4849C20.0586 20.1322 20.044 19.7701 20.044 19.4127C20.044 19.2024 20.044 18.9875 20.0562 18.7773C20.0691 18.6675 20.0945 18.5594 20.1318 18.4549C20.3053 17.9177 20.6812 17.4615 21.1865 17.1747C21.3668 17.0684 21.5583 16.9807 21.7578 16.9131C22.1192 16.7869 21.9434 16.2403 22.3413 16.2333C23.2666 16.2099 24.7827 16.9855 25.3858 17.6022C25.763 17.9746 25.98 18.4691 25.9937 18.9875L25.957 20.5573C26.0448 20.5749 26.1264 20.6135 26.1943 20.6695C26.2621 20.7254 26.3141 20.797 26.3452 20.8774C26.4722 21.3679 25.94 21.9777 25.6934 22.3678C25.4468 22.7579 24.5947 23.7087 24.5923 23.718C24.5985 23.7842 24.6258 23.847 24.6704 23.8979C26.023 25.678 30 24.3044 30 27.8435H15.9497C15.9497 24.302 19.9268 25.678 21.2769 23.8979C21.3261 23.8458 21.3598 23.7821 21.3745 23.7133C21.3745 23.69 20.3735 22.5173 20.2832 22.3795V22.3678ZM22.2363 4.40582H24.7217C24.9547 4.40505 25.1856 4.44889 25.4007 4.53474C25.6158 4.62059 25.8107 4.74673 25.9741 4.90573C26.3066 5.22345 26.4937 5.6545 26.4942 6.10413V14.4602L24.9634 13.8855V6.10413C24.9634 6.04218 24.9377 5.98276 24.8919 5.93895C24.8461 5.89514 24.784 5.87053 24.7192 5.87053H22.2168V13.5211L20.6934 14.0958V1.69833C20.6934 1.63637 20.6676 1.57695 20.6219 1.53314C20.5761 1.48933 20.514 1.46472 20.4492 1.46472H1.76759C1.70284 1.46472 1.64074 1.48933 1.59495 1.53314C1.54917 1.57695 1.52345 1.63637 1.52345 1.69833V21.8936C1.52345 21.9555 1.54917 22.0149 1.59495 22.0587C1.64074 22.1025 1.70284 22.1272 1.76759 22.1272H15.7275L15.1367 23.5942H5.77638V26.304C5.77638 26.366 5.8021 26.4254 5.84788 26.4692C5.89367 26.513 5.95577 26.5376 6.02052 26.5376H13.7622L13.1616 27.9953H6.03761C5.56724 27.9929 5.11691 27.8128 4.78454 27.4944C4.45217 27.1759 4.26463 26.7448 4.2627 26.2947V23.5942H1.77491C1.30455 23.5917 0.854219 23.4117 0.521846 23.0932C0.189472 22.7748 0.00193364 22.3436 1.02762e-05 21.8936V1.69833C-0.000788788 1.47533 0.0450206 1.25444 0.134744 1.04864C0.224468 0.842831 0.356295 0.656271 0.522471 0.499928C0.68644 0.341657 0.881523 0.216001 1.09648 0.130201C1.31143 0.0444018 1.54201 0.000155026 1.77491 1.11404e-05H20.4566C20.69 -0.000802857 20.9212 0.0429981 21.1367 0.128844C21.3522 0.21469 21.5476 0.340852 21.7114 0.499928C22.0446 0.817405 22.2325 1.24841 22.2339 1.69833V4.40582H22.2363ZM5.05372 6.74188C4.86159 6.73278 4.68091 6.65173 4.55072 6.51623C4.42053 6.38073 4.35127 6.20165 4.35792 6.0177C4.35127 5.83374 4.42053 5.65467 4.55072 5.51917C4.68091 5.38367 4.86159 5.30261 5.05372 5.29352H17.0337C17.2254 5.30321 17.4055 5.38452 17.5351 5.51995C17.6648 5.65539 17.7337 5.83413 17.7271 6.0177C17.7337 6.20127 17.6648 6.38001 17.5351 6.51544C17.4055 6.65088 17.2254 6.73219 17.0337 6.74188H5.05372ZM5.05372 11.7808C4.86159 11.7717 4.68091 11.6906 4.55072 11.5551C4.42053 11.4196 4.35127 11.2405 4.35792 11.0566C4.35127 10.8726 4.42053 10.6936 4.55072 10.558C4.68091 10.4225 4.86159 10.3415 5.05372 10.3324H17.0337C17.2254 10.3421 17.4055 10.4234 17.5351 10.5588C17.6648 10.6943 17.7337 10.873 17.7271 11.0566C17.7337 11.2401 17.6648 11.4189 17.5351 11.5543C17.4055 11.6898 17.2254 11.7711 17.0337 11.7808H5.05372Z" fill="#646464"/>
</svg>
